<svg width="90" height="14" viewBox="0 0 90 14" fill="none" xmlns="http://www.w3.org/2000/svg">
<path d="M7.84184 6.7558C7.21298 4.69028 4.68016 4.23514 2.7293 4.89874C1.71993 5.23284 0.808721 5.81108 0.0766092 6.58208C0.0436227 6.61776 0.0201898 6.66121 0.00848679 6.70837C-0.00321618 6.75554 -0.00280959 6.8049 0.00966878 6.85187C0.0221472 6.89883 0.0462926 6.94189 0.0798625 6.97702C0.113432 7.01216 0.155338 7.03825 0.201687 7.05285C2.14213 7.63308 2.31411 10.0565 4.83998 10.3535C5.32808 10.4117 5.82287 10.3384 6.27309 10.1411C6.72331 9.94374 7.11259 9.62964 7.4006 9.23129C7.58678 8.98018 7.73056 8.70026 7.82621 8.40265C7.99843 7.86801 8.00389 7.29361 7.84184 6.7558V6.7558Z" fill="#158D0C"/>
<path d="M11.8565 0.173268C8.97968 0.8334 7.60383 3.72234 8.53496 5.45606C8.7399 5.83333 9.02088 6.164 9.36012 6.42715C9.56629 6.59074 9.79287 6.7268 10.0342 6.83191C10.6043 7.08375 11.2388 7.15132 11.8492 7.02519C12.4596 6.89906 13.0154 6.58553 13.439 6.12835C14.9087 4.59789 14.3337 2.73388 16.5434 1.0905C16.5851 1.0606 16.6179 1.02001 16.6384 0.973015C16.6589 0.926018 16.6663 0.874357 16.6599 0.823482C16.6535 0.772607 16.6335 0.724403 16.602 0.683955C16.5705 0.643507 16.5286 0.612314 16.4809 0.593668C15.1276 0.0846718 13.4356 -0.201964 11.8565 0.173268Z" fill="#158D0C"/>
<path d="M9.16854 13.7443C9.00839 13.7452 8.85261 13.692 8.72648 13.5933C8.60034 13.4946 8.51126 13.3562 8.47367 13.2005C7.99073 11.168 6.88588 8.95483 6.10414 9.0052C6.00923 9.01611 5.9131 9.00777 5.82148 8.98067C5.72987 8.95358 5.64467 8.90828 5.57096 8.8475C5.49725 8.78672 5.43656 8.71169 5.39252 8.62692C5.34847 8.54214 5.32198 8.44935 5.31461 8.3541C5.30725 8.25885 5.31917 8.16309 5.34967 8.07255C5.38016 7.98202 5.4286 7.89856 5.49209 7.82717C5.55558 7.75578 5.63281 7.69793 5.71917 7.65708C5.80553 7.61622 5.89924 7.5932 5.9947 7.5894C7.10303 7.49732 7.96293 8.4163 8.58832 9.51768C8.78289 7.84997 9.20676 5.90606 10.1327 4.39992C10.231 4.23866 10.3894 4.12308 10.573 4.07861C10.7566 4.03415 10.9503 4.06442 11.1116 4.16279C11.2728 4.26116 11.3884 4.41955 11.4329 4.60313C11.4774 4.78671 11.4471 4.98044 11.3487 5.1417C9.60632 7.99069 9.87384 12.9417 9.87732 12.9921C9.88199 13.0884 9.86719 13.1848 9.83378 13.2753C9.80037 13.3658 9.74904 13.4486 9.68287 13.5189C9.6167 13.5891 9.53705 13.6452 9.44868 13.684C9.3603 13.7227 9.26502 13.7432 9.16854 13.7443Z" fill="#158D0C"/>
<path d="M19.4766 13.7472V1.8457H23.75C24.662 1.8238 25.569 1.98629 26.4166 2.32343C27.1126 2.59701 27.7129 3.06874 28.1434 3.68017C28.5503 4.3049 28.7575 5.03863 28.7375 5.78391C28.7342 6.21766 28.6505 6.64703 28.4908 7.05032C28.3343 7.45945 28.1138 7.84116 27.8376 8.18123C27.5597 8.5253 27.2248 8.8191 26.8474 9.04982L29.4532 13.7402H25.9302L24.0853 9.93579C23.929 9.94621 23.7726 9.95142 23.6163 9.95142C23.2961 9.9489 22.9766 9.92102 22.6608 9.86804V13.7472H19.4766ZM22.6608 4.51576V7.22577C22.8514 7.26949 23.0446 7.30025 23.2393 7.31785C23.4235 7.33522 23.6337 7.3439 23.8682 7.3439C24.2935 7.3664 24.7118 7.22882 25.0408 6.95825C25.188 6.82244 25.3035 6.6558 25.3788 6.47021C25.4542 6.28462 25.4877 6.08468 25.4768 5.88467C25.4862 5.6914 25.4493 5.49869 25.3692 5.32254C25.2892 5.1464 25.1682 4.9919 25.0165 4.87188C24.7084 4.63447 24.281 4.51576 23.7344 4.51576H22.6608Z" fill="#158D0C"/>
<path d="M34.2778 14C33.6357 14.0087 32.9981 13.8907 32.4017 13.6526C31.8467 13.4281 31.3441 13.0916 30.9251 12.6641C30.5048 12.2287 30.1768 11.7129 29.9609 11.1476C29.7256 10.5292 29.6078 9.87226 29.6135 9.21061C29.6096 8.57114 29.7275 7.93677 29.9609 7.3414C30.1819 6.77917 30.5126 6.26658 30.9337 5.83352C31.3503 5.40457 31.8497 5.06474 32.4017 4.83464C32.9808 4.59757 33.6017 4.47941 34.2274 4.4872C34.8812 4.47488 35.5308 4.59299 36.1383 4.83464C36.689 5.06004 37.1835 5.40337 37.5872 5.84047C38.0004 6.29306 38.3172 6.82501 38.5183 7.40394C38.7442 8.06456 38.8547 8.75917 38.8449 9.45729V10.0271H32.8203C32.8881 10.4388 33.081 10.8197 33.3727 11.118C33.6455 11.3709 34.0068 11.5064 34.3786 11.495C34.6624 11.4992 34.9426 11.4305 35.1923 11.2955C35.4421 11.1604 35.6529 10.9636 35.8048 10.7237L38.6712 11.3613C38.4512 11.8916 38.1159 12.3664 37.6897 12.751C37.2445 13.1505 36.7267 13.4608 36.1644 13.6648C35.5606 13.8882 34.9216 14.0017 34.2778 14V14ZM34.2274 6.70385C34.0542 6.69818 33.8817 6.72792 33.7204 6.79124C33.5591 6.85457 33.4124 6.95015 33.2894 7.07214C33.0175 7.37116 32.8425 7.74541 32.7873 8.14572H35.6033C35.5569 7.74925 35.3937 7.37554 35.1343 7.07214C35.0167 6.95077 34.8749 6.85555 34.718 6.79269C34.5612 6.72983 34.3928 6.70074 34.224 6.70733L34.2274 6.70385Z" fill="#158D0C"/>
<path d="M41.8881 13.748L38.9141 4.72852H42.1504L43.3665 10.1937L44.8413 4.72852H47.5079L49.0141 10.2493L50.2874 4.73373H53.4057L50.4386 13.748H47.5878L46.1477 8.35055L44.6885 13.748H41.8881Z" fill="#158D0C"/>
<path d="M57.3112 2.39788C57.3146 2.6864 57.2396 2.97043 57.094 3.21957C56.9494 3.46419 56.7403 3.66431 56.4895 3.79805C56.2269 3.93896 55.9329 4.01126 55.6348 4.00825C55.3394 4.01193 55.0481 3.93954 54.7888 3.79805C54.5449 3.66122 54.3421 3.46145 54.2016 3.21957C54.0561 2.97043 53.981 2.6864 53.9845 2.39788C53.9813 2.10939 54.0563 1.82543 54.2016 1.57619C54.3449 1.33355 54.5507 1.13378 54.7975 0.997706C55.0569 0.85675 55.3483 0.784959 55.6435 0.789244C55.9414 0.785626 56.2354 0.857333 56.4982 0.997706C56.7485 1.13203 56.9575 1.33202 57.1027 1.57619C57.245 1.8263 57.317 2.1102 57.3112 2.39788ZM54.0766 13.7469V4.72745H57.2035V13.7469H54.0766Z" fill="#158D0C"/>
<path d="M58.543 13.7478V1.17578H61.6699V13.7478H58.543Z" fill="#158D0C"/>
<path d="M66.7493 13.9997C66.2069 14.0047 65.671 13.8808 65.1858 13.6384C64.7042 13.394 64.277 13.0549 63.9298 12.6412C63.5568 12.2012 63.2698 11.695 63.0838 11.149C62.8784 10.5564 62.7762 9.93297 62.7815 9.30582C62.7749 8.65516 62.8825 8.00837 63.0994 7.39492C63.2974 6.83249 63.5991 6.31219 63.9889 5.86098C64.3588 5.43579 64.8116 5.09057 65.3196 4.84646C65.8345 4.59973 66.3989 4.47378 66.9699 4.47818C67.4411 4.47075 67.9081 4.56806 68.3371 4.76307C68.7413 4.95044 69.0947 5.23225 69.3672 5.58477V1.17578H72.5028V13.7478H69.6017L69.5183 12.4745C69.2272 12.9448 68.8197 13.3322 68.3353 13.5993C67.8509 13.8665 67.3059 14.0044 66.7527 13.9997H66.7493ZM67.6874 11.149C67.9952 11.1529 68.2974 11.0659 68.5559 10.8988C68.8162 10.7262 69.0246 10.486 69.1587 10.2039C69.3029 9.89406 69.3776 9.55641 69.3776 9.21462C69.3776 8.87283 69.3029 8.53518 69.1587 8.22529C69.0253 7.94279 68.8168 7.7024 68.5559 7.53042C68.2978 7.36214 67.9955 7.27446 67.6874 7.27852C67.376 7.27478 67.0704 7.36235 66.8083 7.53042C66.5422 7.70127 66.3278 7.94153 66.1882 8.22529C66.038 8.53347 65.9599 8.87179 65.9599 9.21462C65.9599 9.55744 66.038 9.89577 66.1882 10.2039C66.3288 10.487 66.543 10.727 66.8083 10.8988C67.0709 11.0656 67.3763 11.1525 67.6874 11.149Z" fill="#158D0C"/>
<path d="M78.2466 13.9999C77.6039 14.0088 76.9658 13.8907 76.3687 13.6525C75.8143 13.4281 75.3122 13.0915 74.8939 12.664C74.4736 12.2286 74.1456 11.7128 73.9297 11.1474C73.6936 10.5292 73.5758 9.8722 73.5823 9.21048C73.5776 8.57093 73.6955 7.9364 73.9297 7.34126C74.1499 6.77863 74.4807 6.26589 74.9026 5.83338C75.3182 5.40411 75.8171 5.06421 76.3687 4.8345C76.9485 4.59743 77.57 4.47928 78.1963 4.48706C78.8471 4.47581 79.4937 4.5939 80.0985 4.8345C80.6496 5.05988 81.1447 5.4032 81.549 5.84033C81.9613 6.29331 82.2775 6.82518 82.4784 7.4038C82.7059 8.06409 82.817 8.75886 82.8068 9.45716V10.027H76.7822C76.8513 10.4397 77.0467 10.8209 77.3416 11.1179C77.6124 11.3736 77.9734 11.5116 78.3457 11.5018C78.6293 11.5059 78.9092 11.4371 79.1586 11.3021C79.408 11.167 79.6186 10.9702 79.7702 10.7305L82.6365 11.3681C82.4166 11.898 82.082 12.3726 81.6567 12.7578C81.211 13.1574 80.6926 13.4676 80.1298 13.6716C79.5266 13.8924 78.8889 14.0036 78.2466 13.9999V13.9999ZM78.1963 6.70372C78.0228 6.69811 77.85 6.72787 77.6885 6.79119C77.5269 6.8545 77.3799 6.95005 77.2564 7.072C76.9853 7.37145 76.8103 7.74549 76.7544 8.14558H79.5704C79.5248 7.74889 79.3615 7.37494 79.1013 7.072C78.9845 6.95112 78.8435 6.85617 78.6876 6.79332C78.5317 6.73047 78.3643 6.70113 78.1963 6.70719V6.70372Z" fill="#158D0C"/>
<path d="M83.8125 13.7476V4.72814H86.7136L86.8144 6.18738C86.9988 5.72343 87.3056 5.31817 87.7021 5.01478C88.0772 4.74402 88.5303 4.60257 88.9928 4.61175C89.2578 4.60652 89.5208 4.65805 89.7641 4.76288L89.4636 7.88982C89.2144 7.80996 88.954 7.77066 88.6923 7.77343C87.5284 7.77343 86.9493 8.38261 86.9551 9.60095V13.7476H83.8125Z" fill="#158D0C"/>
</svg>
