<svg width="116" height="18" viewBox="0 0 116 18" fill="none" xmlns="http://www.w3.org/2000/svg">
<path d="M10.0834 8.68413C9.2748 6.02818 6.01798 5.44294 3.50946 6.29624C2.21158 6.72584 1.03989 7.46936 0.0985078 8.46075C0.0560922 8.50664 0.025961 8.5625 0.0109127 8.62315C-0.00413552 8.6838 -0.00361271 8.74727 0.0124326 8.80766C0.0284779 8.86805 0.0595253 8.92341 0.102691 8.96859C0.145857 9.01378 0.199741 9.04731 0.259339 9.0661C2.75445 9.81218 2.97559 12.9283 6.22348 13.3102C6.85111 13.3851 7.48733 13.2908 8.06625 13.0371C8.64516 12.7833 9.14571 12.3795 9.51605 11.8672C9.75545 11.5443 9.94033 11.1844 10.0633 10.8017C10.2848 10.1143 10.2918 9.37568 10.0834 8.68413Z" fill="#FAF8F6"/>
<path d="M15.2457 0.220286C11.5466 1.06912 9.77745 4.78386 10.9747 7.01316C11.2383 7.49827 11.5996 7.92346 12.0358 8.26183C12.3009 8.47218 12.5922 8.64714 12.9025 8.7823C13.6356 9.10612 14.4515 9.193 15.2364 9.03082C16.0213 8.86864 16.7359 8.46549 17.2807 7.87762C19.1704 5.90968 18.431 3.51285 21.2724 1.39971C21.326 1.36126 21.3681 1.30907 21.3945 1.24864C21.4209 1.18821 21.4305 1.12178 21.4222 1.05636C21.414 0.990944 21.3883 0.928961 21.3477 0.876951C21.3072 0.824941 21.2534 0.784832 21.192 0.760856C19.4519 0.106364 17.2762 -0.262207 15.2457 0.220286Z" fill="#FAF8F6"/>
<path d="M11.7899 17.6704C11.584 17.6716 11.3837 17.6032 11.2215 17.4763C11.0593 17.3494 10.9447 17.1714 10.8964 16.9712C10.2754 14.3577 8.85475 11.5119 7.84956 11.5767C7.72752 11.5907 7.6039 11.58 7.4861 11.5451C7.3683 11.5103 7.25874 11.452 7.16397 11.3739C7.06919 11.2957 6.99116 11.1993 6.93452 11.0903C6.87788 10.9812 6.84381 10.8619 6.83434 10.7395C6.82488 10.617 6.84021 10.4938 6.87942 10.3774C6.91863 10.261 6.98091 10.1537 7.06255 10.0619C7.14419 9.9701 7.2435 9.89572 7.35454 9.84318C7.46559 9.79065 7.58608 9.76105 7.70883 9.75616C9.13397 9.63777 10.2397 10.8194 11.0438 12.2356C11.294 10.0912 11.8391 7.59164 13.0297 5.65497C13.1561 5.44762 13.3598 5.299 13.5959 5.24182C13.8319 5.18464 14.081 5.22358 14.2884 5.35006C14.4957 5.47654 14.6443 5.68022 14.7015 5.91627C14.7587 6.15233 14.7198 6.40143 14.5933 6.60878C12.3528 10.2722 12.6968 16.6384 12.7013 16.7032C12.7073 16.8271 12.6883 16.9509 12.6453 17.0673C12.6023 17.1837 12.5363 17.2903 12.4513 17.3806C12.3662 17.4709 12.2638 17.5431 12.1501 17.5929C12.0365 17.6427 11.914 17.669 11.7899 17.6704Z" fill="#FAF8F6"/>
<path d="M25.0429 17.6741V2.37064H30.538C31.7106 2.34247 32.8769 2.55141 33.9668 2.98492C34.8616 3.33671 35.6336 3.94327 36.1872 4.72949C36.7104 5.53279 36.9768 6.47625 36.9511 7.43457C36.9468 7.99231 36.8393 8.54442 36.6339 9.06299C36.4326 9.58907 36.1491 10.0799 35.794 10.5172C35.4367 10.9596 35.006 11.3374 34.5208 11.634L37.8714 17.6652H33.3413L30.9691 12.7733C30.7681 12.7867 30.567 12.7934 30.366 12.7934C29.9543 12.7901 29.5435 12.7543 29.1374 12.6861V17.6741H25.0429ZM29.1374 5.80393V9.2886C29.3824 9.34481 29.6309 9.38436 29.8812 9.40698C30.118 9.42932 30.3883 9.44049 30.6899 9.44049C31.2368 9.46942 31.7747 9.29251 32.1977 8.9446C32.387 8.76997 32.5354 8.55569 32.6323 8.31705C32.7293 8.07842 32.7723 7.82132 32.7583 7.56413C32.7704 7.31562 32.723 7.06783 32.62 6.84133C32.5171 6.61483 32.3615 6.41617 32.1664 6.26185C31.7703 5.95657 31.2208 5.80393 30.5179 5.80393H29.1374Z" fill="#FAF8F6"/>
<path d="M44.0745 17.9994C43.2488 18.0106 42.429 17.8588 41.6621 17.5527C40.9485 17.264 40.3022 16.8314 39.7634 16.2817C39.223 15.7218 38.8013 15.0585 38.5237 14.3316C38.2211 13.5364 38.0696 12.6917 38.0769 11.8409C38.0719 11.0187 38.2235 10.203 38.5237 9.43742C38.8078 8.71448 39.233 8.05537 39.7746 7.49852C40.3102 6.94695 40.9524 6.50998 41.6621 6.2141C42.4068 5.90927 43.2052 5.75734 44.0098 5.76735C44.8504 5.75151 45.6857 5.90339 46.4669 6.2141C47.1749 6.50394 47.8108 6.94541 48.3299 7.50745C48.8612 8.08941 49.2686 8.77342 49.5272 9.51784C49.8177 10.3673 49.9597 11.2605 49.9471 12.1581V12.8908H42.2004C42.2876 13.4202 42.5356 13.91 42.9108 14.2936C43.2615 14.6188 43.7261 14.7929 44.2041 14.7783C44.5691 14.7837 44.9294 14.6954 45.2505 14.5218C45.5716 14.3481 45.8427 14.095 46.038 13.7866L49.7237 14.6063C49.4409 15.2883 49.0098 15.8988 48.4617 16.3934C47.8893 16.9071 47.2234 17.306 46.5004 17.5683C45.724 17.8556 44.9024 18.0016 44.0745 17.9994ZM44.0098 8.61763C43.7871 8.61034 43.5652 8.64857 43.3578 8.73C43.1504 8.81143 42.9618 8.93433 42.8035 9.09119C42.454 9.47569 42.229 9.95691 42.158 10.4717H45.7789C45.7193 9.96185 45.5093 9.48131 45.1758 9.09119C45.0246 8.93513 44.8422 8.81269 44.6406 8.73186C44.4389 8.65103 44.2224 8.61363 44.0053 8.6221L44.0098 8.61763Z" fill="#FAF8F6"/>
<path d="M53.8607 17.6742L50.0365 6.07646H54.198L55.7616 13.1039L57.6581 6.07646H61.0869L63.0235 13.1754L64.6609 6.08316H68.6705L64.8552 17.6742H61.1896L59.3378 10.7339L57.4615 17.6742H53.8607Z" fill="#FAF8F6"/>
<path d="M73.692 3.08213C73.6965 3.45312 73.6 3.81834 73.4128 4.1387C73.2268 4.45324 72.9579 4.71057 72.6355 4.88254C72.2977 5.06373 71.9197 5.1567 71.5365 5.15283C71.1567 5.15755 70.782 5.06447 70.4486 4.88254C70.1349 4.70659 69.8742 4.44972 69.6936 4.1387C69.5065 3.81834 69.4099 3.45312 69.4144 3.08213C69.4103 2.71118 69.5068 2.34605 69.6936 2.02556C69.8779 1.71356 70.1425 1.45669 70.4598 1.28172C70.7934 1.10047 71.168 1.00816 71.5476 1.01367C71.9307 1.00902 72.3087 1.10122 72.6466 1.28172C72.9685 1.45444 73.2373 1.71159 73.424 2.02556C73.6069 2.34716 73.6995 2.71222 73.692 3.08213ZM69.5328 17.6753V6.0776H73.5536V17.6753H69.5328Z" fill="#FAF8F6"/>
<path d="M75.2779 17.6755C69.1515 16.1518 75.2779 1.50981 75.2779 1.50981H79.2987V17.6755C79.2987 17.6755 76.8017 18.0545 75.2779 17.6755Z" fill="#FAF8F6"/>
<path d="M85.8279 17.9994C85.1305 18.0058 84.4415 17.8466 83.8175 17.5348C83.1983 17.2207 82.6489 16.7845 82.2025 16.2526C81.7229 15.6868 81.3539 15.0359 81.1147 14.3338C80.8506 13.5719 80.7191 12.7702 80.726 11.9638C80.7174 11.1272 80.8558 10.2955 81.1348 9.50668C81.3894 8.78349 81.7773 8.11445 82.2785 7.53426C82.7541 6.98753 83.3364 6.54363 83.9895 6.22975C84.6517 5.9125 85.3774 5.75053 86.1116 5.75619C86.7175 5.74664 87.3179 5.87177 87.8696 6.12253C88.3894 6.36345 88.8437 6.72582 89.1942 7.1791V1.50981H93.2261V17.6755H89.4958L89.3885 16.0382C89.0141 16.643 88.4902 17.1411 87.8674 17.4846C87.2445 17.8281 86.5437 18.0054 85.8324 17.9994H85.8279ZM87.0342 14.3338C87.43 14.3389 87.8185 14.227 88.151 14.0122C88.4857 13.7902 88.7537 13.4814 88.9261 13.1187C89.1115 12.7202 89.2076 12.286 89.2076 11.8465C89.2076 11.4071 89.1115 10.9729 88.9261 10.5744C88.7546 10.2112 88.4864 9.90206 88.151 9.68091C87.8191 9.46454 87.4303 9.35179 87.0342 9.35701C86.6338 9.3522 86.2409 9.46481 85.9039 9.68091C85.5617 9.90061 85.286 10.2095 85.1064 10.5744C84.9133 10.9707 84.813 11.4057 84.813 11.8465C84.813 12.2874 84.9133 12.7224 85.1064 13.1187C85.2873 13.4827 85.5627 13.7913 85.9039 14.0122C86.2415 14.2267 86.6342 14.3384 87.0342 14.3338Z" fill="#FAF8F6"/>
<path d="M100.615 17.9993C99.789 18.0107 98.9684 17.8588 98.2007 17.5525C97.4878 17.2639 96.8422 16.8312 96.3043 16.2815C95.7638 15.7216 95.3422 15.0583 95.0645 14.3314C94.7609 13.5365 94.6094 12.6916 94.6178 11.8408C94.6117 11.0184 94.7634 10.2025 95.0645 9.43725C95.3476 8.71378 95.773 8.05447 96.3154 7.49834C96.8499 6.94636 97.4914 6.50929 98.2007 6.21393C98.9462 5.90909 99.7453 5.75716 100.551 5.76717C101.388 5.7527 102.219 5.90455 102.997 6.21393C103.705 6.50374 104.342 6.94519 104.862 7.50727C105.392 8.08973 105.799 8.77364 106.057 9.51766C106.349 10.3667 106.492 11.2601 106.479 12.158V12.8906H98.7324C98.8212 13.4214 99.0725 13.9115 99.4516 14.2934C99.7998 14.6222 100.264 14.7997 100.743 14.7871C101.107 14.7923 101.467 14.7039 101.788 14.5303C102.109 14.3566 102.38 14.1036 102.574 13.7953L106.26 14.6151C105.977 15.2965 105.547 15.9068 105 16.4021C104.427 16.9159 103.761 17.3148 103.037 17.5771C102.261 17.8611 101.441 18.004 100.615 17.9993ZM100.551 8.61745C100.328 8.61025 100.105 8.64851 99.8977 8.72993C99.69 8.81134 99.5009 8.9342 99.3422 9.09101C98.9935 9.47605 98.7686 9.95701 98.6966 10.4715H102.318C102.259 9.96139 102.049 9.48055 101.714 9.09101C101.564 8.93558 101.383 8.81349 101.182 8.73268C100.982 8.65186 100.767 8.61413 100.551 8.62192V8.61745Z" fill="#FAF8F6"/>
<path d="M107.77 17.6754V6.07775H111.501L111.63 7.95411C111.867 7.35754 112.262 6.83645 112.772 6.44632C113.254 6.09818 113.837 5.91629 114.431 5.92809C114.772 5.92137 115.11 5.98763 115.423 6.12243L115.037 10.1432C114.716 10.0405 114.381 9.98997 114.045 9.99354C112.548 9.99354 111.804 10.7768 111.811 12.3435V17.6754H107.77Z" fill="#FAF8F6"/>
</svg>
