<svg width="25" height="20" viewBox="0 0 25 20" fill="none" xmlns="http://www.w3.org/2000/svg">
<path fill-rule="evenodd" clip-rule="evenodd" d="M17.4807 0.251759C13.5118 1.20493 11.6136 5.37632 12.8983 7.87965C13.1148 8.29692 13.3929 8.67469 13.7216 8.99942C13.2398 10.4168 12.9578 11.908 12.7926 13.2646C12.6087 12.9545 12.4105 12.6551 12.1979 12.3763C12.2375 12.2915 12.2736 12.2054 12.3058 12.1181C12.5571 11.4395 12.565 10.7105 12.3286 10.028C11.4113 7.4065 7.71643 6.82885 4.87056 7.67107C3.39813 8.09509 2.06887 8.82896 1.00089 9.80749C0.952765 9.85278 0.918582 9.90792 0.90151 9.96778C0.884438 10.0276 0.885031 10.0903 0.903234 10.1499C0.921437 10.2095 0.95666 10.2641 1.00563 10.3087C1.0546 10.3533 1.11573 10.3864 1.18335 10.405C2.44195 10.7324 3.19054 11.5223 3.95773 12.3318C4.91597 13.3429 5.90323 14.3847 7.94958 14.594C8.66161 14.6679 9.3834 14.5748 10.0402 14.3244C10.3265 14.2152 10.5959 14.0779 10.8436 13.9158C11.5603 15.0339 12.2389 16.6899 12.63 18.2659C12.6833 18.4774 12.8096 18.6653 12.9885 18.7994C13.1674 18.9334 13.3883 19.0056 13.6154 19.0043C13.7523 19.0029 13.8874 18.9751 14.0127 18.9225C14.138 18.8699 14.251 18.7936 14.3449 18.6983C14.4387 18.6029 14.5115 18.4904 14.5589 18.3675C14.6062 18.2445 14.6273 18.1137 14.6206 17.9828C14.6167 17.9289 14.3799 13.7343 15.4926 10.0661C16.1334 10.2592 16.8123 10.2877 17.4707 10.1453C18.3129 9.96323 19.0797 9.51052 19.6641 8.85039C20.5366 7.89945 20.8868 6.85933 21.2455 5.79378C21.7204 4.38315 22.2103 2.92797 23.947 1.57617C24.0045 1.53299 24.0497 1.47438 24.078 1.40652C24.1063 1.33867 24.1166 1.26407 24.1078 1.19061C24.0989 1.11715 24.0713 1.04755 24.0278 0.989146C23.9844 0.930743 23.9266 0.885704 23.8607 0.85878C21.9937 0.123833 19.6593 -0.290045 17.4807 0.251759Z" fill="white"/>
</svg>
