<svg width="80" height="80" viewBox="0 0 80 80" fill="none" xmlns="http://www.w3.org/2000/svg">
<path d="M38.3111 39.9683C36.4417 33.5553 28.9125 32.1422 23.1133 34.2026C20.1128 35.2399 17.4041 37.0352 15.2277 39.4289C15.1297 39.5397 15.06 39.6746 15.0252 39.8211C14.9904 39.9675 14.9916 40.1208 15.0287 40.2666C15.0658 40.4124 15.1376 40.5461 15.2374 40.6552C15.3372 40.7643 15.4618 40.8452 15.5995 40.8906C21.3678 42.6921 21.879 50.2161 29.3876 51.1384C30.8386 51.3191 32.3094 51.0914 33.6477 50.4788C34.9861 49.8661 36.1433 48.8909 36.9994 47.6541C37.5529 46.8745 37.9803 46.0054 38.2646 45.0814C38.7766 43.4215 38.7928 41.6381 38.3111 39.9683Z" fill="url(#paint0_linear)"/>
<path d="M50.2451 19.5319C41.6934 21.5815 37.6035 30.551 40.3714 35.9338C40.9807 37.1051 41.8159 38.1318 42.8244 38.9488C43.4372 39.4567 44.1108 39.8792 44.828 40.2055C46.5229 40.9874 48.4091 41.1972 50.2236 40.8056C52.0381 40.414 53.6903 39.4405 54.9496 38.0211C59.3184 33.2693 57.6091 27.482 64.1778 22.3797C64.3016 22.2869 64.3991 22.1608 64.4601 22.0149C64.5211 21.869 64.5432 21.7086 64.5242 21.5507C64.5051 21.3927 64.4456 21.243 64.352 21.1175C64.2583 20.9919 64.1339 20.895 63.9919 20.8371C59.9691 19.2568 54.9393 18.3669 50.2451 19.5319Z" fill="url(#paint1_linear)"/>
<path d="M42.2564 61.6666C41.7804 61.6696 41.3173 61.5044 40.9423 61.198C40.5674 60.8916 40.3026 60.4618 40.1908 59.9784C38.7552 53.6679 35.4709 46.7965 33.147 46.9529C32.8649 46.9868 32.5791 46.9609 32.3068 46.8768C32.0345 46.7926 31.7812 46.652 31.5621 46.4633C31.343 46.2746 31.1626 46.0416 31.0316 45.7784C30.9007 45.5152 30.8219 45.2271 30.8 44.9314C30.7781 44.6357 30.8136 44.3384 30.9042 44.0573C30.9949 43.7762 31.1389 43.517 31.3276 43.2954C31.5163 43.0738 31.7459 42.8941 32.0026 42.7673C32.2594 42.6405 32.5379 42.569 32.8217 42.5572C36.1164 42.2713 38.6726 45.1245 40.5316 48.544C41.11 43.3662 42.3701 37.3308 45.1225 32.6545C45.4149 32.1539 45.8858 31.795 46.4315 31.657C46.9772 31.5189 47.5531 31.6129 48.0325 31.9183C48.5118 32.2237 48.8554 32.7155 48.9876 33.2855C49.1198 33.8555 49.0298 34.4569 48.7374 34.9576C43.5578 43.8031 44.3531 59.1748 44.3634 59.3312C44.3773 59.6304 44.3333 59.9295 44.234 60.2105C44.1346 60.4916 43.9821 60.7488 43.7854 60.9668C43.5887 61.1849 43.3519 61.3592 43.0892 61.4794C42.8265 61.5997 42.5433 61.6633 42.2564 61.6666Z" fill="url(#paint2_linear)"/>
<defs>
<linearGradient id="paint0_linear" x1="15" y1="19" x2="15.9961" y2="62.8296" gradientUnits="userSpaceOnUse">
<stop stop-color="#339645"/>
<stop offset="1" stop-color="#3F6947"/>
</linearGradient>
<linearGradient id="paint1_linear" x1="15" y1="19" x2="15.9961" y2="62.8296" gradientUnits="userSpaceOnUse">
<stop stop-color="#339645"/>
<stop offset="1" stop-color="#3F6947"/>
</linearGradient>
<linearGradient id="paint2_linear" x1="15" y1="19" x2="15.9961" y2="62.8296" gradientUnits="userSpaceOnUse">
<stop stop-color="#339645"/>
<stop offset="1" stop-color="#3F6947"/>
</linearGradient>
</defs>
</svg>
