<svg width="80" height="81" viewBox="0 0 80 81" fill="none" xmlns="http://www.w3.org/2000/svg">
<path d="M37.9389 68.3674V71.3932C37.9389 71.7052 37.8149 72.0045 37.594 72.2252C37.3732 72.4459 37.0736 72.5698 36.7613 72.5698C36.449 72.5698 36.1495 72.4459 35.9286 72.2252C35.7078 72.0045 35.5837 71.7052 35.5837 71.3932V68.3674C35.5837 68.0553 35.7078 67.756 35.9286 67.5353C36.1495 67.3147 36.449 67.1907 36.7613 67.1907C37.0736 67.1907 37.3732 67.3147 37.594 67.5353C37.8149 67.756 37.9389 68.0553 37.9389 68.3674ZM65.8103 60.0237V78.146H68.7711C69.0834 78.146 69.383 78.2699 69.6038 78.4906C69.8246 78.7113 69.9487 79.0106 69.9487 79.3226C69.9487 79.6347 69.8246 79.934 69.6038 80.1547C69.383 80.3754 69.0834 80.4993 68.7711 80.4993H1.17771C0.865393 80.4993 0.565866 80.3754 0.345024 80.1547C0.124182 79.934 0.000114169 79.6347 0.000114169 79.3226C0.000114169 79.0106 0.124182 78.7113 0.345024 78.4906C0.565866 78.2699 0.865393 78.146 1.17771 78.146H14.1898V60.0237C13.9397 60.0542 13.6881 60.0701 13.4362 60.0714C11.691 60.0684 10.0182 59.3743 8.78431 58.1412C7.55037 56.9081 6.8559 55.2365 6.85306 53.4928V53.4296C5.7507 53.2801 4.70419 52.8541 3.81113 52.1913C2.91807 51.5285 2.20758 50.6505 1.74592 49.6391C1.28427 48.6278 1.08649 47.5161 1.17105 46.4077C1.2556 45.2993 1.61973 44.2304 2.22947 43.3007C1.47415 42.6357 0.881641 41.8063 0.497574 40.8765C0.113507 39.9467 -0.0518715 38.9412 0.0141734 37.9375C0.0802183 36.9337 0.375925 35.9585 0.878521 35.0869C1.38112 34.2154 2.0772 33.4707 2.91315 32.9102C2.3825 31.4076 2.41636 29.7636 3.00845 28.2841C3.60054 26.8046 4.71049 25.5904 6.13169 24.8678C6.06641 24.4986 6.03354 24.1245 6.03345 23.7496C6.03537 22.2133 6.57441 20.7261 7.55738 19.5448C8.54036 18.3636 9.90547 17.5627 11.4167 17.2805C11.4789 15.5786 12.1992 13.967 13.4261 12.7849C14.6531 11.6028 16.2911 10.9423 17.9955 10.9423C19.6999 10.9423 21.3379 11.6028 22.5648 12.7849C23.7918 13.967 24.5121 15.5786 24.5742 17.2805C24.9532 17.3533 25.3248 17.4602 25.6845 17.5999C25.5823 17.0957 25.5307 16.5826 25.5304 16.0682C25.5328 14.201 26.2016 12.3958 27.4167 10.9772C28.6318 9.55863 30.3134 8.61961 32.1593 8.32898C32.1604 6.25145 32.9875 4.25946 34.4585 2.79125C35.9295 1.32303 37.9239 0.498842 40.0031 0.500001C42.0822 0.50116 44.0758 1.32757 45.5451 2.79743C47.0145 4.26728 47.8393 6.26019 47.8381 8.33772C49.6834 8.62714 51.3647 9.56488 52.5798 10.9823C53.795 12.3997 54.4641 14.2038 54.467 16.0702C54.4667 16.5846 54.4151 17.0977 54.3129 17.6019C54.6727 17.4618 55.0443 17.354 55.4232 17.2798C55.4841 15.5762 56.2045 13.9627 57.4325 12.7794C58.6606 11.5961 60.3005 10.9354 62.0065 10.9365C63.7125 10.9377 65.3515 11.6005 66.578 12.7855C67.8045 13.9704 68.5227 15.5849 68.5813 17.2886C70.0918 17.5695 71.4566 18.3691 72.4396 19.549C73.4226 20.7289 73.962 22.215 73.9646 23.7502C73.9646 24.1251 73.9317 24.4993 73.8664 24.8684C75.2876 25.5911 76.3976 26.8052 76.9896 28.2847C77.5817 29.7642 77.6156 31.4083 77.0849 32.9109C77.9209 33.4712 78.617 34.2157 79.1198 35.0872C79.6225 35.9586 79.9183 36.9337 79.9846 37.9373C80.0508 38.941 79.8856 39.9464 79.5018 40.8763C79.118 41.8061 78.5257 42.6355 77.7706 43.3007C78.3804 44.2304 78.7445 45.2993 78.8291 46.4077C78.9136 47.5161 78.7159 48.6278 78.2542 49.6391C77.7925 50.6505 77.082 51.5285 76.189 52.1913C75.2959 52.8541 74.2494 53.2801 73.1471 53.4296V53.4928C73.1442 55.2365 72.4497 56.9081 71.2158 58.1412C69.9819 59.3743 68.3091 60.0684 66.5639 60.0714C66.312 60.0701 66.0604 60.0542 65.8103 60.0237ZM56.839 19.5081C57.776 20.5812 58.4026 21.8891 58.6516 23.2913C58.9006 24.6934 58.7625 26.1369 58.2521 27.4666C59.2979 28.1271 60.1721 29.0257 60.8033 30.0889C61.4344 31.1521 61.8046 32.3496 61.8833 33.5833C61.9621 34.8169 61.7473 36.0517 61.2565 37.1864C60.7657 38.3211 60.0128 39.3235 59.0596 40.1115C59.843 41.229 60.3208 42.5316 60.4456 43.8903C60.5703 45.249 60.3378 46.6166 59.771 47.8579C59.2043 49.0992 58.3229 50.1711 57.2141 50.9674C56.1054 51.7638 54.8077 52.2569 53.4496 52.3981C53.4543 52.5057 53.457 52.6119 53.457 52.7182C53.4568 53.24 53.4045 53.7606 53.3008 54.2721C53.4557 55.1048 53.8582 55.8715 54.4558 56.4722C55.0533 57.0729 55.8183 57.4796 56.6507 57.6393C57.4831 57.799 58.3444 57.7043 59.1221 57.3675C59.8998 57.0307 60.5579 56.4675 61.0104 55.7513C61.1169 55.5844 61.2637 55.4471 61.4374 55.3519C61.611 55.2567 61.8059 55.2069 62.004 55.2069C62.202 55.2069 62.3969 55.2567 62.5705 55.3519C62.7442 55.4471 62.8911 55.5844 62.9975 55.7513C63.4872 56.5245 64.215 57.1178 65.0713 57.4418C65.9277 57.7658 66.8662 57.803 67.7456 57.5478C68.6249 57.2926 69.3975 56.7588 69.9469 56.0269C70.4963 55.2949 70.7929 54.4044 70.7919 53.4894C70.7902 53.1725 70.7534 52.8568 70.6822 52.5481C70.6411 52.3681 70.6431 52.181 70.6878 52.0019C70.7326 51.8228 70.8189 51.6568 70.9397 51.5172C71.0606 51.3777 71.2127 51.2685 71.3836 51.1985C71.5546 51.1286 71.7396 51.0998 71.9237 51.1145C72.0361 51.1239 72.1491 51.1327 72.2642 51.1327C73.1021 51.1331 73.9212 50.8847 74.6175 50.419C75.3138 49.9533 75.8559 49.2913 76.1748 48.5171C76.4938 47.7429 76.5753 46.8914 76.4089 46.0709C76.2426 45.2503 75.8359 44.4976 75.2405 43.9085C75.1112 43.7805 75.0133 43.6243 74.9546 43.4521C74.8959 43.2799 74.8779 43.0965 74.9021 42.9162C74.9263 42.7359 74.992 42.5637 75.094 42.4131C75.196 42.2624 75.3316 42.1375 75.4901 42.048C76.1764 41.6626 76.7412 41.0932 77.121 40.4041C77.5007 39.7151 77.6802 38.9337 77.6393 38.1481C77.5984 37.3626 77.3386 36.6041 76.8893 35.9581C76.44 35.3122 75.8191 34.8045 75.0965 34.4924C74.9444 34.4265 74.8079 34.3293 74.696 34.2071C74.584 34.0849 74.4992 33.9404 74.4471 33.7832C74.3949 33.626 74.3766 33.4595 74.3933 33.2947C74.41 33.1299 74.4614 32.9704 74.544 32.8269C74.8605 32.2775 75.0489 31.664 75.0953 31.0318C75.1418 30.3997 75.045 29.7652 74.8122 29.1756C74.5794 28.586 74.2166 28.0564 73.7508 27.6261C73.285 27.1959 72.7281 26.8761 72.1215 26.6906C71.9694 26.6437 71.8284 26.5665 71.707 26.4636C71.5856 26.3608 71.4863 26.2344 71.4151 26.0921C71.3439 25.9499 71.3023 25.7947 71.2928 25.6359C71.2833 25.4771 71.3061 25.3181 71.3598 25.1683C71.5912 24.531 71.6651 23.8473 71.5755 23.1754C71.4858 22.5034 71.2351 21.8629 70.8447 21.3085C70.4543 20.754 69.9357 20.3019 69.333 19.9906C68.7303 19.6793 68.0613 19.5179 67.3829 19.5202C67.2099 19.5205 67.0388 19.4841 66.8809 19.4134C66.723 19.3427 66.582 19.2393 66.4671 19.1101C66.3538 18.9832 66.2691 18.8335 66.2187 18.6711C66.1684 18.5087 66.1534 18.3374 66.175 18.1687C66.211 17.9541 66.2299 17.7369 66.2315 17.5192C66.2315 16.3988 65.7861 15.3242 64.9932 14.5319C64.2003 13.7397 63.1249 13.2946 62.0036 13.2946C60.8823 13.2946 59.8069 13.7397 59.014 14.5319C58.2212 15.3242 57.7757 16.3988 57.7757 17.5192C57.7774 17.7369 57.7963 17.9541 57.8322 18.1687C57.8582 18.3364 57.8476 18.5077 57.8011 18.6708C57.7547 18.834 57.6735 18.9852 57.5631 19.1141C57.3746 19.3252 57.1187 19.4644 56.839 19.5081ZM44.4164 60.4486V78.146H58.1976V60.0237C57.9478 60.0542 57.6964 60.0701 57.4446 60.0714C56.3778 60.0674 55.3278 59.8055 54.3842 59.3081C53.4406 58.8108 52.6314 58.0927 52.0257 57.2151C51.1941 58.419 50.0374 59.362 48.6903 59.9345C47.3432 60.507 45.861 60.6853 44.4164 60.4486ZM27.4523 19.4328C26.6656 19.6736 25.9434 20.0884 25.3392 20.6465C24.7351 21.2045 24.2647 21.8915 23.9628 22.6563C23.661 23.421 23.5356 24.2439 23.5959 25.0638C23.6562 25.8837 23.9006 26.6795 24.3111 27.3919C24.3936 27.5356 24.4449 27.6951 24.4615 27.86C24.4781 28.0249 24.4597 28.1914 24.4075 28.3486C24.3553 28.5059 24.2705 28.6504 24.1585 28.7726C24.0466 28.8949 23.9101 28.9922 23.758 29.0581C22.8208 29.4627 22.0155 30.1208 21.4326 30.9583C20.8498 31.7958 20.5127 32.7793 20.4593 33.798C20.4059 34.8167 20.6384 35.83 21.1305 36.7237C21.6226 37.6174 22.3548 38.356 23.2445 38.8562C23.403 38.9457 23.5385 39.0706 23.6405 39.2212C23.7425 39.3718 23.8083 39.544 23.8325 39.7243C23.8568 39.9045 23.8389 40.0879 23.7803 40.2601C23.7217 40.4323 23.624 40.5886 23.4949 40.7167C22.7225 41.4805 22.1948 42.4565 21.9789 43.5207C21.7629 44.5848 21.8684 45.6891 22.2819 46.6933C22.6954 47.6974 23.3983 48.556 24.3013 49.1601C25.2043 49.7641 26.2667 50.0864 27.3533 50.0858C27.5034 50.0858 27.6494 50.0743 27.7961 50.0629C27.9803 50.0483 28.1655 50.0771 28.3364 50.1472C28.5074 50.2173 28.6595 50.3266 28.7804 50.4663C28.9013 50.606 28.9875 50.7722 29.0322 50.9514C29.0769 51.1306 29.0788 51.3177 29.0376 51.4978C28.7477 52.7567 28.9128 54.0775 29.5037 55.2264C30.0946 56.3754 31.0731 57.2785 32.2663 57.7758C33.4594 58.2732 34.7902 58.3328 36.023 57.944C37.2559 57.5553 38.3114 56.7434 39.0028 55.6518C39.1091 55.4846 39.256 55.347 39.4297 55.2516C39.6034 55.1562 39.7985 55.1062 39.9967 55.1062C40.1949 55.1062 40.3899 55.1562 40.5637 55.2516C40.7374 55.347 40.8843 55.4846 40.9906 55.6518C41.6799 56.7471 42.7355 57.5628 43.9698 57.954C45.2041 58.3451 46.5372 58.2864 47.7323 57.7882C48.9273 57.29 49.907 56.3847 50.4972 55.233C51.0873 54.0813 51.2498 52.7579 50.9557 51.4978C50.9146 51.3177 50.9165 51.1306 50.9611 50.9514C51.0058 50.7722 51.0921 50.606 51.213 50.4663C51.3339 50.3266 51.4859 50.2173 51.6569 50.1472C51.8279 50.0771 52.013 50.0483 52.1973 50.0629C52.344 50.0743 52.49 50.0858 52.64 50.0858C53.7266 50.086 54.7887 49.7636 55.6915 49.1595C56.5942 48.5554 57.297 47.6969 57.7105 46.6929C58.124 45.6889 58.2295 44.5847 58.0137 43.5207C57.7979 42.4566 57.2705 41.4806 56.4985 40.7167C56.3696 40.5881 56.2724 40.4314 56.2143 40.2589C56.1562 40.0864 56.139 39.9028 56.1639 39.7225C56.1888 39.5423 56.2552 39.3702 56.3578 39.2199C56.4605 39.0696 56.5967 38.9451 56.7556 38.8562C57.6454 38.3563 58.3778 37.618 58.8702 36.7244C59.3626 35.8309 59.5954 34.8177 59.5424 33.799C59.4893 32.7804 59.1526 31.7968 58.5701 30.9591C57.9876 30.1214 57.1825 29.463 56.2455 29.0581C56.0934 28.9922 55.9569 28.8949 55.845 28.7726C55.733 28.6504 55.6482 28.5059 55.596 28.3486C55.5438 28.1914 55.5254 28.0249 55.542 27.86C55.5586 27.6951 55.6098 27.5356 55.6924 27.3919C56.1026 26.6795 56.3468 25.8839 56.407 25.0641C56.4672 24.2444 56.3417 23.4217 56.0399 22.6571C55.7381 21.8925 55.2677 21.2057 54.6637 20.6477C54.0597 20.0898 53.3377 19.675 52.5512 19.4342C52.3993 19.3872 52.2584 19.31 52.1371 19.2071C52.0157 19.1043 51.9165 18.978 51.8454 18.8358C51.7742 18.6937 51.7325 18.5386 51.7229 18.3799C51.7133 18.2212 51.736 18.0623 51.7895 17.9126C52.0884 17.0862 52.1835 16.2 52.0668 15.329C51.95 14.4581 51.6248 13.6282 51.1187 12.9096C50.6126 12.1909 49.9406 11.6049 49.1596 11.201C48.3786 10.7971 47.5117 10.5874 46.6323 10.5896C46.4584 10.5899 46.2864 10.5536 46.1275 10.4829C45.9686 10.4122 45.8265 10.3088 45.7104 10.1794C45.596 10.0524 45.5104 9.9023 45.4592 9.7393C45.408 9.5763 45.3924 9.40421 45.4136 9.23469C45.4598 8.95663 45.4841 8.67538 45.4863 8.39353C45.4863 6.94015 44.9085 5.54629 43.88 4.5186C42.8515 3.4909 41.4566 2.91355 40.0021 2.91355C38.5476 2.91355 37.1526 3.4909 36.1241 4.5186C35.0956 5.54629 34.5178 6.94015 34.5178 8.39353C34.52 8.67538 34.5443 8.95663 34.5905 9.23469C34.6165 9.40245 34.6059 9.57383 34.5594 9.73711C34.5129 9.90039 34.4317 10.0517 34.3213 10.1807C34.1951 10.3208 34.0386 10.4302 33.8637 10.5007C33.6888 10.5712 33.5001 10.6009 33.312 10.5875C32.4374 10.595 31.5774 10.8118 30.8039 11.2198C30.0305 11.6278 29.3662 12.2151 28.8668 12.9325C28.3674 13.65 28.0473 14.4766 27.9335 15.343C27.8197 16.2095 27.9154 17.0907 28.2126 17.9126C28.2662 18.0623 28.2888 18.2212 28.2792 18.3799C28.2696 18.5386 28.228 18.6937 28.1568 18.8358C28.0856 18.978 27.9864 19.1043 27.8651 19.2071C27.7438 19.31 27.6029 19.3872 27.4509 19.4342L27.4523 19.4328ZM13.4362 57.7181C14.1483 57.7189 14.849 57.5392 15.4727 57.1958C16.0964 56.8525 16.6228 56.3566 17.0026 55.7547C17.1091 55.5878 17.2559 55.4504 17.4296 55.3553C17.6032 55.2601 17.7981 55.2102 17.9962 55.2102C18.1942 55.2102 18.3891 55.2601 18.5627 55.3553C18.7364 55.4504 18.8832 55.5878 18.9897 55.7547C19.4422 56.4709 20.1003 57.0341 20.878 57.3709C21.6558 57.7077 22.517 57.8024 23.3494 57.6427C24.1819 57.483 24.9468 57.0762 25.5443 56.4755C26.1419 55.8749 26.5444 55.1081 26.6993 54.2754C26.5949 53.7629 26.5422 53.2412 26.5418 52.7182C26.5418 52.6119 26.5418 52.5057 26.5492 52.3981C25.1907 52.2576 23.8925 51.765 22.7832 50.9689C21.6739 50.1728 20.7919 49.101 20.2247 47.8595C19.6575 46.6181 19.4248 45.2501 19.5495 43.8911C19.6742 42.5321 20.1521 41.2292 20.9358 40.1115C19.9826 39.3235 19.2297 38.3211 18.7389 37.1864C18.2481 36.0517 18.0333 34.8169 18.1121 33.5833C18.1908 32.3496 18.561 31.1521 19.1921 30.0889C19.8233 29.0257 20.6976 28.1271 21.7433 27.4666C21.2327 26.1356 21.0952 24.6906 21.3455 23.2873C21.5958 21.884 22.2245 20.5755 23.1638 19.5028C22.8906 19.4585 22.6411 19.3215 22.4572 19.1148C22.344 18.9879 22.2593 18.8382 22.2089 18.6758C22.1585 18.5134 22.1436 18.3421 22.1652 18.1734C22.2011 17.9588 22.22 17.7416 22.2217 17.5239C22.2217 16.4035 21.7763 15.3289 20.9834 14.5367C20.1905 13.7444 19.1151 13.2993 17.9938 13.2993C16.8725 13.2993 15.7971 13.7444 15.0042 14.5367C14.2113 15.3289 13.7659 16.4035 13.7659 17.5239C13.7676 17.7416 13.7865 17.9588 13.8224 18.1734C13.8484 18.3411 13.8377 18.5124 13.7913 18.6755C13.7448 18.8387 13.6636 18.9899 13.5532 19.1188C13.4288 19.2575 13.2746 19.3662 13.1021 19.4367C12.9296 19.5073 12.7434 19.5379 12.5573 19.5263C11.8839 19.5337 11.2221 19.7021 10.6272 20.0174C10.0323 20.3328 9.52164 20.7859 9.13793 21.3389C8.75422 21.8919 8.50863 22.5287 8.42171 23.196C8.33478 23.8633 8.40905 24.5417 8.63829 25.1744C8.69201 25.3241 8.7148 25.4832 8.7053 25.6419C8.6958 25.8007 8.6542 25.9559 8.58301 26.0982C8.51182 26.2405 8.41252 26.3668 8.2911 26.4697C8.16968 26.5726 8.02866 26.6498 7.87656 26.6967C7.27001 26.8822 6.71312 27.202 6.24728 27.6322C5.78145 28.0624 5.41866 28.592 5.18589 29.1816C4.95312 29.7713 4.85635 30.4057 4.90278 31.0379C4.94921 31.67 5.13764 32.2836 5.45407 32.8329C5.53673 32.9765 5.5881 33.1359 5.60481 33.3007C5.62152 33.4655 5.60319 33.632 5.55103 33.7893C5.49888 33.9465 5.41406 34.091 5.30215 34.2132C5.19023 34.3354 5.05374 34.4326 4.90161 34.4984C4.17901 34.8106 3.55806 35.3182 3.10877 35.9642C2.65948 36.6101 2.39973 37.3686 2.3588 38.1542C2.31787 38.9398 2.49739 39.7211 2.87713 40.4102C3.25686 41.0993 3.8217 41.6686 4.50796 42.0541C4.66646 42.1435 4.80205 42.2685 4.90408 42.4191C5.00611 42.5697 5.0718 42.742 5.09599 42.9223C5.12018 43.1025 5.10222 43.286 5.0435 43.4581C4.98479 43.6303 4.88693 43.7866 4.75761 43.9146C4.16224 44.5037 3.75554 45.2563 3.58917 46.0769C3.42281 46.8975 3.50428 47.7489 3.82325 48.5232C4.14222 49.2974 4.68428 49.9594 5.38058 50.4251C6.07688 50.8908 6.89601 51.1392 7.7339 51.1387C7.84897 51.1387 7.96202 51.13 8.07439 51.1206C8.25805 51.1061 8.44254 51.135 8.61301 51.2047C8.78348 51.2745 8.93517 51.3833 9.05588 51.5224C9.17659 51.6615 9.26294 51.8269 9.30799 52.0054C9.35304 52.1839 9.35552 52.3704 9.31524 52.5501C9.24403 52.8589 9.20724 53.1746 9.20556 53.4914C9.20645 54.6122 9.65248 55.6869 10.4457 56.4794C11.2389 57.2718 12.3145 57.7174 13.4362 57.7181ZM19.4473 78.146V59.2901C18.9171 59.007 18.4287 58.652 17.9958 58.2351C17.5629 58.6516 17.0747 59.0065 16.545 59.2901V78.1466L19.4473 78.146ZM42.0612 78.146V59.6936C41.2952 59.304 40.5988 58.7908 40.0001 58.1746C39.4013 58.7908 38.7049 59.304 37.9389 59.6936V62.5499C37.9389 62.8619 37.8149 63.1612 37.594 63.3819C37.3732 63.6026 37.0736 63.7266 36.7613 63.7266C36.449 63.7266 36.1495 63.6026 35.9286 63.3819C35.7078 63.1612 35.5837 62.8619 35.5837 62.5499V60.4486C34.1391 60.6853 32.6569 60.507 31.3098 59.9345C29.9627 59.362 28.806 58.419 27.9744 57.2151C27.3687 58.0927 26.5595 58.8108 25.6159 59.3081C24.6723 59.8055 23.6223 60.0674 22.5555 60.0714C22.3038 60.0701 22.0523 60.0542 21.8025 60.0237V78.146H35.5837V76.9316C35.5837 76.6195 35.7078 76.3203 35.9286 76.0996C36.1495 75.8789 36.449 75.7549 36.7613 75.7549C37.0736 75.7549 37.3732 75.8789 37.594 76.0996C37.8149 76.3203 37.9389 76.6195 37.9389 76.9316V78.146H42.0612ZM63.4551 59.2901C62.9254 59.0065 62.4372 58.6516 62.0043 58.2351C61.5714 58.652 61.083 59.007 60.5528 59.2901V78.1466H63.4551V59.2901ZM78.8224 78.1466H73.9357C73.6234 78.1466 73.3239 78.2706 73.103 78.4913C72.8822 78.712 72.7581 79.0112 72.7581 79.3233C72.7581 79.6354 72.8822 79.9347 73.103 80.1554C73.3239 80.376 73.6234 80.5 73.9357 80.5H78.8224C79.1347 80.5 79.4342 80.376 79.6551 80.1554C79.8759 79.9347 80 79.6354 80 79.3233C80 79.0112 79.8759 78.712 79.6551 78.4913C79.4342 78.2706 79.1347 78.1466 78.8224 78.1466ZM45.417 19.7872C45.3217 20.084 45.3482 20.4065 45.4906 20.6838C45.6331 20.9612 45.8798 21.1707 46.1767 21.2664C46.2934 21.3044 46.4154 21.3237 46.5381 21.3236C46.7873 21.3234 47.03 21.2443 47.2315 21.0976C47.4329 20.951 47.5826 20.7443 47.6591 20.5073C47.9135 19.8059 47.9458 19.0433 47.7516 18.3229C47.5574 17.6025 47.1462 16.9593 46.5737 16.4804C46.3457 16.267 46.0423 16.1529 45.7301 16.1631C45.4178 16.1733 45.1225 16.307 44.909 16.5348C44.6954 16.7626 44.5812 17.0659 44.5914 17.3779C44.6016 17.6898 44.7355 17.985 44.9635 18.1983C45.2084 18.3723 45.3868 18.6244 45.4693 18.9132C45.5517 19.202 45.5333 19.5103 45.417 19.7872ZM47.6989 45.4866H47.6941C47.5395 45.4872 47.3865 45.5183 47.2438 45.578C47.1012 45.6377 46.9717 45.7249 46.8628 45.8346C46.7539 45.9443 46.6677 46.0744 46.6091 46.2174C46.5505 46.3603 46.5206 46.5135 46.5213 46.668C46.5266 47.848 46.4069 47.9765 45.8322 48.5924C45.6193 48.8207 45.5059 49.1243 45.5169 49.4362C45.528 49.7481 45.6625 50.0428 45.8911 50.2555C46.1196 50.4683 46.4233 50.5816 46.7355 50.5706C47.0476 50.5595 47.3426 50.4251 47.5555 50.1967C48.5373 49.1444 48.8845 48.4485 48.8764 46.6579C48.875 46.3468 48.7503 46.0489 48.5296 45.8294C48.3089 45.6098 48.0102 45.4866 47.6989 45.4866ZM47.6834 23.7765C47.5083 24.0349 47.4432 24.3522 47.5022 24.6586C47.5613 24.965 47.7397 25.2354 47.9983 25.4104C48.0151 25.4218 49.6765 26.5884 49.8441 28.2378C49.8987 28.8973 49.813 29.5609 49.5927 30.1849C49.3723 30.809 49.0223 31.3794 48.5656 31.8586C48.3493 32.0752 48.2258 32.3674 48.2214 32.6733C48.217 32.9792 48.3319 33.2748 48.5419 33.4976C48.7518 33.7203 49.0403 33.8526 49.3461 33.8664C49.652 33.8803 49.9513 33.7747 50.1805 33.5719C50.896 32.8419 51.4453 31.9662 51.791 31.0047C52.1367 30.0432 52.2707 29.0184 52.1838 28.0004C51.9032 25.2436 49.4208 23.5331 49.3159 23.4618C49.0575 23.2877 48.7405 23.2231 48.4345 23.2821C48.1286 23.3411 47.8584 23.5189 47.6834 23.7765Z" fill="url(#paint0_linear)"/>
<defs>
<linearGradient id="paint0_linear" x1="-2.23517e-07" y1="80.5" x2="81.1292" y2="79.3379" gradientUnits="userSpaceOnUse">
<stop stop-color="#3F6947"/>
<stop offset="1" stop-color="#339645"/>
</linearGradient>
</defs>
</svg>
