<svg xmlns="http://www.w3.org/2000/svg" viewBox="0 0 304.19 304.19"><defs><style>.cls-1,.cls-2{fill:none;stroke:#98938f;stroke-linejoin:round;stroke-width:4.5px;}.cls-1{stroke-linecap:round;}.cls-2{stroke-dasharray:9.01 11.02;}.cls-3{fill:#98938f;}</style></defs><g id="Layer_2" data-name="Layer 2"><g id="Layer_1-2" data-name="Layer 1"><circle class="cls-1" cx="152.09" cy="152.09" r="133.08"/><circle class="cls-2" cx="152.09" cy="152.09" r="149.84"/><path class="cls-3" d="M72.55,102.65,63,84.1l3.34-3.8,19.62,7L82.76,91,79,89.56l-5.28,6,1.93,3.51Zm-.84-10.8L75.08,88l-7-2.74Z"/><path class="cls-3" d="M89.3,84.86,78.05,69.06l5.36-3.81a10.74,10.74,0,0,1,3.89-1.83,6.06,6.06,0,0,1,3.5.21,5.87,5.87,0,0,1,2.75,2.21,5.63,5.63,0,0,1,.9,1.94,6.78,6.78,0,0,1,.18,2.16,6.56,6.56,0,0,1-.54,2.12L102,75.8l-4.23,3-6.31-3.35c-.22.18-.46.36-.71.54a11.91,11.91,0,0,1-1.44.86l3.77,5.29ZM84.15,69.58l2.92,4.09c.28-.13.56-.28.82-.43s.55-.34.83-.54a3.44,3.44,0,0,0,1.47-1.91,2.37,2.37,0,0,0-.43-2.05,2.32,2.32,0,0,0-1.79-1,3.74,3.74,0,0,0-2.33.83Z"/><path class="cls-3" d="M104.4,74.27,104,53.43l4.66-1.94,14.54,14.94-4.54,1.89L116,65.37l-7.38,3.07.19,4Zm4-10.06,4.72-2L108,56.7Z"/><path class="cls-3" d="M134.8,64.8a9.79,9.79,0,0,1-3.58,0,7.57,7.57,0,0,1-3-1.23,7.43,7.43,0,0,1-2.17-2.35,9.78,9.78,0,0,1-1.19-3.35l-2-11.24,4.68-.82,1.92,11a5.14,5.14,0,0,0,.87,2.2A3.6,3.6,0,0,0,132,60.32a3.91,3.91,0,0,0,2.12.17,3.87,3.87,0,0,0,1.94-.88,3.67,3.67,0,0,0,1.06-1.72,5.33,5.33,0,0,0,.07-2.37l-1.92-11,4.68-.81,2,11.24a9.45,9.45,0,0,1,0,3.56,7.49,7.49,0,0,1-3.67,5.12A10.26,10.26,0,0,1,134.8,64.8Z"/><path class="cls-3" d="M157.72,63.46a10,10,0,0,1-3.15-.64,9.55,9.55,0,0,1-2.63-1.53,9,9,0,0,1-2-2.24,9.86,9.86,0,0,1-1.22-2.85,10.84,10.84,0,0,1-.31-3.3,11,11,0,0,1,.64-3.29,10.18,10.18,0,0,1,1.5-2.8,9.55,9.55,0,0,1,2.22-2.13,9.41,9.41,0,0,1,2.79-1.32,10,10,0,0,1,3.17-.35,9.85,9.85,0,0,1,2.94.59A8.83,8.83,0,0,1,164.16,45,8.09,8.09,0,0,1,166,47a8.2,8.2,0,0,1,1.09,2.61l-4.68.81a4.89,4.89,0,0,0-1.56-2.18,4.34,4.34,0,0,0-4.34-.5,4.59,4.59,0,0,0-1.6,1.18,5.76,5.76,0,0,0-1.1,1.83,7.54,7.54,0,0,0-.47,2.34,7.39,7.39,0,0,0,.24,2.34,5.55,5.55,0,0,0,.92,1.89,4.5,4.5,0,0,0,3.44,1.79,4.35,4.35,0,0,0,2.53-.6,5.05,5.05,0,0,0,1.83-2l4.59,1.26a8,8,0,0,1-2,3.2,8.6,8.6,0,0,1-3.17,2A10.29,10.29,0,0,1,157.72,63.46Z"/><path class="cls-3" d="M169.15,63.67l12.58-16.62,4.87,1.36,2.19,20.73-4.73-1.32-.31-4-7.7-2.14-2.33,3.26Zm9.36-5.44,4.92,1.37-.58-7.5Z"/><path class="cls-3" d="M192.53,71l9.16-17.09L207.48,57a10.48,10.48,0,0,1,3.37,2.67,5.78,5.78,0,0,1,.61,6.67A5.58,5.58,0,0,1,210.12,68a6.74,6.74,0,0,1-4,1.58l.17,8.76-4.57-2.45.2-7.14c-.27-.12-.54-.25-.81-.4a10,10,0,0,1-1.4-.91l-3.07,5.73Zm11.4-11.39L201.56,64c.25.2.5.38.76.55a9.54,9.54,0,0,0,.85.5,3.55,3.55,0,0,0,2.36.48,2.39,2.39,0,0,0,1.64-1.31,2.25,2.25,0,0,0,.15-2.07,3.75,3.75,0,0,0-1.78-1.71Z"/><path class="cls-3" d="M209.68,81.11,221.43,65.7l3.78,2.88L213.45,84Z"/><path class="cls-3" d="M217.11,86.37,236.63,79,240,82.77l-9.21,18.71-3.3-3.64,1.87-3.55L224,88.37l-3.71,1.52Zm10.83.39,3.43,3.79,3.51-6.66Z"/><rect class="cls-3" x="181.28" y="110.71" width="4.56" height="4.56"/><rect class="cls-3" x="205.05" y="123.14" width="4.56" height="4.56"/><rect class="cls-3" x="158.9" y="252.65" width="4.56" height="4.56" transform="translate(-6.37 4.14) rotate(-1.44)"/><path class="cls-3" d="M172.93,281.05a9.45,9.45,0,0,1-8.79-9.42l-.24-4.34-.08-2.69-4.56.13,0,.91.39,7.62a14,14,0,0,0,2.67,6.72l6.32,5.65Z"/><path class="cls-3" d="M213.48,177.54a13.42,13.42,0,1,0-13.07-16.42l-.12.54-.56,0c-16.13-1.16-30.22-8.54-37.68-19.76l-.5-.76.88-.23a51.5,51.5,0,0,1,32.93,2.73c5,2.16,8.88,3.21,11.82,3.21A18.22,18.22,0,1,0,199,112.34l-.72.37-.21-.78a18.49,18.49,0,0,0-23.51-12.87l-.45.15-.28-.39a28,28,0,0,0-22.86-11.89,27.63,27.63,0,0,0-22.6,11.5l-.25.35-.42-.1a18.43,18.43,0,0,0-22,12.77l-.21.71-.67-.3a18.22,18.22,0,1,0-7.22,35c2.76,0,6.3-1,10.83-3a50.13,50.13,0,0,1,32.75-2.66l1.72.43-.53.77c-7.55,10.91-21.5,18.1-37.32,19.23l-.55,0-.13-.54a13.39,13.39,0,1,0,.1,5.6l.09-.49.5,0c14.51-1,27.93-6.86,36.84-16.13l1.17-1.22-.23,6.55c-5.58,13.23-14.47,23.36-25.05,28.53l-.5.25-.32-.46a11.09,11.09,0,1,0,2,6.33,10.93,10.93,0,0,0-.06-1.15l-.05-.45.42-.2c8.52-4.07,16.15-11.08,22-20.28l1.26-2-2.82,100.75-.27,4.91a9.45,9.45,0,0,1-8.79,9.4l5.59,3.83,5-4.93a14,14,0,0,0,2.64-6.73l.4-7.59,3.44-122.8h8.06l0,.63,2.85,102.08,4.56-.13L161,163.89l1.28,2.15c6.05,10.16,14.08,17.84,23.23,22.2l.42.2-.05.45a10.93,10.93,0,0,0-.06,1.15,11.12,11.12,0,1,0,2-6.33l-.31.46-.5-.25c-11.51-5.62-20.84-16.87-26.29-31.67l0-.21-.13-4.56,1.19,1.34c8.89,10,22.74,16.35,38,17.37l.49,0,.1.49A13.44,13.44,0,0,0,213.48,177.54Zm0-22.28a8.86,8.86,0,1,1-8.86,8.86A8.88,8.88,0,0,1,213.48,155.26ZM91.3,173a8.86,8.86,0,1,1,8.85-8.86A8.86,8.86,0,0,1,91.3,173Zm16.56,23.61A6.55,6.55,0,1,1,114.4,190,6.56,6.56,0,0,1,107.86,196.59Zm89.06-13.09a6.55,6.55,0,1,1-6.54,6.54A6.55,6.55,0,0,1,196.92,183.5Zm-46-45.23a36.46,36.46,0,0,1-8.59-1.49,54.75,54.75,0,0,0-35.75,2.89c-4.84,2.13-7.56,2.58-9,2.58a13.69,13.69,0,0,1-10.16-4.54A13.52,13.52,0,0,1,84,127.06a13.63,13.63,0,0,1,21.84-9.33,2.28,2.28,0,0,0,3.66-1.71,13.89,13.89,0,0,1,18.72-12.41,2.28,2.28,0,0,0,2.73-.94,23.25,23.25,0,0,1,19.95-11.18,23.49,23.49,0,0,1,20.26,11.71,2.29,2.29,0,0,0,3,.92,13.69,13.69,0,0,1,6-1.38,14,14,0,0,1,13.94,13.87c0,.12,0,.2,0,.27a2.28,2.28,0,0,0,3.83,1.71,13.59,13.59,0,0,1,9.53-3.66,13.84,13.84,0,0,1,13.4,13,13.67,13.67,0,0,1-13.65,14.3c-1.57,0-4.58-.5-10-2.84a57.27,57.27,0,0,0-22.43-4.64,54.28,54.28,0,0,0-13.55,1.71C155.44,138,152.43,138.27,150.92,138.27Z"/></g></g></svg>