<svg width="390" height="448" viewBox="0 0 390 448" fill="none" xmlns="http://www.w3.org/2000/svg">
<g style="mix-blend-mode:soft-light">
<path fill-rule="evenodd" clip-rule="evenodd" d="M22.9292 0H17.5714C17.5714 4.05461 14.2731 7.34151 10.2045 7.34151C9.99778 7.34151 9.79305 7.33302 9.59064 7.31638V8.68302H7.32592C7.35299 8.9389 7.36687 9.1987 7.36687 9.46173C7.36687 13.5163 4.06862 16.8033 0 16.8033V22.1426C3.9659 22.1426 7.19985 25.2657 7.36061 29.1786H7.32592C7.34485 29.3575 7.35733 29.5383 7.36312 29.7207C7.35912 29.8466 7.35194 29.9717 7.34166 30.0959H7.36559C7.29144 34.0866 4.02215 37.2988 0 37.2989V42.6382C3.96451 42.6382 7.19758 45.7591 7.36044 49.6701H7.32592C7.34492 49.8496 7.35742 50.0311 7.36319 50.2143C7.3592 50.3408 7.352 50.4666 7.34166 50.5915H7.36551C7.28919 54.5802 4.02077 57.7903 0 57.7903V63.1296C3.96591 63.1297 7.19986 66.2527 7.36061 70.1657H7.32592C7.34485 70.3445 7.35732 70.5253 7.36312 70.7078C7.35912 70.8336 7.35194 70.9588 7.34166 71.0829H7.36559C7.29146 75.0736 4.02216 78.2859 0 78.2859V83.6253C3.9659 83.6253 7.19985 86.7483 7.36061 90.6612H7.32592C7.34485 90.8401 7.35733 91.0209 7.36312 91.2034C7.35912 91.3292 7.35194 91.4544 7.34166 91.5786H7.36559C7.29144 95.5692 4.02215 98.7815 0 98.7815V104.121C3.96591 104.121 7.19986 107.244 7.36061 111.157H7.32592C7.34485 111.336 7.35732 111.517 7.36312 111.699C7.35912 111.825 7.35194 111.95 7.34166 112.074H7.36559C7.29146 116.065 4.02216 119.277 0 119.277V124.616C3.9659 124.616 7.19984 127.74 7.36061 131.652H7.32592C7.34485 131.831 7.35733 132.012 7.36312 132.195C7.35912 132.32 7.35194 132.446 7.34166 132.57H7.36559C7.29144 136.56 4.02215 139.773 0 139.773V145.112C3.96591 145.112 7.19986 148.235 7.36061 152.148H7.32592C7.34485 152.327 7.35732 152.508 7.36312 152.69C7.35912 152.816 7.35194 152.941 7.34166 153.065H7.36559C7.29146 157.056 4.02216 160.268 0 160.268V165.608C3.9659 165.608 7.19985 168.731 7.36061 172.644H7.32592C7.34485 172.822 7.35732 173.003 7.36312 173.186C7.35912 173.312 7.35194 173.437 7.34166 173.561H7.36559C7.29145 177.552 4.02216 180.764 0 180.764V186.103C3.9659 186.103 7.19985 189.226 7.36061 193.139H7.32592C7.34485 193.318 7.35732 193.499 7.36312 193.681C7.35912 193.807 7.35194 193.932 7.34166 194.057H7.36559C7.29145 198.047 4.02216 201.259 0 201.259V206.599C3.9652 206.599 7.19871 209.721 7.36052 213.633H7.32592C7.34488 213.812 7.35737 213.993 7.36315 214.176C7.35916 214.302 7.35197 214.428 7.34166 214.552H7.36555C7.29031 218.542 4.02146 221.753 0 221.753V227.092C3.9659 227.092 7.19985 230.215 7.36061 234.128H7.32592C7.34485 234.307 7.35732 234.488 7.36312 234.67C7.35912 234.796 7.35194 234.921 7.34166 235.046H7.36559C7.29145 239.036 4.02216 242.249 0 242.249V247.588C3.9659 247.588 7.19985 250.711 7.36061 254.624H7.32592C7.34485 254.803 7.35732 254.984 7.36312 255.166C7.35912 255.292 7.35194 255.417 7.34166 255.541H7.36559C7.29145 259.532 4.02216 262.744 0 262.744V268.083C3.9659 268.083 7.19985 271.207 7.36061 275.119H7.32592C7.34485 275.298 7.35732 275.479 7.36312 275.662C7.35912 275.787 7.35194 275.913 7.34166 276.037H7.36559C7.29144 280.027 4.02215 283.24 0 283.24V288.579C3.9659 288.579 7.19985 291.702 7.36061 295.615H7.32592C7.34485 295.794 7.35732 295.975 7.36312 296.157C7.35912 296.283 7.35194 296.408 7.34166 296.532H7.36559C7.29144 300.523 4.02215 303.735 0 303.735V309.075C3.9659 309.075 7.19985 312.198 7.36061 316.111H7.32592C7.34485 316.29 7.35732 316.47 7.36312 316.653C7.35912 316.779 7.35194 316.904 7.34166 317.028H7.36559C7.29146 321.019 4.02216 324.231 0 324.231V329.57C3.9659 329.57 7.19985 332.693 7.36061 336.606H7.32592C7.34485 336.785 7.35732 336.966 7.36312 337.148C7.35912 337.274 7.35194 337.399 7.34166 337.524H7.36559C7.29146 341.514 4.02216 344.727 0 344.727V350.066C3.9659 350.066 7.19985 353.189 7.36061 357.102H7.32592C7.34485 357.281 7.35732 357.461 7.36312 357.644C7.35912 357.77 7.35194 357.895 7.34166 358.019H7.36559C7.29144 362.01 4.02215 365.222 0 365.222V370.561C3.9652 370.561 7.19871 373.683 7.36052 377.595H7.32592C7.34488 377.775 7.35737 377.956 7.36315 378.139C7.35916 378.265 7.35197 378.39 7.34166 378.515H7.36555C7.29032 382.504 4.02147 385.716 0 385.716V391.055C3.96591 391.055 7.19987 394.178 7.36061 398.091H7.32592C7.34485 398.27 7.35732 398.451 7.36312 398.633C7.35912 398.759 7.35194 398.884 7.34166 399.008H7.36559C7.29144 402.999 4.02215 406.211 0 406.211V411.551C3.966 411.551 7.2 414.674 7.36062 418.587H7.32594C7.34485 418.766 7.35732 418.946 7.36312 419.129C7.35912 419.255 7.35194 419.38 7.34166 419.504H7.36561C7.29162 423.495 4.02227 426.707 1.2411e-05 426.707V432.046C4.06863 432.046 7.36689 435.333 7.36689 439.388C7.36689 439.594 7.35837 439.798 7.34168 440H9.29916V440.699C9.55592 440.672 9.81662 440.658 10.0806 440.658C14.1492 440.658 17.4475 443.945 17.4475 448H22.8053C22.8053 444.048 25.9389 440.825 29.8651 440.665V440.699C30.0446 440.68 30.2261 440.668 30.4092 440.662C30.5357 440.666 30.6613 440.673 30.786 440.684V440.66C34.7903 440.734 38.0134 443.992 38.0134 448H43.3712C43.3712 444.048 46.5048 440.825 50.431 440.665V440.699C50.6106 440.68 50.792 440.668 50.9752 440.662C51.1016 440.666 51.2272 440.673 51.352 440.684V440.66C55.3562 440.734 58.5793 443.992 58.5794 448H63.9371C63.9372 444.048 67.0713 440.825 70.9979 440.665V440.699C71.1773 440.68 71.3587 440.668 71.5416 440.662C71.6679 440.666 71.7933 440.673 71.9179 440.684V440.66C75.9226 440.733 79.1462 443.992 79.1462 448H84.504C84.5041 444.048 87.6376 440.825 91.5639 440.665V440.699C91.7434 440.68 91.9249 440.668 92.108 440.662C92.2344 440.666 92.3601 440.673 92.4848 440.684V440.66C96.489 440.734 99.7122 443.992 99.7122 448H105.07C105.07 444.048 108.204 440.825 112.13 440.665V440.699C112.309 440.68 112.491 440.668 112.674 440.662L112.697 440.663L112.741 440.665C112.785 440.666 112.829 440.669 112.873 440.671C112.932 440.675 112.992 440.679 113.051 440.684V440.66C117.055 440.734 120.278 443.992 120.278 448H125.636C125.636 444.048 128.77 440.825 132.696 440.665V440.699C132.875 440.68 133.057 440.668 133.24 440.662C133.305 440.664 133.37 440.667 133.435 440.671C133.461 440.672 133.487 440.674 133.513 440.676C133.548 440.678 133.582 440.681 133.617 440.684V440.66C137.621 440.734 140.844 443.992 140.844 448H146.202C146.202 444.048 149.336 440.825 153.263 440.665V440.699C153.366 440.688 153.469 440.68 153.573 440.673C153.651 440.668 153.728 440.665 153.806 440.662C153.933 440.666 154.058 440.673 154.183 440.684V440.66C158.187 440.733 161.411 443.992 161.411 448H166.769C166.769 444.048 169.902 440.825 173.829 440.665V440.699C174.008 440.68 174.19 440.668 174.373 440.662C174.499 440.666 174.625 440.673 174.75 440.684V440.66C178.754 440.734 181.977 443.992 181.977 448H187.335C187.335 444.048 190.468 440.825 194.395 440.665V440.699C194.574 440.68 194.756 440.668 194.939 440.662C195.065 440.666 195.191 440.673 195.315 440.684V440.66C199.32 440.734 202.543 443.992 202.543 448H207.901C207.901 444.048 211.034 440.825 214.96 440.665V440.699C215.14 440.68 215.322 440.668 215.505 440.662C215.552 440.664 215.598 440.666 215.645 440.668C215.693 440.67 215.742 440.673 215.79 440.677C215.821 440.679 215.851 440.681 215.881 440.684V440.66C219.886 440.734 223.109 443.992 223.109 448H228.467C228.467 444.048 231.601 440.825 235.527 440.665V440.699C235.707 440.68 235.888 440.668 236.071 440.662C236.197 440.666 236.323 440.673 236.447 440.684V440.66C240.452 440.733 243.676 443.992 243.676 448H249.033C249.033 444.048 252.167 440.825 256.093 440.665V440.699C256.273 440.68 256.454 440.668 256.638 440.662C256.686 440.664 256.735 440.666 256.784 440.668C256.824 440.67 256.865 440.673 256.906 440.676C256.942 440.678 256.978 440.681 257.014 440.684V440.66C261.018 440.734 264.242 443.992 264.242 448H269.599C269.599 444.048 272.733 440.825 276.659 440.665V440.699C276.839 440.68 277.02 440.668 277.203 440.662C277.33 440.666 277.455 440.673 277.58 440.684V440.66C281.584 440.734 284.808 443.992 284.808 448H290.165C290.165 444.048 293.299 440.825 297.225 440.665V440.699C297.405 440.68 297.586 440.668 297.769 440.662C297.896 440.666 298.021 440.673 298.146 440.684V440.66C302.15 440.734 305.374 443.992 305.374 448H310.731C310.731 444.048 313.865 440.825 317.792 440.665V440.699C317.874 440.691 317.957 440.683 318.04 440.677C318.084 440.674 318.128 440.672 318.172 440.669C318.227 440.666 318.281 440.664 318.336 440.662C318.374 440.663 318.413 440.665 318.451 440.667C318.478 440.668 318.504 440.669 318.531 440.671C318.591 440.674 318.652 440.679 318.712 440.684V440.66C322.717 440.733 325.94 443.992 325.94 448H331.298C331.298 444.048 334.431 440.826 338.357 440.665V440.699C338.537 440.68 338.718 440.668 338.902 440.662L338.91 440.662C339.034 440.667 339.157 440.674 339.279 440.684V440.66C343.283 440.734 346.505 443.992 346.505 448H351.863C351.863 444.048 354.997 440.825 358.924 440.665V440.699C359.103 440.68 359.284 440.668 359.467 440.662C359.503 440.663 359.538 440.665 359.574 440.666C359.607 440.668 359.641 440.67 359.675 440.672C359.712 440.674 359.749 440.676 359.787 440.679L359.844 440.684V440.66C363.848 440.734 367.072 443.992 367.072 448H372.43C372.43 443.945 375.728 440.658 379.797 440.658C380.003 440.658 380.208 440.667 380.41 440.684V439.317H382.674C382.647 439.061 382.633 438.801 382.633 438.538C382.633 434.483 385.931 431.196 390 431.196V425.857C386.034 425.857 382.8 422.734 382.639 418.821H382.674C382.655 418.642 382.643 418.461 382.637 418.279C382.638 418.247 382.639 418.214 382.641 418.182L382.643 418.127L382.646 418.081C382.647 418.054 382.649 418.027 382.651 418C382.653 417.968 382.656 417.936 382.658 417.904H382.635C382.709 413.913 385.978 410.701 390 410.701V405.362C386.036 405.362 382.803 402.241 382.64 398.33H382.674C382.663 398.227 382.655 398.123 382.648 398.019C382.643 397.941 382.639 397.863 382.637 397.785C382.641 397.659 382.648 397.533 382.658 397.408H382.635C382.711 393.419 385.979 390.209 390 390.209V384.87C386.034 384.87 382.8 381.747 382.639 377.834H382.674C382.664 377.737 382.656 377.64 382.649 377.543C382.647 377.512 382.645 377.482 382.644 377.452C382.642 377.426 382.641 377.4 382.64 377.374L382.638 377.331L382.637 377.292C382.641 377.166 382.648 377.041 382.658 376.917H382.635C382.709 372.926 385.978 369.714 390 369.714V364.374C386.034 364.374 382.8 361.251 382.639 357.339H382.674C382.655 357.16 382.643 356.979 382.637 356.796L382.639 356.733L382.642 356.671L382.644 356.63C382.645 356.607 382.647 356.585 382.648 356.562C382.65 356.534 382.652 356.506 382.654 356.478L382.658 356.421H382.635C382.709 352.431 385.978 349.218 390 349.218V343.879C386.034 343.879 382.8 340.756 382.639 336.843H382.674C382.655 336.664 382.643 336.483 382.637 336.301C382.641 336.175 382.648 336.05 382.658 335.926H382.635C382.709 331.935 385.978 328.723 390 328.723V323.383C386.034 323.383 382.8 320.26 382.639 316.347H382.674C382.655 316.168 382.643 315.988 382.637 315.805C382.641 315.679 382.648 315.554 382.658 315.43H382.635C382.709 311.439 385.978 308.227 390 308.227V302.888C386.034 302.888 382.8 299.765 382.639 295.852H382.674C382.655 295.673 382.643 295.492 382.637 295.31C382.638 295.283 382.639 295.256 382.64 295.229L382.642 295.178C382.646 295.097 382.652 295.015 382.658 294.934H382.635C382.709 290.944 385.978 287.731 390 287.731V282.392C386.034 282.392 382.8 279.269 382.639 275.356H382.674C382.655 275.177 382.643 274.996 382.637 274.814C382.641 274.688 382.648 274.563 382.658 274.439H382.635C382.709 270.448 385.978 267.236 390 267.236V261.897C386.034 261.897 382.8 258.773 382.639 254.861H382.674C382.655 254.682 382.643 254.501 382.637 254.318C382.641 254.193 382.648 254.067 382.658 253.943H382.635C382.709 249.953 385.978 246.74 390 246.74V241.401C386.035 241.401 382.801 238.279 382.64 234.367H382.674C382.655 234.188 382.643 234.007 382.637 233.824C382.641 233.698 382.648 233.572 382.658 233.448H382.635C382.71 229.458 385.979 226.247 390 226.247V220.907C386.034 220.907 382.8 217.784 382.639 213.871H382.674C382.655 213.693 382.643 213.512 382.637 213.329C382.64 213.248 382.643 213.167 382.649 213.086C382.652 213.042 382.655 212.998 382.658 212.954H382.635C382.709 208.963 385.978 205.751 390 205.751V200.412C386.034 200.412 382.8 197.289 382.639 193.376H382.674C382.655 193.197 382.643 193.016 382.637 192.834C382.641 192.708 382.648 192.583 382.658 192.459H382.635C382.709 188.468 385.978 185.256 390 185.256V179.916C386.034 179.916 382.8 176.793 382.639 172.88H382.674C382.655 172.701 382.643 172.521 382.637 172.338C382.641 172.212 382.648 172.087 382.658 171.963H382.635C382.709 167.972 385.978 164.76 390 164.76V159.421C386.034 159.421 382.8 156.298 382.639 152.385H382.674C382.655 152.206 382.643 152.025 382.637 151.842C382.641 151.717 382.648 151.592 382.658 151.467H382.635C382.709 147.477 385.978 144.264 390 144.264V138.925C386.034 138.925 382.8 135.802 382.639 131.889H382.674C382.655 131.71 382.643 131.529 382.637 131.347C382.641 131.221 382.648 131.096 382.658 130.972H382.635C382.709 126.981 385.978 123.769 390 123.769V118.429C386.034 118.429 382.8 115.306 382.639 111.393H382.674C382.655 111.215 382.643 111.034 382.637 110.851C382.641 110.725 382.648 110.6 382.658 110.476H382.635C382.709 106.486 385.978 103.273 390 103.273V97.9339C386.034 97.9338 382.8 94.8108 382.639 90.8979H382.674C382.655 90.719 382.643 90.5382 382.637 90.3557C382.641 90.2299 382.648 90.1048 382.658 89.9806H382.635C382.709 85.9899 385.978 82.7776 390 82.7776V77.4383C386.035 77.4382 382.801 74.3163 382.64 70.4044H382.674C382.655 70.2251 382.643 70.044 382.637 69.8611C382.641 69.7349 382.648 69.6095 382.658 69.485H382.635C382.71 65.4953 385.979 62.2841 390 62.2841V56.9448C386.034 56.9447 382.8 53.8217 382.639 49.9088H382.674C382.655 49.7299 382.643 49.5491 382.637 49.3666C382.641 49.2408 382.648 49.1157 382.658 48.9915H382.635C382.709 45.0008 385.978 41.7885 390 41.7885V36.4492C386.034 36.4491 382.8 33.3259 382.639 29.4129H382.674C382.655 29.2345 382.643 29.0542 382.637 28.8723C382.641 28.746 382.648 28.6205 382.658 28.4959H382.634C382.708 24.5051 385.978 21.2927 390 21.2926V15.9533C385.931 15.9533 382.633 12.6664 382.633 8.61174C382.633 8.40574 382.642 8.20171 382.658 8H380.702V7.3007C380.445 7.32767 380.185 7.34151 379.921 7.34151C375.852 7.34151 372.554 4.05461 372.554 0H367.196C367.196 3.95209 364.062 7.1748 360.136 7.33524V7.3007C359.957 7.31956 359.775 7.332 359.592 7.33777C359.466 7.33379 359.34 7.32663 359.215 7.31638V7.34022C355.211 7.26606 351.988 4.00814 351.988 0H346.63C346.63 3.9521 343.496 7.17482 339.57 7.33525V7.3007C339.391 7.31956 339.209 7.332 339.026 7.33777C338.9 7.33379 338.774 7.32663 338.649 7.31638V7.34022C334.645 7.26608 331.422 4.00815 331.422 0H326.064C326.064 3.95209 322.931 7.1748 319.004 7.33524V7.3007C318.825 7.31956 318.643 7.332 318.46 7.33777C318.334 7.33379 318.208 7.32663 318.083 7.31638V7.34022C314.079 7.26606 310.856 4.00814 310.856 0H305.498C305.498 3.95243 302.364 7.17535 298.437 7.33529V7.3007C298.258 7.31955 298.077 7.33198 297.894 7.33776C297.767 7.33377 297.642 7.32662 297.517 7.31638V7.34023C293.513 7.26661 290.289 4.00847 290.289 0H284.931C284.931 3.95209 281.798 7.1748 277.871 7.33524V7.3007C277.692 7.31956 277.51 7.332 277.327 7.33777C277.201 7.33379 277.075 7.32663 276.951 7.31638V7.34022C272.946 7.26606 269.723 4.00814 269.723 0H264.365C264.365 3.9521 261.232 7.17482 257.306 7.33525V7.3007C257.126 7.31956 256.945 7.332 256.761 7.33777C256.635 7.33379 256.509 7.32663 256.385 7.31638V7.34022C252.38 7.26608 249.157 4.00815 249.157 0H243.799C243.799 3.95209 240.666 7.1748 236.74 7.33524V7.3007C236.56 7.31956 236.379 7.332 236.195 7.33777C236.069 7.33379 235.943 7.32663 235.819 7.31638V7.34022C231.814 7.26608 228.591 4.00815 228.591 0H223.234C223.233 3.95242 220.099 7.17534 216.173 7.33528V7.3007C215.993 7.31955 215.812 7.33198 215.629 7.33776C215.503 7.33377 215.377 7.32662 215.253 7.31638V7.34023C211.248 7.26661 208.024 4.00847 208.024 0H202.667C202.667 3.95209 199.533 7.1748 195.607 7.33524V7.3007C195.427 7.31956 195.246 7.332 195.062 7.33777C194.936 7.33379 194.811 7.32663 194.686 7.31638V7.34022C190.682 7.26608 187.458 4.00815 187.458 0H182.101C182.101 3.95209 178.967 7.1748 175.041 7.33524V7.3007C174.861 7.31956 174.68 7.332 174.497 7.33777C174.37 7.33379 174.245 7.32663 174.12 7.31638V7.34022C170.116 7.26608 166.893 4.00815 166.893 0H161.535C161.535 3.95242 158.401 7.17534 154.474 7.33528V7.3007C154.295 7.31955 154.113 7.33198 153.93 7.33776C153.804 7.33377 153.678 7.32662 153.554 7.31638V7.34023C149.549 7.26661 146.326 4.00847 146.326 0H140.968C140.968 3.9521 137.834 7.17481 133.908 7.33524V7.3007C133.728 7.31956 133.547 7.332 133.364 7.33777C133.237 7.33379 133.112 7.32663 132.987 7.31638V7.34022C128.983 7.26608 125.76 4.00815 125.76 0H120.402C120.402 3.95209 117.268 7.17481 113.342 7.33524V7.3007C113.162 7.31956 112.981 7.332 112.798 7.33777C112.671 7.33379 112.546 7.32663 112.421 7.31638V7.34022C108.417 7.26608 105.194 4.00815 105.194 0H99.836C99.8359 3.95209 96.7023 7.1748 92.7761 7.33524V7.3007C92.5966 7.31956 92.4151 7.332 92.2319 7.33777C92.1055 7.33379 91.9799 7.32663 91.8552 7.31638V7.34022C87.851 7.26608 84.6278 4.00815 84.6278 0H79.27C79.27 3.95209 76.1364 7.17481 72.2102 7.33524V7.3007C72.0306 7.31956 71.8491 7.332 71.6659 7.33777C71.5395 7.33379 71.4139 7.32663 71.2892 7.31638V7.34022C67.285 7.26608 64.0619 4.00815 64.0619 0H58.7041C58.7041 3.95209 55.5705 7.1748 51.6443 7.33524V7.3007C51.4647 7.31956 51.2832 7.332 51.1 7.33778C50.9736 7.33379 50.848 7.32663 50.7233 7.31638V7.34022C46.7191 7.26608 43.496 4.00815 43.4959 0H38.1382C38.1381 3.95236 35.0041 7.17524 31.0775 7.33528V7.3007C30.8981 7.31955 30.7167 7.33198 30.5337 7.33776C30.4074 7.33378 30.282 7.32662 30.1574 7.31638V7.34023C26.1528 7.26652 22.9292 4.00842 22.9292 0Z" fill="#FAF8F6"/>
</g>
</svg>
