<svg width="20" height="17" viewBox="0 0 20 17" fill="none" xmlns="http://www.w3.org/2000/svg">
<path d="M9.41272 8.1065C8.65789 5.62722 5.61769 5.0809 3.27603 5.87744C2.06447 6.27847 0.970725 6.97253 0.0919556 7.89798C0.0523612 7.94082 0.0242342 7.99297 0.0101869 8.04958C-0.00386044 8.10619 -0.00337241 8.16544 0.0116056 8.22182C0.0265837 8.27819 0.0555659 8.32987 0.0958605 8.37205C0.136155 8.41422 0.186455 8.44553 0.242089 8.46307C2.57124 9.15952 2.77767 12.0683 5.80953 12.4249C6.39541 12.4948 6.98931 12.4067 7.52972 12.1699C8.07013 11.9331 8.53738 11.556 8.88309 11.0779C9.10657 10.7765 9.27915 10.4405 9.39396 10.0833C9.60068 9.44151 9.60723 8.75205 9.41272 8.1065Z" fill="url(#paint0_linear)"/>
<path d="M14.2316 0.205633C10.7786 0.998003 9.1271 4.46566 10.2448 6.54667C10.4908 6.99953 10.828 7.39643 11.2352 7.71229C11.4827 7.90866 11.7546 8.07198 12.0443 8.19814C12.7286 8.50042 13.4903 8.58153 14.2229 8.43013C14.9556 8.27874 15.6227 7.90241 16.1312 7.35364C17.8953 5.51659 17.2051 3.27919 19.8575 1.30661C19.9075 1.27072 19.9468 1.222 19.9715 1.16559C19.9961 1.10917 20.005 1.04716 19.9973 0.986098C19.9896 0.925031 19.9656 0.867171 19.9278 0.81862C19.89 0.77007 19.8397 0.732629 19.7824 0.710248C18.158 0.0992889 16.1271 -0.244766 14.2316 0.205633Z" fill="url(#paint1_linear)"/>
<path d="M11.0057 16.495C10.8135 16.4962 10.6265 16.4323 10.4751 16.3139C10.3237 16.1954 10.2168 16.0292 10.1716 15.8424C9.59195 13.4027 8.26577 10.7462 7.32744 10.8066C7.21352 10.8197 7.09813 10.8097 6.98816 10.7772C6.8782 10.7447 6.77592 10.6903 6.68745 10.6173C6.59898 10.5444 6.52614 10.4543 6.47327 10.3526C6.4204 10.2508 6.38859 10.1394 6.37976 10.0251C6.37092 9.91078 6.38523 9.79585 6.42183 9.68717C6.45843 9.5785 6.51658 9.47832 6.59278 9.39263C6.66899 9.30694 6.76169 9.2375 6.86535 9.18846C6.96901 9.13942 7.08149 9.11179 7.19608 9.10722C8.52642 8.99671 9.55859 10.0998 10.3093 11.4218C10.5428 9.42 11.0516 7.08668 12.163 5.27883C12.2811 5.08527 12.4712 4.94654 12.6915 4.89316C12.9119 4.83978 13.1444 4.87613 13.338 4.9942C13.5315 5.11227 13.6703 5.3024 13.7236 5.52275C13.777 5.74311 13.7407 5.97564 13.6226 6.1692C11.5312 9.5889 11.8523 15.5317 11.8565 15.5921C11.8621 15.7078 11.8443 15.8234 11.8042 15.9321C11.7641 16.0407 11.7025 16.1402 11.6231 16.2245C11.5436 16.3088 11.448 16.3762 11.342 16.4227C11.2359 16.4692 11.1215 16.4938 11.0057 16.495Z" fill="url(#paint2_linear)"/>
<defs>
<linearGradient id="paint0_linear" x1="-5.58793e-08" y1="16.495" x2="20.2804" y2="16.1428" gradientUnits="userSpaceOnUse">
<stop stop-color="#3F6947"/>
<stop offset="1" stop-color="#339645"/>
</linearGradient>
<linearGradient id="paint1_linear" x1="-5.58793e-08" y1="16.495" x2="20.2804" y2="16.1428" gradientUnits="userSpaceOnUse">
<stop stop-color="#3F6947"/>
<stop offset="1" stop-color="#339645"/>
</linearGradient>
<linearGradient id="paint2_linear" x1="-5.58793e-08" y1="16.495" x2="20.2804" y2="16.1428" gradientUnits="userSpaceOnUse">
<stop stop-color="#3F6947"/>
<stop offset="1" stop-color="#339645"/>
</linearGradient>
</defs>
</svg>
