<svg width="197" height="197" viewBox="0 0 197 197" fill="none" xmlns="http://www.w3.org/2000/svg">
<path d="M98.5001 189.151C148.565 189.151 189.151 148.565 189.151 98.5C189.151 48.435 148.565 7.84924 98.5001 7.84924C48.4351 7.84924 7.84937 48.435 7.84937 98.5C7.84937 148.565 48.4351 189.151 98.5001 189.151Z" fill="#627EEA"/>
<path d="M97.3455 137.977L65.1022 115.391C64.7559 115.122 64.2942 115.584 64.525 115.93L96.8069 164.333C97.5764 165.526 99.3463 165.526 100.116 164.333L132.398 115.93C132.629 115.545 132.205 115.122 131.821 115.391L99.6541 137.977C98.9616 138.439 98.0381 138.439 97.3455 137.977Z" fill="white"/>
<path d="M136.63 95.4604L100.231 29.7039C99.4618 28.3187 97.4995 28.3187 96.7685 29.7039L60.3696 95.4219H136.63V95.4604Z" fill="white"/>
<path d="M98.5 95.4604H136.63L100.231 29.7039C99.8467 29.0113 99.1541 28.665 98.5 28.665V95.4604Z" fill="#C0CBF6"/>
<path d="M97.3456 123.51L60.9467 97.9998C59.8309 97.1918 59.8309 95.5373 60.9467 94.7293L97.3456 69.2578C98.0381 68.7961 98.9616 68.7961 99.6157 69.2578L136.015 94.7678C137.13 95.5758 137.13 97.2303 136.015 98.0383L99.6542 123.51C98.9616 124.01 98.0381 124.01 97.3456 123.51Z" fill="#C0CBF6"/>
<path d="M99.6543 123.51L136.053 97.9998C137.169 97.1918 137.169 95.5373 136.053 94.7293L99.6543 69.2578C99.308 69.0269 98.9232 68.9115 98.5 68.9115V123.895C98.8848 123.895 99.308 123.741 99.6543 123.51Z" fill="#8197EE"/>
<path d="M100.154 164.333L132.436 115.93C132.667 115.545 132.244 115.122 131.859 115.391L99.6543 137.977C99.308 138.208 98.9232 138.323 98.5 138.323V165.218C99.1156 165.218 99.7697 164.911 100.154 164.333Z" fill="#C0CBF6"/>
</svg>
