<svg width="24" height="24" viewBox="0 0 24 24" fill="none" xmlns="http://www.w3.org/2000/svg">
<path fill-rule="evenodd" clip-rule="evenodd" d="M11.9829 3.875C10.3795 3.875 8.96851 4.45354 7.7153 5.65913C6.50992 6.81869 5.875 8.39068 5.875 10.4742C5.875 11.6885 6.32567 13.1083 7.332 14.7532C8.32504 16.3763 9.85347 18.1659 11.9471 20.1211C11.9652 20.1239 11.9809 20.125 11.9945 20.125C12.0049 20.125 12.0163 20.1244 12.0289 20.1228C14.1236 18.1669 15.657 16.3747 16.658 14.7473C17.672 13.0986 18.125 11.681 18.125 10.4742C18.125 8.39285 17.4858 6.82164 16.2702 5.66158C15.0045 4.45384 13.5866 3.875 11.9829 3.875ZM6.50205 4.39796C8.06041 2.89882 9.89892 2.125 11.9829 2.125C14.0666 2.125 15.9096 2.89853 17.4783 4.39552C19.097 5.94015 19.875 7.99938 19.875 10.4742C19.875 12.1147 19.2635 13.8515 18.1486 15.6641C17.029 17.4845 15.3594 19.4134 13.1697 21.4518L13.1602 21.4607C12.9778 21.6255 12.7621 21.7428 12.523 21.8057C12.3513 21.8508 12.1744 21.875 11.9945 21.875C11.8146 21.875 11.638 21.8509 11.4664 21.8062C11.2317 21.7449 11.021 21.6327 10.8403 21.4803L10.8239 21.4664L10.8082 21.4518C8.61839 19.4133 6.95189 17.4852 5.83922 15.6665C4.7314 13.8557 4.125 12.1184 4.125 10.4742C4.125 8.00154 4.89586 5.94311 6.50205 4.39796Z" fill="url(#paint0_linear_1802_7269)"/>
<path fill-rule="evenodd" clip-rule="evenodd" d="M14.75 10C14.75 11.5188 13.5188 12.75 12 12.75C10.4812 12.75 9.25 11.5188 9.25 10C9.25 8.48122 10.4812 7.25 12 7.25C13.5188 7.25 14.75 8.48122 14.75 10ZM12 11C12.5523 11 13 10.5523 13 10C13 9.44772 12.5523 9 12 9C11.4477 9 11 9.44772 11 10C11 10.5523 11.4477 11 12 11Z" fill="url(#paint1_linear_1802_7269)"/>
<defs>
<linearGradient id="paint0_linear_1802_7269" x1="7.5" y1="22" x2="20.6967" y2="18.1659" gradientUnits="userSpaceOnUse">
<stop stop-color="#3F6947"/>
<stop offset="1" stop-color="#339645"/>
</linearGradient>
<linearGradient id="paint1_linear_1802_7269" x1="7.5" y1="22" x2="20.6967" y2="18.1659" gradientUnits="userSpaceOnUse">
<stop stop-color="#3F6947"/>
<stop offset="1" stop-color="#339645"/>
</linearGradient>
</defs>
</svg>
