<svg width="20" height="20" viewBox="0 0 20 20" fill="none" xmlns="http://www.w3.org/2000/svg">
<path fill-rule="evenodd" clip-rule="evenodd" d="M5.46623 11.641C4.60704 11.3282 4.16404 10.3782 4.47676 9.51903C4.63105 9.0951 4.95167 8.7525 5.36445 8.57047L6.64088 8.00757C6.66451 7.99715 6.68286 7.97753 6.6917 7.95326L8.47094 3.06484C8.00977 2.72499 7.80655 2.11021 8.01242 1.5446L8.04633 1.45141C8.31543 0.71208 9.13291 0.330879 9.87224 0.599973L16.1935 2.90074C16.9329 3.16983 17.3141 3.98731 17.045 4.72664L17.0111 4.81983C16.8052 5.38545 16.2543 5.72578 15.6826 5.68967L13.9086 10.5635C13.8995 10.5887 13.9014 10.6165 13.9139 10.6401L14.5825 11.9094C14.799 12.3203 14.8319 12.8035 14.673 13.2399C14.362 14.0944 13.4173 14.5349 12.5628 14.2239L10.0294 13.3018L8.33811 17.9487L6.95307 18.5659L6.32028 17.2089L8.00988 12.5668L5.46623 11.641ZM10.2084 2.53142L14.6945 4.16424C14.4723 4.31522 14.2938 4.53495 14.1949 4.80668L12.3112 9.98211C12.138 10.4579 12.1738 10.9846 12.4098 11.4325L13.0138 12.579L6.15158 10.0813L7.32683 9.56304C7.77432 9.36569 8.1219 8.99428 8.28918 8.5347L10.1782 3.34472C10.2771 3.07299 10.2816 2.78991 10.2084 2.53142Z" fill="#4CB26E"/>
</svg>
