<svg width="20" height="20" viewBox="0 0 20 20" fill="none" xmlns="http://www.w3.org/2000/svg">
<path fill-rule="evenodd" clip-rule="evenodd" d="M2.8 9.50078C2.7 9.40078 2.5 9.40078 2.4 9.50078L1.6 10.3008C1.6 10.3008 1.5 10.4008 1.5 10.5008C1.5 10.6008 1.5 10.6008 1.6 10.7008L2.8 11.9008L1.6 13.0008C1.5 13.1008 1.5 13.3008 1.6 13.4008L2.4 14.2008C2.5 14.3008 2.7 14.3008 2.8 14.2008L4 13.0008L5.2 14.2008C5.2 14.2008 5.3 14.3008 5.4 14.3008C5.5 14.3008 5.5 14.3008 5.6 14.2008L6.4 13.4008C6.5 13.3008 6.5 13.1008 6.4 13.0008L5.2 11.8008L6.4 10.6008C6.4 10.6008 6.5 10.5008 6.5 10.4008C6.5 10.3008 6.5 10.3008 6.4 10.2008L5.5 9.50078C5.4 9.40078 5.2 9.40078 5.1 9.50078L4 10.6008L2.8 9.50078Z" fill="#4CB26E"/>
<path d="M3.3 15.8008C2.8 15.8008 2.3 16.2008 2.3 16.8008C2.3 17.3008 2.7 17.8008 3.3 17.8008C3.8 17.8008 4.3 17.4008 4.3 16.8008C4.2 16.2008 3.8 15.8008 3.3 15.8008Z" fill="#4CB26E"/>
<path d="M6.6 15.8008C6.1 15.8008 5.6 16.2008 5.6 16.8008C5.6 17.3008 6 17.8008 6.6 17.8008H6.7C7.2 17.8008 7.6 17.3008 7.6 16.9008C7.6 16.2008 7.2 15.8008 6.6 15.8008Z" fill="#4CB26E"/>
<path d="M10 15.8008C9.5 15.8008 9 16.2008 9 16.8008C9 17.3008 9.4 17.8008 10 17.8008C10.5 17.8008 11 17.4008 11 16.8008C11 16.2008 10.5 15.8008 10 15.8008Z" fill="#4CB26E"/>
<path d="M13.4 15.8008C12.9 15.8008 12.4 16.2008 12.4 16.8008C12.4 17.3008 12.8 17.8008 13.4 17.8008C13.9 17.8008 14.4 17.4008 14.4 16.8008C14.3 16.2008 13.9 15.8008 13.4 15.8008Z" fill="#4CB26E"/>
<path d="M16.7 15.8008C16.2 15.8008 15.7 16.2008 15.7 16.8008C15.7 17.3008 16.1 17.8008 16.7 17.8008C17.2 17.8008 17.7 17.4008 17.7 16.8008C17.7 16.2008 17.3 15.8008 16.7 15.8008Z" fill="#4CB26E"/>
<path fill-rule="evenodd" clip-rule="evenodd" d="M18.5 11.6008C18.1 11.3008 17.6 11.4008 17.3 11.7008L17.2 11.8008C17.1 11.9008 17.1 11.9008 17 12.0008C17 11.9008 17 11.7008 17 11.6008C17 11.5008 17 11.3008 17 11.1008C17 10.7008 16.8 10.3008 16.4 10.1008C15.9 9.90078 15.4 10.1008 15.1 10.5008C14.8 11.0008 14.4 11.4008 14.1 11.7008C13.6 12.1008 13.1 12.3008 12.7 12.3008C12.5 12.3008 12.4 12.3008 12.2 12.2008C12.1 12.1008 12 12.1008 11.9 12.0008C13.2 11.1008 14.3 10.0008 15.1 8.90078C15.9 7.70078 16.4 6.40078 16.4 5.20078C16.4 4.30078 16.2 3.50078 15.7 2.80078C15.2 2.10078 14.5 1.80078 13.7 1.80078C12.4 1.80078 11.4 2.50078 10.6 3.90078C9.9 5.00078 9.5 6.70078 9.5 8.90078C9.5 9.40078 9.5 9.80078 9.6 10.2008C9.6 10.5008 9.7 10.9008 9.8 11.1008C9.5 11.3008 9.2 11.4008 8.9 11.6008C8.7 11.7008 8.5 11.8008 8.3 11.9008C7.9 12.1008 7.7 12.6008 7.8 13.0008C8 13.4008 8.6 13.6008 9 13.4008C9.2 13.3008 9.4 13.2008 9.6 13.1008C9.9 12.9008 10.2 12.8008 10.5 12.6008C10.7 12.9008 11 13.2008 11.3 13.4008C11.7 13.6008 12.2 13.8008 12.7 13.8008C13.2 13.8008 13.8 13.7008 14.3 13.4008C14.7 13.2008 15 13.0008 15.3 12.7008C15.4 12.9008 15.5 13.2008 15.6 13.4008C15.8 13.7008 16.2 13.9008 16.5 13.9008C16.9 13.9008 17.3 13.8008 17.7 13.5008C17.9 13.3008 18.2 13.1008 18.4 12.9008C18.9 12.5008 18.9 11.9008 18.5 11.6008ZM11.3 10.0008C11.3 9.90078 11.3 9.80078 11.3 9.70078C11.3 9.40078 11.3 9.10078 11.3 8.80078C11.3 7.20078 11.5 5.80078 12 4.70078C12.5 3.60078 13.1 3.20078 13.7 3.20078C14 3.20078 14.2 3.30078 14.4 3.60078C14.6 3.90078 14.7 4.30078 14.7 4.80078C14.7 5.70078 14.4 6.60078 13.7 7.50078C13.1 8.40078 12.3 9.20078 11.3 10.0008Z" fill="#4CB26E"/>
</svg>
