<svg width="20" height="20" viewBox="0 0 20 20" fill="none" xmlns="http://www.w3.org/2000/svg">
<path fill-rule="evenodd" clip-rule="evenodd" d="M13.1313 1.88128C13.473 1.53957 14.027 1.53957 14.3687 1.88128L18.1187 5.63128C18.2828 5.79538 18.375 6.01794 18.375 6.25C18.375 6.48206 18.2828 6.70462 18.1187 6.86872L14.3687 10.6187C14.027 10.9604 13.473 10.9604 13.1313 10.6187C12.7896 10.277 12.7896 9.72299 13.1313 9.38128L15.3876 7.125L6.25 7.125C5.76675 7.125 5.375 6.73325 5.375 6.25C5.375 5.76675 5.76675 5.375 6.25 5.375L15.3876 5.375L13.1313 3.11872C12.7896 2.77701 12.7896 2.22299 13.1313 1.88128ZM6.86872 9.38128C7.21043 9.72299 7.21043 10.277 6.86872 10.6187L4.61244 12.875H13.75C14.2332 12.875 14.625 13.2668 14.625 13.75C14.625 14.2332 14.2332 14.625 13.75 14.625H4.61244L6.86872 16.8813C7.21043 17.223 7.21043 17.777 6.86872 18.1187C6.52701 18.4604 5.97299 18.4604 5.63128 18.1187L1.88128 14.3687C1.53957 14.027 1.53957 13.473 1.88128 13.1313L5.63128 9.38128C5.97299 9.03957 6.52701 9.03957 6.86872 9.38128Z" fill="#47A1B3"/>
</svg>
