<svg width="90" height="14" viewBox="0 0 90 14" fill="none" xmlns="http://www.w3.org/2000/svg">
<path d="M7.84172 6.75592C7.21286 4.6904 4.68004 4.23526 2.72917 4.89886C1.71981 5.23296 0.808599 5.8112 0.0764871 6.5822C0.0435006 6.61789 0.0200677 6.66133 0.00836472 6.7085C-0.00333825 6.75566 -0.00293166 6.80502 0.00954671 6.85199C0.0220251 6.89896 0.0461705 6.94201 0.0797404 6.97715C0.11331 7.01228 0.155216 7.03837 0.201565 7.05298C2.142 7.6332 2.31399 10.0566 4.83986 10.3536C5.32796 10.4118 5.82275 10.3385 6.27297 10.1412C6.72319 9.94386 7.11247 9.62976 7.40047 9.23141C7.58666 8.9803 7.73043 8.70038 7.82609 8.40277C7.99831 7.86813 8.00376 7.29373 7.84172 6.75592Z" fill="#158D0C"/>
<path d="M11.8563 0.173696C8.97956 0.833827 7.6037 3.72277 8.53484 5.45649C8.73978 5.83376 9.02075 6.16442 9.36 6.42757C9.56617 6.59117 9.79275 6.72723 10.034 6.83234C10.6042 7.08417 11.2387 7.15174 11.8491 7.02562C12.4595 6.89949 13.0153 6.58596 13.4389 6.12878C14.9086 4.59831 14.3336 2.73431 16.5433 1.09093C16.5849 1.06103 16.6177 1.02044 16.6383 0.973442C16.6588 0.926445 16.6662 0.874785 16.6598 0.823909C16.6534 0.773034 16.6334 0.72483 16.6019 0.684382C16.5704 0.643934 16.5285 0.612742 16.4807 0.594095C15.1275 0.0850991 13.4354 -0.201537 11.8563 0.173696Z" fill="#158D0C"/>
<path d="M9.16891 13.7446C9.00875 13.7456 8.85297 13.6924 8.72684 13.5937C8.60071 13.495 8.51162 13.3566 8.47403 13.2009C7.9911 11.1684 6.88624 8.95519 6.10451 9.00557C6.0096 9.01648 5.91346 9.00814 5.82185 8.98104C5.73024 8.95394 5.64503 8.90865 5.57133 8.84786C5.49762 8.78708 5.43693 8.71206 5.39289 8.62728C5.34884 8.54251 5.32234 8.44972 5.31498 8.35447C5.30762 8.25922 5.31954 8.16346 5.35003 8.07292C5.38053 7.98238 5.42897 7.89892 5.49245 7.82754C5.55594 7.75615 5.63318 7.6983 5.71953 7.65744C5.80589 7.61659 5.89961 7.59357 5.99506 7.58976C7.10339 7.49769 7.9633 8.41666 8.58869 9.51804C8.78325 7.85034 9.20713 5.90643 10.133 4.40028C10.2314 4.23903 10.3898 4.12345 10.5734 4.07898C10.757 4.03451 10.9507 4.06479 11.112 4.16316C11.2732 4.26152 11.3888 4.41992 11.4333 4.6035C11.4777 4.78708 11.4474 4.98081 11.3491 5.14206C9.60668 7.99105 9.87421 12.942 9.87768 12.9924C9.88236 13.0888 9.86755 13.1851 9.83414 13.2756C9.80073 13.3662 9.74941 13.449 9.68324 13.5192C9.61707 13.5895 9.53742 13.6456 9.44904 13.6843C9.36067 13.7231 9.26539 13.7436 9.16891 13.7446Z" fill="#158D0C"/>
<path d="M19.4756 13.7481V1.84662H23.7491C24.661 1.82472 25.568 1.98721 26.4157 2.32435C27.1116 2.59793 27.712 3.06965 28.1424 3.68109C28.5493 4.30581 28.7565 5.03954 28.7365 5.78482C28.7332 6.21857 28.6496 6.64795 28.4899 7.05123C28.3333 7.46036 28.1128 7.84208 27.8367 8.18214C27.5588 8.52622 27.2238 8.82002 26.8465 9.05074L29.4523 13.7411H25.9292L24.0843 9.9367C23.928 9.94713 23.7717 9.95234 23.6153 9.95234C23.2951 9.94982 22.9756 9.92194 22.6599 9.86895V13.7481H19.4756ZM22.6599 4.51668V7.22669C22.8504 7.27041 23.0437 7.30117 23.2383 7.31876C23.4225 7.33613 23.6327 7.34482 23.8672 7.34482C24.2925 7.36732 24.7109 7.22973 25.0398 6.95916C25.187 6.82336 25.3025 6.65671 25.3779 6.47113C25.4532 6.28554 25.4867 6.0856 25.4758 5.88558C25.4852 5.69232 25.4483 5.49961 25.3683 5.32346C25.2882 5.14731 25.1673 4.99281 25.0155 4.8728C24.7074 4.63538 24.2801 4.51668 23.7334 4.51668H22.6599Z" fill="#158D0C"/>
<path d="M34.2765 13.9999C33.6343 14.0086 32.9968 13.8905 32.4003 13.6525C31.8454 13.428 31.3427 13.0915 30.9237 12.664C30.5034 12.2286 30.1755 11.7128 29.9596 11.1475C29.7243 10.529 29.6065 9.87214 29.6121 9.21049C29.6083 8.57102 29.7262 7.93665 29.9596 7.34128C30.1805 6.77905 30.5112 6.26646 30.9324 5.8334C31.349 5.40445 31.8484 5.06462 32.4003 4.83452C32.9795 4.59745 33.6004 4.47929 34.2261 4.48708C34.8798 4.47476 35.5295 4.59287 36.137 4.83452C36.6876 5.05992 37.1822 5.40325 37.5858 5.84035C37.9991 6.29294 38.3159 6.82489 38.517 7.40382C38.7429 8.06444 38.8534 8.75905 38.8435 9.45717V10.027H32.819C32.8868 10.4387 33.0796 10.8196 33.3714 11.1179C33.6441 11.3708 34.0055 11.5062 34.3772 11.4949C34.6611 11.4991 34.9413 11.4304 35.191 11.2953C35.4407 11.1603 35.6516 10.9634 35.8035 10.7236L38.6698 11.3611C38.4499 11.8915 38.1146 12.3662 37.6883 12.7509C37.2432 13.1504 36.7253 13.4606 36.1631 13.6646C35.5592 13.8881 34.9203 14.0016 34.2765 13.9999ZM34.2261 6.70373C34.0529 6.69806 33.8804 6.72779 33.7191 6.79112C33.5578 6.85445 33.4111 6.95003 33.288 7.07201C33.0162 7.37104 32.8412 7.74528 32.786 8.1456H35.602C35.5556 7.74913 35.3923 7.37541 35.1329 7.07201C35.0153 6.95065 34.8735 6.85543 34.7167 6.79257C34.5598 6.72971 34.3915 6.70062 34.2226 6.70721L34.2261 6.70373Z" fill="#158D0C"/>
<path d="M41.8872 13.7481L38.9131 4.72858H42.1495L43.3655 10.1938L44.8404 4.72858H47.507L49.0131 10.2494L50.2865 4.73379H53.4047L50.4376 13.7481H47.5869L46.1467 8.35061L44.6875 13.7481H41.8872Z" fill="#158D0C"/>
<path d="M57.3099 2.39904C57.3133 2.68756 57.2382 2.97159 57.0927 3.22073C56.948 3.46535 56.7389 3.66547 56.4882 3.79921C56.2255 3.94012 55.9315 4.01242 55.6335 4.00941C55.3381 4.01309 55.0468 3.9407 54.7875 3.79921C54.5435 3.66238 54.3407 3.46261 54.2003 3.22073C54.0548 2.97159 53.9797 2.68756 53.9831 2.39904C53.98 2.11055 54.055 1.82659 54.2003 1.57735C54.3436 1.33471 54.5494 1.13494 54.7961 0.998866C55.0556 0.85791 55.3469 0.786118 55.6422 0.790403C55.9401 0.786786 56.2341 0.858492 56.4969 0.998866C56.7472 1.13319 56.9562 1.33318 57.1014 1.57735C57.2437 1.82746 57.3157 2.11136 57.3099 2.39904ZM54.0752 13.7481V4.72861H57.2021V13.7481H54.0752Z" fill="#158D0C"/>
<path d="M58.5433 13.7481V1.17603H61.6703V13.7481H58.5433Z" fill="#158D0C"/>
<path d="M66.7481 13.9999C66.2056 14.0049 65.6698 13.8811 65.1846 13.6386C64.703 13.3943 64.2758 13.0551 63.9286 12.6415C63.5556 12.2015 63.2686 11.6952 63.0826 11.1492C62.8772 10.5566 62.7749 9.93322 62.7803 9.30607C62.7736 8.6554 62.8812 8.00861 63.0982 7.39516C63.2962 6.83274 63.5979 6.31243 63.9877 5.86122C64.3576 5.43603 64.8104 5.09081 65.3183 4.8467C65.8333 4.59998 66.3977 4.47402 66.9687 4.47842C67.4399 4.47099 67.9068 4.5683 68.3358 4.76332C68.7401 4.95068 69.0934 5.2325 69.366 5.58501V1.17603H72.5016V13.7481H69.6005L69.5171 12.4747C69.2259 12.945 68.8185 13.3324 68.3341 13.5996C67.8497 13.8667 67.3047 14.0046 66.7515 13.9999H66.7481ZM67.6861 11.1492C67.994 11.1532 68.2961 11.0662 68.5547 10.8991C68.815 10.7265 69.0234 10.4863 69.1575 10.2042C69.3017 9.89431 69.3764 9.55665 69.3764 9.21486C69.3764 8.87308 69.3017 8.53542 69.1575 8.22553C69.0241 7.94303 68.8156 7.70265 68.5547 7.53066C68.2966 7.36239 67.9942 7.2747 67.6861 7.27877C67.3748 7.27503 67.0692 7.3626 66.8071 7.53066C66.541 7.70152 66.3266 7.94178 66.1869 8.22553C66.0368 8.53371 65.9587 8.87204 65.9587 9.21486C65.9587 9.55769 66.0368 9.89602 66.1869 10.2042C66.3276 10.4873 66.5418 10.7273 66.8071 10.8991C67.0697 11.0659 67.3751 11.1528 67.6861 11.1492Z" fill="#158D0C"/>
<path d="M78.2482 14C77.6055 14.0088 76.9673 13.8908 76.3703 13.6525C75.8159 13.4281 75.3138 13.0916 74.8955 12.6641C74.4752 12.2287 74.1472 11.7128 73.9313 11.1475C73.6952 10.5293 73.5773 9.87226 73.5839 9.21054C73.5791 8.57099 73.6971 7.93646 73.9313 7.34133C74.1515 6.77869 74.4823 6.26595 74.9041 5.83345C75.3198 5.40417 75.8187 5.06427 76.3703 4.83456C76.9501 4.59749 77.5716 4.47934 78.1979 4.48712C78.8487 4.47587 79.4952 4.59396 80.1001 4.83456C80.6512 5.05994 81.1463 5.40326 81.5506 5.84039C81.9629 6.29337 82.2791 6.82524 82.48 7.40386C82.7075 8.06415 82.8186 8.75892 82.8083 9.45722V10.027H76.7838C76.8528 10.4398 77.0483 10.821 77.3432 11.118C77.614 11.3736 77.975 11.5117 78.3472 11.5019C78.6308 11.506 78.9107 11.4372 79.1602 11.3021C79.4096 11.1671 79.6201 10.9703 79.7717 10.7306L82.6381 11.3681C82.4182 11.8981 82.0835 12.3727 81.6583 12.7579C81.2126 13.1575 80.6942 13.4677 80.1313 13.6716C79.5282 13.8925 78.8905 14.0037 78.2482 14ZM78.1979 6.70378C78.0244 6.69817 77.8516 6.72793 77.6901 6.79125C77.5285 6.85456 77.3815 6.95011 77.258 7.07206C76.9869 7.37151 76.8119 7.74555 76.756 8.14564H79.572C79.5264 7.74895 79.363 7.37501 79.1029 7.07206C78.9861 6.95118 78.8451 6.85624 78.6892 6.79339C78.5333 6.73054 78.3659 6.70119 78.1979 6.70725V6.70378Z" fill="#158D0C"/>
<path d="M83.8125 13.7481V4.72857H86.7136L86.8144 6.18781C86.9988 5.72385 87.3056 5.3186 87.7021 5.0152C88.0772 4.74445 88.5303 4.603 88.9928 4.61218C89.2578 4.60695 89.5208 4.65848 89.7641 4.76331L89.4636 7.89025C89.2144 7.81038 88.954 7.77109 88.6923 7.77386C87.5284 7.77386 86.9493 8.38303 86.9551 9.60138V13.7481H83.8125Z" fill="#158D0C"/>
</svg>
