<svg width="29" height="24" viewBox="0 0 29 24" fill="none" xmlns="http://www.w3.org/2000/svg">
<path d="M13.6484 11.7948C12.5539 8.18751 8.14565 7.39262 4.75024 8.55157C2.99349 9.13506 1.40755 10.1449 0.133336 11.4914C0.0759238 11.5538 0.0351396 11.6296 0.014771 11.712C-0.00559764 11.7944 -0.00489 11.8806 0.0168282 11.9626C0.0385463 12.0446 0.0805706 12.1198 0.138998 12.1812C0.197425 12.2425 0.27036 12.2881 0.351029 12.3136C3.7283 13.3269 4.02762 17.5592 8.42382 18.078C9.27334 18.1797 10.1345 18.0516 10.9181 17.707C11.7017 17.3624 12.3792 16.8138 12.8805 16.1181C13.2045 15.6796 13.4548 15.1907 13.6212 14.671C13.921 13.7372 13.9305 12.7341 13.6484 11.7948Z" fill="#349246"/>
<path d="M20.6359 0.299193C15.6289 1.45208 13.2343 6.49746 14.8549 9.5253C15.2116 10.1842 15.7006 10.7617 16.2911 11.2212C16.6499 11.507 17.0442 11.7446 17.4642 11.9281C18.4565 12.368 19.5609 12.486 20.6233 12.2657C21.6856 12.0454 22.653 11.4979 23.3903 10.6994C25.9482 8.02655 24.9474 4.77117 28.7933 1.90109C28.8658 1.84887 28.9229 1.77798 28.9586 1.69591C28.9943 1.61383 29.0073 1.52361 28.9961 1.43476C28.985 1.3459 28.9501 1.26172 28.8953 1.19108C28.8404 1.12044 28.7676 1.06596 28.6845 1.0334C26.3291 0.144464 23.3842 -0.356131 20.6359 0.299193Z" fill="#349246"/>
<path d="M15.9583 24C15.6795 24.0016 15.4084 23.9087 15.1889 23.7364C14.9693 23.564 14.8143 23.3223 14.7489 23.0504C13.9083 19.5007 11.9854 15.6355 10.6248 15.7235C10.4596 15.7425 10.2923 15.728 10.1328 15.6806C9.97339 15.6333 9.82509 15.5542 9.69681 15.4481C9.56853 15.3419 9.4629 15.2109 9.38624 15.0628C9.30958 14.9148 9.26346 14.7527 9.25065 14.5864C9.23783 14.42 9.25858 14.2528 9.31166 14.0947C9.36473 13.9365 9.44904 13.7908 9.55954 13.6661C9.67003 13.5414 9.80446 13.4404 9.95476 13.3691C10.1051 13.2977 10.2682 13.2575 10.4343 13.2508C12.3633 13.0901 13.86 14.695 14.9484 16.6185C15.2871 13.7059 16.0248 10.311 17.6363 7.6806C17.8075 7.39898 18.0832 7.19713 18.4027 7.11947C18.7222 7.0418 19.0594 7.09468 19.3401 7.26647C19.6207 7.43826 19.8219 7.71489 19.8993 8.03551C19.9767 8.35612 19.924 8.69445 19.7528 8.97608C16.7202 13.9517 17.1858 22.5983 17.1919 22.6863C17.2 22.8546 17.1742 23.0228 17.1161 23.1809C17.0579 23.339 16.9686 23.4837 16.8534 23.6063C16.7383 23.729 16.5996 23.8271 16.4458 23.8947C16.292 23.9623 16.1262 23.9981 15.9583 24Z" fill="#349246"/>
</svg>
