<svg xmlns="http://www.w3.org/2000/svg" viewBox="0 0 304.19 304.19"><defs><style>.cls-1,.cls-2{fill:none;stroke:#98938f;stroke-linejoin:round;stroke-width:4.5px;}.cls-1{stroke-linecap:round;}.cls-2{stroke-dasharray:9.01 11.02;}.cls-3{fill:#98938f;}</style></defs><g id="Layer_2" data-name="Layer 2"><g id="Layer_1-2" data-name="Layer 1"><circle class="cls-1" cx="152.09" cy="152.09" r="133.08"/><circle class="cls-2" cx="152.09" cy="152.09" r="149.84"/><path class="cls-3" d="M99,79A10,10,0,0,1,96,80.33a9.77,9.77,0,0,1-3,.34A9.54,9.54,0,0,1,90.08,80a10.12,10.12,0,0,1-2.67-1.57A11.33,11.33,0,0,1,85.19,76a11.6,11.6,0,0,1-1.44-3,10.69,10.69,0,0,1-.45-3.14,10,10,0,0,1,.52-3,9.48,9.48,0,0,1,1.46-2.71,10.11,10.11,0,0,1,5.06-3.44,9,9,0,0,1,2.8-.38,8.26,8.26,0,0,1,2.69.54,8.54,8.54,0,0,1,2.42,1.46L95,65.69a4.82,4.82,0,0,0-2.55-.83A4.18,4.18,0,0,0,90,65.6,4.13,4.13,0,0,0,88.63,67a4.7,4.7,0,0,0-.59,1.9,5.75,5.75,0,0,0,.2,2.12,7.48,7.48,0,0,0,1,2.17A7.33,7.33,0,0,0,90.84,75a5.57,5.57,0,0,0,1.86,1,4.57,4.57,0,0,0,3.83-.6,4.4,4.4,0,0,0,1.68-2,5.08,5.08,0,0,0,.27-2.72l4.44-1.71a8.17,8.17,0,0,1,.31,3.75,8.73,8.73,0,0,1-1.38,3.47A10.18,10.18,0,0,1,99,79Z"/><path class="cls-3" d="M114.28,70.22l-2.7-6.95L101,54.58l5-1.94,6.28,5.62.85-8.39L118,48l-2,13.56,2.7,7Z"/><path class="cls-3" d="M129,65.23l-3.2-19.11L132.25,45a10.18,10.18,0,0,1,4.29.08,5.86,5.86,0,0,1,3,1.82,6.78,6.78,0,0,1,1.52,3.43,6.49,6.49,0,0,1-.11,2.75,6.13,6.13,0,0,1-1.21,2.35,7.08,7.08,0,0,1-2.19,1.75,10.06,10.06,0,0,1-3,1,13.43,13.43,0,0,1-2,.16l1,6.08Zm2.06-16,.88,5.25a12.69,12.69,0,0,0,1.74-.15,3.62,3.62,0,0,0,2.22-1.08,2.49,2.49,0,0,0,.48-2.14,2.54,2.54,0,0,0-1.13-1.86,3.45,3.45,0,0,0-2.42-.32Z"/><path class="cls-3" d="M147.71,62.61l.53-19.38,6.58.18a10.78,10.78,0,0,1,4.21.88,6.05,6.05,0,0,1,2.67,2.27,5.94,5.94,0,0,1,.86,3.42,5.81,5.81,0,0,1-.45,2.1A6.86,6.86,0,0,1,161,53.9a6.61,6.61,0,0,1-1.7,1.37L163.32,63l-5.18-.14-3-6.47h-.9a10.35,10.35,0,0,1-1.66-.18l-.18,6.49Zm5.09-15.29-.14,5c.31.06.62.11.93.14a9.82,9.82,0,0,0,1,.07,3.44,3.44,0,0,0,2.32-.63,2.36,2.36,0,0,0,.89-1.9,2.26,2.26,0,0,0-.8-1.92,3.68,3.68,0,0,0-2.35-.73Z"/><path class="cls-3" d="M167.48,63.75l4.19-18.93,12.24,2.71-.86,3.86-7.7-1.7-.77,3.46,6.8,1.51-.86,3.86L173.73,57l-.86,3.86,8,1.77L180,66.51Z"/><path class="cls-3" d="M190.61,71a8.58,8.58,0,0,1-2.84-1.92,6.91,6.91,0,0,1-1.64-2.69A6.53,6.53,0,0,1,186,63.2l4.38.93a2.94,2.94,0,0,0,1.89,3.15,2.91,2.91,0,0,0,1.87.22,1.64,1.64,0,0,0,1.19-1,1.51,1.51,0,0,0-.12-1.42,6.33,6.33,0,0,0-1.74-1.66l-.61-.44a8.11,8.11,0,0,1-3.14-3.69,5.07,5.07,0,0,1,.14-3.86,5.65,5.65,0,0,1,1.47-2.09,6.13,6.13,0,0,1,2.13-1.23,6.88,6.88,0,0,1,2.55-.31,7.91,7.91,0,0,1,2.72.66,7.53,7.53,0,0,1,2.66,1.82,6.33,6.33,0,0,1,1.48,2.58,6.54,6.54,0,0,1,.12,3.06L198.63,59a3.13,3.13,0,0,0-.33-1.79A2.77,2.77,0,0,0,195.39,56a1.53,1.53,0,0,0-1.08.93,1.31,1.31,0,0,0,0,1,2.67,2.67,0,0,0,.7.95,12.71,12.71,0,0,0,1.19,1l.59.43A8.93,8.93,0,0,1,200,64a5,5,0,0,1-.12,4,6,6,0,0,1-3.73,3.44,6.78,6.78,0,0,1-2.64.31A8.77,8.77,0,0,1,190.61,71Z"/><path class="cls-3" d="M206.43,79.6A8.42,8.42,0,0,1,204,77.19a6.69,6.69,0,0,1-1.1-3,6.44,6.44,0,0,1,.42-3.16l4.13,1.74a2.92,2.92,0,0,0,1.25,3.45,2.91,2.91,0,0,0,1.79.57,1.68,1.68,0,0,0,1.37-.74,1.54,1.54,0,0,0,.15-1.42,6.35,6.35,0,0,0-1.4-2l-.51-.55A8.16,8.16,0,0,1,207.72,68a5.11,5.11,0,0,1,.86-3.76,5.66,5.66,0,0,1,1.85-1.77,6,6,0,0,1,2.32-.81,6.86,6.86,0,0,1,2.57.18A8,8,0,0,1,217.86,63a7.72,7.72,0,0,1,2.27,2.29,6.27,6.27,0,0,1,.5,5.84l-4.06-1.69a3.21,3.21,0,0,0,0-1.82,2.55,2.55,0,0,0-1-1.31,2.58,2.58,0,0,0-1.58-.48,1.56,1.56,0,0,0-1.24.71,1.28,1.28,0,0,0-.24,1,2.58,2.58,0,0,0,.51,1.08,13.22,13.22,0,0,0,1,1.17l.5.54a9,9,0,0,1,2.45,4.22,5,5,0,0,1-.87,3.86,6.11,6.11,0,0,1-1.91,1.85,6,6,0,0,1-2.4.82,6.84,6.84,0,0,1-2.65-.19A8.5,8.5,0,0,1,206.43,79.6Z"/><path class="cls-3" d="M188.54,232.92l2.94,3.74a16.82,16.82,0,0,0,3.71-4.36L191,230A12.51,12.51,0,0,1,188.54,232.92Z"/><path class="cls-3" d="M192.78,223.65c0,.11,0,.21,0,.32l4.75.33c0-.22,0-.44,0-.65a17,17,0,0,0-6.07-13l-.39-.32.29-.41a17.08,17.08,0,0,0-2.9-22.56l-.3-.26.16-.37A17.1,17.1,0,0,0,181,165.3l-.42-.24.18-.45A17.13,17.13,0,0,0,174.3,144l-.42-.27.23-.44a17.07,17.07,0,0,0-5-21.74l-.28-.2.06-.34a17,17,0,0,0-3.9-13.93l-.23-.27.15-.32a14.1,14.1,0,1,0-25.63,0l.14.33-.23.26A17,17,0,0,0,135.3,121l.06.34-.28.2a16.9,16.9,0,0,0-6.67,10.55,17.1,17.1,0,0,0,1.66,11.18l.24.44-.42.28a16.58,16.58,0,0,0-5.25,5.51l4.18,2.29a12.08,12.08,0,0,1,5.88-5l3-1.21-2.08-2.51a12.3,12.3,0,0,1,3.57-18.57l1.7-.93-.57-1.85A12.3,12.3,0,0,1,144,109l1.57-1.39-1.18-1.74a9.34,9.34,0,1,1,15.45,0l-1.19,1.74,1.58,1.39a12.27,12.27,0,0,1,3.62,12.77l-.56,1.85,1.7.93a12.3,12.3,0,0,1,3.57,18.57l-2.08,2.51,3,1.21a12.33,12.33,0,0,1,5.71,18.12l-1.71,2.59,2.95,1a12.3,12.3,0,0,1,6.63,18l-1.23,2,2,1.25a12.31,12.31,0,0,1,2,19.26l-2.35,2.25,2.86,1.55A12.29,12.29,0,0,1,192.78,223.65Z"/><rect class="cls-3" x="159.02" y="132.34" width="4.76" height="4.76"/><rect class="cls-3" x="164.3" y="154.34" width="4.76" height="4.76"/><path class="cls-3" d="M183.85,240.35l-1.09-4.63a12.38,12.38,0,0,1-5-.1l-2.64-.59-.25,2.69A12.27,12.27,0,0,1,153.82,245l-1.73-1.81L150.37,245a12.27,12.27,0,0,1-21.09-7.29L129,235l-2.63.59a12.27,12.27,0,0,1-8.56-22.76l2.85-1.55-2.34-2.25a12.29,12.29,0,0,1,2-19.26l2-1.25-1.23-2a12.3,12.3,0,0,1,6.63-18l2.94-1-1.7-2.59a12.09,12.09,0,0,1-2-7.45l-4.73-.51a17.08,17.08,0,0,0,1.19,7.64l.18.45-.42.24a17.11,17.11,0,0,0-7.38,21.4l.16.36-.31.26a17.09,17.09,0,0,0-2.89,22.56l.29.41-.39.32a17,17,0,0,0,11.79,30l.44,0,.12.43a17,17,0,0,0,13.43,12.24l.49.09-1,17.91a9.34,9.34,0,0,1-8.79,9.3l3.43,3.56,7.35-4.5a14,14,0,0,0,2.77-8.3l1-17.94.44-.07a16.88,16.88,0,0,0,7.57-3.23l.33-.25.34.25a16.84,16.84,0,0,0,7.57,3.23l.44.07,1,17.92a14,14,0,0,0,2.79,8.35l6.78,5.69,4-4.78a9.35,9.35,0,0,1-8.79-9.32l-1-17.9.48-.08a17,17,0,0,0,13.44-12.24l.12-.43.44,0A16.27,16.27,0,0,0,183.85,240.35Z"/></g></g></svg>