<svg xmlns="http://www.w3.org/2000/svg" viewBox="0 0 304.19 304.19"><defs><style>.cls-1,.cls-2{fill:none;stroke:#98938f;stroke-linejoin:round;stroke-width:4.5px;}.cls-1{stroke-linecap:round;}.cls-2{stroke-dasharray:9.01 11.02;}.cls-3{fill:#98938f;}</style></defs><g id="Layer_2" data-name="Layer 2"><g id="Layer_1-2" data-name="Layer 1"><circle class="cls-1" cx="152.09" cy="152.09" r="133.08"/><circle class="cls-2" cx="152.09" cy="152.09" r="149.84"/><path class="cls-3" d="M94.31,82.19a8.54,8.54,0,0,1-3.07,1.51,6.9,6.9,0,0,1-3.16.07,6.43,6.43,0,0,1-2.84-1.43l3-3.33a3.13,3.13,0,0,0,1.86.61A3.09,3.09,0,0,0,91.9,79,2.93,2.93,0,0,0,93,77.44a1.66,1.66,0,0,0-.26-1.53,1.49,1.49,0,0,0-1.29-.6,6.3,6.3,0,0,0-2.31.67l-.69.31a8.22,8.22,0,0,1-4.77.88,5.1,5.1,0,0,1-3.27-2,5.78,5.78,0,0,1-1.07-2.31,6,6,0,0,1,0-2.46,6.8,6.8,0,0,1,1-2.37,8,8,0,0,1,1.93-2,7.82,7.82,0,0,1,2.91-1.4,6.34,6.34,0,0,1,3,0A6.48,6.48,0,0,1,90.89,66L88,69.28a3.16,3.16,0,0,0-1.71-.61,2.43,2.43,0,0,0-1.57.55,2.51,2.51,0,0,0-1,1.34A1.59,1.59,0,0,0,84,72a1.32,1.32,0,0,0,.88.56A2.68,2.68,0,0,0,86,72.38c.44-.14.92-.32,1.43-.54l.67-.3a9,9,0,0,1,4.79-.93,5,5,0,0,1,3.37,2.08,6,6,0,0,1,1.12,5,6.82,6.82,0,0,1-1.06,2.44A8.64,8.64,0,0,1,94.31,82.19Z"/><path class="cls-3" d="M103.86,75.19,95.4,57.76l11.27-5.47,1.73,3.56-7.1,3.44,1.55,3.19,6.26-3L110.84,63l-6.26,3,1.73,3.56L113.65,66l1.73,3.56Z"/><path class="cls-3" d="M129.09,66a10.21,10.21,0,0,1-3.19.26,10,10,0,0,1-3-.73,9.87,9.87,0,0,1-2.62-1.62,10.16,10.16,0,0,1-2-2.42,10.52,10.52,0,0,1-1.26-3.1,10.88,10.88,0,0,1-.28-3.34,9.85,9.85,0,0,1,.74-3.09,9.7,9.7,0,0,1,1.63-2.64,9.93,9.93,0,0,1,2.42-2,10.52,10.52,0,0,1,3.1-1.26,10.84,10.84,0,0,1,3.33-.28,10,10,0,0,1,3.06.73,10.37,10.37,0,0,1,2.63,1.59,9.79,9.79,0,0,1,2,2.36,10.31,10.31,0,0,1,1.21,3,10,10,0,0,1,.18,3.91,10.91,10.91,0,0,1-1.2,3.57l2.76,2.15-2.43,3.13L133.26,64a10.81,10.81,0,0,1-1.93,1.25A10.1,10.1,0,0,1,129.09,66Zm-.74-4.31a5.79,5.79,0,0,0,1.41-.53l-3.68-2.86,2.34-3,3.68,2.86a5.25,5.25,0,0,0,.23-1.56,7.47,7.47,0,0,0-1.14-4A5.81,5.81,0,0,0,129.68,51a5.06,5.06,0,0,0-1.93-.81,5.42,5.42,0,0,0-4.15,1,5.06,5.06,0,0,0-1.36,1.59,5.64,5.64,0,0,0-.64,2.06,7.23,7.23,0,0,0,1.08,4.57A6,6,0,0,0,124.19,61a5,5,0,0,0,1.93.8A5.45,5.45,0,0,0,128.35,61.71Z"/><path class="cls-3" d="M152.29,63.31a9.72,9.72,0,0,1-3.52-.66,7.67,7.67,0,0,1-2.68-1.76,7.54,7.54,0,0,1-1.69-2.71,9.86,9.86,0,0,1-.55-3.52L144,43.25l4.75.07-.17,11.2a5.12,5.12,0,0,0,.44,2.32,3.61,3.61,0,0,0,1.31,1.54,3.88,3.88,0,0,0,2.06.56,3.75,3.75,0,0,0,2.07-.5A3.58,3.58,0,0,0,155.85,57a5.33,5.33,0,0,0,.51-2.32l.17-11.19,4.75.08-.17,11.41a9.64,9.64,0,0,1-.67,3.49,7.75,7.75,0,0,1-1.79,2.67,7.67,7.67,0,0,1-2.77,1.67A10,10,0,0,1,152.29,63.31Z"/><path class="cls-3" d="M175.45,66.11a10.81,10.81,0,0,1-3.1-1.27,9.71,9.71,0,0,1-4-4.67,9.68,9.68,0,0,1-.71-3.08,11.35,11.35,0,0,1,1.58-6.43,9.44,9.44,0,0,1,2.05-2.42,9.62,9.62,0,0,1,2.66-1.6,10.11,10.11,0,0,1,3.08-.71,11.19,11.19,0,0,1,6.44,1.57,9.65,9.65,0,0,1,2.4,2,9.86,9.86,0,0,1,1.6,2.64,9.68,9.68,0,0,1,.71,3.08,11.35,11.35,0,0,1-1.58,6.43,9.44,9.44,0,0,1-2.05,2.42,9.62,9.62,0,0,1-2.66,1.6,10.11,10.11,0,0,1-3.08.71A10.74,10.74,0,0,1,175.45,66.11Zm1.06-4.24a5.15,5.15,0,0,0,2.17.08,4.8,4.8,0,0,0,1.94-.79,5.72,5.72,0,0,0,1.52-1.54,6.63,6.63,0,0,0,.94-2.18,6.74,6.74,0,0,0,.17-2.38,5.45,5.45,0,0,0-.63-2.06,4.83,4.83,0,0,0-1.35-1.6,5.39,5.39,0,0,0-4.14-1,4.82,4.82,0,0,0-1.93.79,5.72,5.72,0,0,0-1.52,1.54,6.63,6.63,0,0,0-.94,2.18,7,7,0,0,0-.18,2.38,5.64,5.64,0,0,0,.64,2.06,4.83,4.83,0,0,0,1.35,1.6A5.15,5.15,0,0,0,176.51,61.87Z"/><path class="cls-3" d="M190.06,70.33,198,52.65l4.34,2-8,17.68Z"/><path class="cls-3" d="M198.5,73.79l17.3-11.64L220,65l-4.64,20.32-4-2.78,1-3.88-6.59-4.53-3.26,2.34Zm10.63-2.11,4.21,2.89,1.88-7.29Z"/><rect class="cls-3" x="165.32" y="250.58" width="4.76" height="4.76" transform="translate(-14.88 10.52) rotate(-3.44)"/><rect class="cls-3" x="167.7" y="110.4" width="4.76" height="4.76"/><rect class="cls-3" x="211.17" y="135.5" width="4.76" height="4.76"/><path class="cls-3" d="M204.37,173.86c2.35-2.48,3.86-6.11,4.74-11.42l.07-.42.43,0c5.2-.44,9.7-2.22,12.35-4.91l.17-.16h5a11.69,11.69,0,0,0,2-23.21l-.29-.06-.12-.27a19,19,0,0,0-8.1-8.89,28.89,28.89,0,0,0-13.41-3.64H207a31.4,31.4,0,0,0-8.43,1.45l-.79.25.07-.82a11.07,11.07,0,0,0,.06-1.15,13.24,13.24,0,0,0-10.64-13l-.36-.07-.08-.36A13.23,13.23,0,0,0,172.7,96.6l-.32,0-.18-.27a24,24,0,0,0-39.9,0l-.18.28-.33,0a13.23,13.23,0,0,0-14.15,10.59l-.07.36-.36.07a13.21,13.21,0,0,0,2.56,26.16H133l.15.12a26.07,26.07,0,0,0,7.78,4.13l.39.13-3.9,64.58-20.53-5.46c-6.7-1.69-10-2.91-11.64-11.84l-.11-.57.58-.07c4.56-.54,8.38-2.15,10.77-4.53l.16-.16h4.63a11.16,11.16,0,0,0,10.36-15.34l-.09-.21.09-.21A10.83,10.83,0,0,0,128.83,152a11,11,0,0,0-12.12-2.1l-.28.13-.25-.17a26.63,26.63,0,0,0-13.73-4.07h-.17a29.44,29.44,0,0,0-9,1.73L95,152a24.41,24.41,0,0,1,7.36-1.4,21.46,21.46,0,0,1,12.44,4.17l1.37,1.12,1.47-1a6.24,6.24,0,0,1,8,.65,6.13,6.13,0,0,1,1.19,7.85l-.69,1.19.69,1.2a6.4,6.4,0,0,1-5.55,9.6h-6.94l-.71,1c-1.39,1.88-5.48,3.91-11.22,3.91s-9.82-2-11.21-3.91l-.71-1H83.5a6.41,6.41,0,0,1,0-12.82h1.77l.51-1.69a12.2,12.2,0,0,1,3.8-5.78l-3-3.72a17.12,17.12,0,0,0-4.71,6.29l-.11.27-.29,0a11.17,11.17,0,0,0,2,22.16h4.63l.16.16c2.51,2.5,6.72,4.18,11.57,4.61l.42,0,.07.42c.89,5.31,2.4,8.94,4.75,11.43,2.82,3,6.59,4.13,10.54,5.13l21.43,5.7-3.8,62.79c-.31,5.16-4,9.1-8.66,9.46l.75,3.27,1.83.12,7.93-4.34a15.4,15.4,0,0,0,2.9-8.22L146,139.32l.6.09a37.3,37.3,0,0,0,11.36,0l.59-.09,0,.6,6.29,103.85,4.75-.29L166,183.82,193.81,179C197.76,178,201.55,176.85,204.37,173.86Zm2.71-48.25c7.08.28,15.42,3.32,17.74,11l.51,1.69h1.77a6.94,6.94,0,0,1,0,13.87h-7.29l-.71,1c-1.48,2-5.87,4.2-12,4.2s-10.51-2.17-12-4.2l-.71-1h-7.29a6.92,6.92,0,0,1-6-10.39l.69-1.19-.69-1.2a6.61,6.61,0,0,1,1.29-8.49,7.14,7.14,0,0,1,4.79-1.95,6.71,6.71,0,0,1,3.83,1.24l1.46,1,1.38-1.11A22.52,22.52,0,0,1,207.08,125.61Zm-54.83,9.47c-6.68,0-13-2-16.85-5.46l-.67-.6h-15a8.45,8.45,0,0,1,0-16.89h2.38v-2.38a8.47,8.47,0,0,1,10.56-8.18l1.78.46.89-1.61a19.28,19.28,0,0,1,33.73,0L170,102l1.79-.46a8.45,8.45,0,0,1,10.55,8.18v2.38h2.38A8.43,8.43,0,0,1,192,124.77l-.24.41-.44-.18a11.88,11.88,0,0,0-13.5,3.81l-.17.21h-7.92l-.68.6C165.22,133,158.92,135.08,152.25,135.08Zm40.44,39.29-27,4.67-2.48-40.88.4-.13a26,26,0,0,0,7.77-4.13l.15-.12h4l-.08.62a11.47,11.47,0,0,0,.82,6l.09.21-.09.22a11.58,11.58,0,0,0-.87,4.43,11.7,11.7,0,0,0,11.69,11.69h5l.16.16c2.5,2.53,6.71,4.29,11.55,4.83l.59.07-.11.58c-1.64,8.9-5.08,10.16-11.54,11.8Z"/><path class="cls-3" d="M171.23,270.38l-.5-8.26-4.76.29.5,8.26a15.47,15.47,0,0,0,2.93,8.25l7.58,5.64,2.05-.64.86-4.08C175.21,279.49,171.54,275.54,171.23,270.38Z"/></g></g></svg>