<svg width="105" height="105" viewBox="0 0 105 105" fill="none" xmlns="http://www.w3.org/2000/svg">
<rect x="6.19548" y="20.6612" width="78.9154" height="78.9154" rx="39.4577" transform="rotate(-10 6.19548 20.6612)" stroke="#B7B1AC" stroke-opacity="0.8" stroke-width="1.12736"/>
<path d="M60.0737 81.0444L61.6832 80.6557L62.0794 82.3308L60.47 82.7195L60.0737 81.0444Z" fill="#B7B1AC" fill-opacity="0.8" stroke="black" stroke-width="0.563682"/>
<path d="M72.0837 44.0005C71.443 42.9897 70.49 42.2218 69.2977 41.762C68.1051 41.3021 66.7244 41.1623 65.3051 41.3579L65.2755 41.3619L65.2462 41.3682C64.4109 41.5482 63.6311 41.8367 62.9345 42.2156C62.9238 42.099 62.909 41.9822 62.8884 41.8656C62.5481 39.9352 60.9354 38.5556 59.1159 38.5043C58.7757 37.6009 58.1354 36.85 57.2882 36.3827C56.3984 35.8919 55.3929 35.7738 54.4507 36.0345C52.8416 34.3016 50.5054 33.4845 48.2166 33.8881C45.9278 34.2917 44.0121 35.8585 43.0926 38.0371C42.1184 38.1142 41.2136 38.5695 40.5454 39.3349C39.9091 40.0637 39.5643 40.9884 39.5535 41.9536C37.8613 42.6242 36.8178 44.4721 37.1581 46.4024C37.5451 48.5973 39.5772 50.0801 41.6877 49.7079L45.3026 49.0706C46.017 49.475 46.8409 49.7536 47.7268 49.902L49.8968 68.4637L44.0956 67.9089C42.183 67.7507 41.2635 67.5712 40.3848 65.1596C41.6467 64.7732 42.6697 64.0934 43.2308 63.2596L44.4567 63.0435C46.255 62.7264 47.4497 60.947 47.12 59.077C47.0433 58.6422 46.8862 58.2261 46.6595 57.8524C46.9495 56.4624 46.3936 55.0577 45.193 54.2484C44.0249 53.4611 42.6226 53.4749 41.5411 54.2376C40.3498 53.6986 38.9128 53.5145 37.4297 53.7188L37.4 53.7229L37.3707 53.7292C36.4253 53.9329 35.5223 54.2956 34.7593 54.7783L35.6362 56.25C36.2336 55.8721 36.9462 55.5854 37.6993 55.4198C39.0209 55.2436 40.3187 55.455 41.2642 56.0015L41.8063 56.3148L42.2441 55.8701C42.9306 55.173 43.7823 55.336 44.3031 55.687C44.8402 56.049 45.298 56.7701 44.972 57.7084L44.8097 58.1757L45.1221 58.5592C45.3102 58.7902 45.4373 59.0687 45.4895 59.3645C45.6543 60.2996 45.0569 61.1892 44.1578 61.3478L42.1488 61.702L41.9655 62.0913C41.6936 62.6691 40.6988 63.4147 39.1571 63.6865C37.6154 63.9584 36.4255 63.598 35.9724 63.1481L35.6671 62.8449L33.6581 63.1991C32.759 63.3577 31.8933 62.726 31.7285 61.791C31.5636 60.856 32.161 59.9663 33.0601 59.8078L33.665 59.7011L33.7342 59.0682C33.8108 58.3675 34.0885 57.7299 34.5593 57.1729L33.3066 56.0291C32.7425 56.6963 32.3659 57.4482 32.1827 58.2711C30.715 58.8275 29.8048 60.4172 30.0977 62.0785C30.4275 63.9485 32.1587 65.2119 33.957 64.8949L35.1828 64.6787C36.0427 65.3047 37.3301 65.5909 38.7393 65.474C39.2725 67.0125 39.8887 67.9984 40.6967 68.6244C41.6673 69.3761 42.8063 69.5258 43.9756 69.6224L50.1008 70.2083L52.2318 88.4354C52.4064 89.9299 51.551 91.231 50.2418 91.4618L50.5408 93.1575L66.304 90.378L66.005 88.6823C64.6958 88.9132 63.4469 87.9832 63.1 86.519L62.5023 83.997L60.8926 84.3866L61.4903 86.9084C61.7129 87.8477 62.1737 88.6492 62.7857 89.2499L53.461 90.8941C53.8306 90.1202 53.9895 89.2096 53.8774 88.2508L49.4085 50.0255C49.9421 50.017 50.4868 49.966 51.0344 49.8695C51.5822 49.7729 52.1114 49.6345 52.6158 49.46L59.7016 79.3608L61.3112 78.9713L57.2579 61.8674L64.5716 59.1754L64.63 59.1513C65.7049 58.6562 66.7243 58.1259 67.379 57.0876C67.9242 56.2235 68.1659 55.0868 68.1409 53.4599C69.6023 53.0691 70.7913 52.3124 71.4164 51.3707L72.7358 51.1381C74.6146 50.8068 75.863 48.9476 75.5185 46.9938C75.2109 45.2485 73.7347 44.0089 72.0837 44.0005ZM45.8768 47.4402L45.608 47.2684L41.3887 48.0124C40.1771 48.226 39.0108 47.3748 38.7887 46.115C38.5665 44.8552 39.3714 43.6565 40.5829 43.4428L41.3983 43.2991L41.2488 42.4512C41.1235 41.7411 41.3174 41.0295 41.7806 40.499C42.2468 39.9651 42.9121 39.6935 43.6052 39.754L44.2445 39.8097L44.4491 39.1826C45.0645 37.2965 46.6226 35.9176 48.5156 35.5838C50.4086 35.25 52.3443 36.0129 53.5675 37.5745L53.9743 38.0939L54.556 37.8229C55.1868 37.5289 55.9047 37.5566 56.5254 37.8989C57.1422 38.239 57.5676 38.8413 57.6928 39.5514L57.8423 40.3993L58.6577 40.2555C59.8692 40.0419 61.0355 40.8931 61.2577 42.153C61.3289 42.5567 61.2936 42.9625 61.1633 43.3386C59.8775 43.0528 58.5682 43.546 57.736 44.6905C57.6206 44.8492 57.52 45.014 57.4331 45.1832L55.2442 45.5692L55.0504 45.8226C54.1701 46.9736 52.5571 47.8527 50.7356 48.1739C48.914 48.4951 47.0977 48.2208 45.8768 47.4402ZM63.9692 57.5647L56.8586 60.1819L54.1539 48.7688C54.9356 48.3263 55.6146 47.7829 56.1476 47.1584L57.0359 47.0018C57.0651 47.615 57.2516 48.2229 57.5948 48.7703C57.5018 49.2245 57.4948 49.6964 57.5761 50.1577C57.9207 52.1116 59.7296 53.4316 61.6084 53.1003L62.9278 52.8677C63.7901 53.5041 65.0721 53.8108 66.4872 53.728C66.486 56.278 65.692 56.7701 63.9692 57.5647ZM72.437 49.4424L70.3326 49.8135L70.1494 50.2028C69.8559 50.8263 68.7882 51.6299 67.1373 51.921C65.4865 52.2121 64.2083 51.8221 63.7193 51.3366L63.414 51.0334L61.3096 51.4045C60.3298 51.5773 59.3866 50.8888 59.207 49.8701C59.1501 49.5475 59.1764 49.2149 59.2829 48.9083L59.4453 48.4411L59.133 48.0575C58.4495 47.2179 58.6494 46.3088 59.0645 45.7379C59.3106 45.3995 59.7096 45.0871 60.2027 45.0001C60.516 44.9449 60.8671 44.9806 61.2411 45.1585L61.8046 45.4267L62.2068 44.9469C62.9685 44.0381 64.1637 43.3684 65.5747 43.0587C67.498 42.8017 69.8976 43.2511 70.899 45.2826L71.1805 45.8536L71.7854 45.747C72.7652 45.5742 73.7084 46.2625 73.8881 47.2814C74.0677 48.3003 73.4168 49.2697 72.437 49.4424Z" fill="#B7B1AC" fill-opacity="0.8" stroke="black" stroke-width="0.563682"/>
<path d="M53.6211 40.3016L55.2517 40.0141L55.5507 41.7098L53.9201 41.9973L53.6211 40.3016Z" fill="#B7B1AC" fill-opacity="0.8" stroke="black" stroke-width="0.563682"/>
<path d="M67.0005 45.4294L68.6312 45.1419L68.9302 46.8376L67.2995 47.1251L67.0005 45.4294Z" fill="#B7B1AC" fill-opacity="0.8" stroke="black" stroke-width="0.563682"/>
<path d="M36.5641 31.1059C36.297 31.2567 36.0232 31.3526 35.7426 31.3936C35.4672 31.4317 35.2025 31.4154 34.9486 31.3447C34.6969 31.2658 34.4735 31.133 34.2783 30.9463L34.9754 30.2731C35.144 30.4127 35.3323 30.4894 35.5403 30.5032C35.7483 30.517 35.9518 30.4677 36.1507 30.3554C36.3549 30.2401 36.4959 30.0984 36.5736 29.9303C36.6483 29.7569 36.6429 29.5943 36.5571 29.4424C36.4833 29.3115 36.3688 29.2311 36.2139 29.2012C36.0589 29.1713 35.8518 29.2019 35.5925 29.2931L35.3067 29.3922C34.8226 29.562 34.4103 29.6083 34.0699 29.5312C33.7347 29.4511 33.477 29.2513 33.2967 28.9319C33.1518 28.6754 33.0902 28.4133 33.1117 28.1457C33.1333 27.878 33.2282 27.6242 33.3965 27.3842C33.5649 27.1442 33.7982 26.94 34.0967 26.7715C34.3533 26.6267 34.614 26.5382 34.8789 26.506C35.1439 26.4739 35.3954 26.4976 35.6337 26.5771C35.8719 26.6567 36.0845 26.7887 36.2715 26.9731L35.5733 27.6261C35.4159 27.494 35.2425 27.4193 35.0532 27.4019C34.8661 27.3763 34.6836 27.4137 34.5056 27.5142C34.3223 27.6177 34.1971 27.7505 34.1298 27.9127C34.0597 28.0697 34.0645 28.2189 34.1443 28.3603C34.2122 28.4807 34.3208 28.5506 34.4698 28.5701C34.6241 28.5866 34.8428 28.5459 35.126 28.4482L35.4118 28.3491C35.872 28.1859 36.2753 28.1481 36.6217 28.2357C36.968 28.3233 37.2313 28.5268 37.4116 28.8462C37.521 29.0399 37.5836 29.2428 37.5997 29.4546C37.6128 29.6613 37.5815 29.8688 37.5058 30.0772C37.4324 30.2775 37.314 30.4652 37.1505 30.6403C36.9951 30.8177 36.7997 30.9729 36.5641 31.1059Z" fill="#B7B1AC" fill-opacity="0.8"/>
<path d="M42.6634 27.7919C42.3334 27.9047 42.0096 27.9519 41.6919 27.9334C41.378 27.9073 41.0827 27.824 40.8059 27.6835C40.5291 27.543 40.2852 27.35 40.0741 27.1044C39.8669 26.8512 39.7039 26.5511 39.5853 26.204C39.4705 25.8684 39.4185 25.5398 39.4294 25.2184C39.4459 24.895 39.5149 24.595 39.6364 24.3184C39.7616 24.0341 39.9375 23.7865 40.1641 23.5756C40.3906 23.3648 40.6604 23.2058 40.9733 23.0989C41.2862 22.9919 41.5901 22.9515 41.885 22.9778C42.1837 22.9964 42.4619 23.0761 42.7197 23.2167C42.9831 23.3554 43.2147 23.5494 43.4143 23.7989C43.612 24.0427 43.7693 24.3352 43.886 24.6766L43.9851 24.9668L40.6825 26.0958C40.8004 26.3478 40.9465 26.552 41.1207 26.7085C41.2987 26.8573 41.4933 26.9528 41.7047 26.9949C41.9161 27.0371 42.1384 27.0182 42.3717 26.9385C42.8382 26.779 43.1313 26.4469 43.2511 25.9421L44.2268 25.9803C44.2041 26.2485 44.1234 26.5049 43.9845 26.7493C43.8494 26.9861 43.6666 27.1948 43.436 27.3753C43.2111 27.5538 42.9536 27.6927 42.6634 27.7919ZM41.2446 23.8925C41.0455 23.9606 40.8818 24.0674 40.7536 24.2129C40.6311 24.3564 40.544 24.5291 40.4924 24.7311C40.4407 24.933 40.4328 25.1518 40.4689 25.3873L42.7218 24.6171C42.6118 24.4068 42.4803 24.2358 42.3272 24.1038C42.174 23.9719 42.0023 23.8877 41.8119 23.8511C41.6271 23.8126 41.438 23.8264 41.2446 23.8925Z" fill="#B7B1AC" fill-opacity="0.8"/>
<path d="M49.035 25.9663C48.7228 25.9831 48.4282 25.9357 48.1513 25.8242C47.8803 25.7123 47.6398 25.5507 47.4297 25.3392C47.2196 25.1277 47.0494 24.8749 46.9192 24.5809C46.795 24.2865 46.7235 23.9652 46.7047 23.617C46.6856 23.2628 46.7249 22.9295 46.8225 22.6171C46.9201 22.3048 47.0648 22.029 47.2566 21.7899C47.4485 21.5508 47.6761 21.3609 47.9395 21.2202C48.2089 21.0793 48.5027 21.0002 48.8209 20.9831C49.1511 20.9653 49.4521 21.0214 49.7241 21.1512C50.002 21.2808 50.2291 21.4733 50.4055 21.7287L50.4132 21.0328L51.3588 20.9819L51.7085 27.4751L50.6728 27.5309L50.5399 25.0633C50.3857 25.3305 50.1774 25.5435 49.915 25.7021C49.6526 25.8607 49.3592 25.9488 49.035 25.9663ZM49.2007 25.018C49.4589 25.0041 49.6865 24.9256 49.8835 24.7825C50.0802 24.6335 50.2293 24.4388 50.3308 24.1985C50.4382 23.9578 50.484 23.6904 50.4682 23.3963C50.452 23.0961 50.3776 22.8321 50.2449 22.6044C50.1182 22.3764 49.9493 22.2019 49.738 22.0808C49.5264 21.9537 49.2916 21.8971 49.0334 21.911C48.7752 21.9249 48.5478 22.0064 48.3511 22.1555C48.1541 22.2985 48.0018 22.4904 47.8944 22.731C47.7929 22.9713 47.7503 23.2416 47.7664 23.5418C47.7823 23.8359 47.8535 24.097 47.9802 24.3251C48.1129 24.5527 48.285 24.7301 48.4966 24.8572C48.7079 24.9783 48.9426 25.0319 49.2007 25.018Z" fill="#B7B1AC" fill-opacity="0.8"/>
<path d="M56.5 26.7422C56.0868 26.6623 55.7438 26.5041 55.4711 26.2676C55.2043 26.0323 55.0167 25.7357 54.9084 25.378C54.807 25.0154 54.7992 24.6128 54.8848 24.17L55.385 21.5844L56.4033 21.7814L55.8997 24.3847C55.8255 24.7684 55.8581 25.0901 55.9978 25.3498C56.1385 25.6037 56.3683 25.7614 56.687 25.8231C57.0058 25.8847 57.2778 25.8241 57.5031 25.641C57.7295 25.4521 57.8798 25.1658 57.954 24.7821L58.4576 22.1788L59.4759 22.3758L58.9757 24.9614C58.8912 25.3982 58.7314 25.7653 58.4962 26.0628C58.2682 26.3555 57.9829 26.5637 57.6406 26.6873C57.2993 26.805 56.9192 26.8233 56.5 26.7422Z" fill="#B7B1AC" fill-opacity="0.8"/>
<path d="M63.5176 28.8678C63.209 28.7187 62.9482 28.5259 62.7353 28.2894C62.5304 28.0502 62.3789 27.7833 62.2808 27.4888C62.1853 27.1889 62.1488 26.8774 62.1714 26.5544C62.1965 26.226 62.2876 25.8994 62.4445 25.5746C62.5989 25.2552 62.7956 24.9863 63.0347 24.7679C63.2764 24.5442 63.543 24.3792 63.8347 24.2731C64.1345 24.1642 64.4431 24.1197 64.7607 24.1396C65.0863 24.1567 65.4061 24.2411 65.7201 24.3929C66.0287 24.542 66.2854 24.7362 66.4904 24.9754C66.7033 25.2119 66.8575 25.4801 66.953 25.78C67.0511 26.0745 67.0889 26.3832 67.0663 26.7062C67.0438 27.0292 66.9541 27.3531 66.7971 27.6779C66.6401 28.0028 66.4408 28.277 66.1991 28.5008C65.96 28.7192 65.6906 28.8828 65.3909 28.9917C65.0992 29.0979 64.7906 29.1424 64.4649 29.1253C64.1474 29.1053 63.8316 29.0195 63.5176 28.8678ZM63.9419 28.0311C64.1747 28.1436 64.4119 28.1848 64.6535 28.1546C64.8978 28.119 65.1223 28.0205 65.3272 27.8591C65.5375 27.7003 65.7081 27.4856 65.8389 27.2149C65.9697 26.9442 66.0306 26.6798 66.0218 26.4218C66.021 26.161 65.9573 25.9265 65.8308 25.7185C65.7069 25.505 65.5285 25.342 65.2958 25.2295C65.063 25.1171 64.8245 25.0786 64.5802 25.1142C64.3386 25.1443 64.1127 25.2388 63.9024 25.3976C63.7001 25.5536 63.5335 25.767 63.4027 26.0376C63.2719 26.3083 63.2069 26.5741 63.2078 26.8349C63.214 27.0984 63.2791 27.3368 63.403 27.5503C63.5295 27.7583 63.7091 27.9186 63.9419 28.0311Z" fill="#B7B1AC" fill-opacity="0.8"/>
<path d="M71.8533 27.6108C71.7885 27.7049 71.704 27.7744 71.5999 27.8195C71.5007 27.868 71.3944 27.8896 71.2811 27.8845C71.1712 27.8744 71.0692 27.837 70.9752 27.7721C70.8811 27.7073 70.8099 27.6252 70.7614 27.5261C70.7164 27.422 70.6964 27.3132 70.7015 27.1999C70.7116 27.09 70.7491 26.988 70.8139 26.894C70.8788 26.7999 70.9608 26.7287 71.0599 26.6802C71.1641 26.6352 71.2711 26.6177 71.381 26.6277C71.4943 26.6329 71.598 26.6678 71.6921 26.7327C71.7861 26.7976 71.8556 26.8821 71.9007 26.9862C71.9492 27.0853 71.9684 27.1899 71.9583 27.2998C71.9532 27.4131 71.9182 27.5168 71.8533 27.6108ZM67.4848 31.9274L70.1628 28.0445L71.0166 28.6334L68.3386 32.5163L67.4848 31.9274Z" fill="#B7B1AC" fill-opacity="0.8"/>
<path d="M72.1531 34.9358C71.9728 34.7767 71.8298 34.6025 71.7242 34.4131C71.6232 34.2278 71.56 34.0358 71.5348 33.8371C71.5096 33.6385 71.5251 33.4437 71.5813 33.2527C71.6375 33.0618 71.7372 32.8851 71.8803 32.7228C72.0792 32.4974 72.3109 32.3529 72.5753 32.2895C72.8481 32.2256 73.1346 32.2417 73.4345 32.3379C73.7345 32.4342 74.0287 32.6096 74.3173 32.8641C74.4751 33.0033 74.6123 33.1524 74.7287 33.3112C74.8491 33.4655 74.9509 33.6274 75.0339 33.7969L75.2308 33.5737C75.37 33.4159 75.462 33.2525 75.5068 33.0835C75.5556 32.9101 75.5557 32.7418 75.5071 32.5787C75.4586 32.4156 75.3576 32.2665 75.2043 32.1312C75.042 31.988 74.8577 31.9016 74.6513 31.8719C74.445 31.8423 74.2427 31.8762 74.0443 31.9739L73.4706 31.1791C73.6997 31.0284 73.9478 30.9426 74.2148 30.9216C74.4864 30.9046 74.7572 30.943 75.0272 31.0369C75.3017 31.1347 75.5562 31.287 75.7906 31.4939C76.0116 31.6888 76.1804 31.9018 76.2971 32.1331C76.4183 32.3683 76.4867 32.609 76.5021 32.8551C76.5175 33.1012 76.4817 33.3462 76.3948 33.5902C76.3078 33.8342 76.1669 34.0667 75.972 34.2876L74.0688 36.4452L73.3586 35.8188L73.7432 35.3282C73.4974 35.416 73.234 35.4283 72.9532 35.3649C72.6723 35.3016 72.4056 35.1585 72.1531 34.9358ZM72.6947 33.3811C72.6072 33.4803 72.5547 33.5943 72.5373 33.7232C72.5237 33.8476 72.5444 33.9741 72.5994 34.1027C72.6588 34.2353 72.7539 34.3593 72.8846 34.4746C73.0515 34.6218 73.2321 34.717 73.4265 34.7602C73.6209 34.8034 73.8101 34.7979 73.9942 34.7438C74.1822 34.6852 74.3458 34.5769 74.485 34.4191L74.5566 34.338C74.4831 34.1849 74.3952 34.0392 74.2928 33.9008C74.1989 33.7618 74.0866 33.6347 73.9558 33.5193C73.7213 33.3125 73.4882 33.1951 73.2564 33.167C73.0291 33.1429 72.8419 33.2142 72.6947 33.3811Z" fill="#B7B1AC" fill-opacity="0.8"/>
<rect x="0.878586" y="16.4766" width="89.0617" height="89.0617" rx="44.5308" transform="rotate(-10 0.878586 16.4766)" stroke="#B7B1AC" stroke-opacity="0.8" stroke-width="1.12736" stroke-dasharray="2.25 3.38"/>
</svg>
