<svg id="Layer_1" data-name="Layer 1" xmlns="http://www.w3.org/2000/svg" viewBox="0 0 1846.86 245.82"><title>endaoment</title><path d="M36.7,407.12c0-51,37.4-88.4,90.44-88.4s89.76,37.4,89.76,88.4V421.4H79.2c5.44,24.48,24.14,37.39,47.94,37.39,18,0,31.28-5.09,39.78-16H210.1c-12.58,32-43.18,52.69-83,52.69C74.1,495.51,36.7,458.12,36.7,407.12Zm137.36-18c-6.46-22.44-24.82-33.66-46.92-33.66-22.78,0-40.46,11.56-46.92,33.66Z" transform="translate(-36.7 -249.7)"/><path d="M243.42,403.72c0-56.1,33.32-85,83-85s83,28.56,83,85v87.37H368.88V403.72c0-32-17-47.26-42.5-47.26s-42.5,15.3-42.5,47.26v87.37H243.42Z" transform="translate(-36.7 -249.7)"/><path d="M435.86,405.42c0-57.46,42.84-86.7,83.64-86.7,24.14,0,44.2,10.2,56.1,28.9V249.7h40.46V405.76c0,54.4-36.72,89.75-89.42,89.75C473.26,495.51,435.86,458.79,435.86,405.42Zm139.74,1.7c0-29.58-19.72-50.66-49.3-50.66s-49.64,21.08-49.64,50.66,20.06,50.66,49.64,50.66S575.6,436.7,575.6,407.12Z" transform="translate(-36.7 -249.7)"/><path d="M642.57,408.82c0-53.38,37.4-90.1,90.78-90.1,52.7,0,89.42,35.7,89.42,89.76v82.61H785.71v-33c-10.2,24.81-33,37.39-59.5,37.39C685.41,495.51,642.57,466.28,642.57,408.82Zm139.74-1.7c0-29.58-19.72-50.66-49.3-50.66s-49.64,21.08-49.64,50.66,20.06,50.66,49.64,50.66S782.31,436.7,782.31,407.12Z" transform="translate(-36.7 -249.7)"/><path d="M849.29,407.12c0-51,37.4-88.4,90.44-88.4s90.44,37.4,90.44,88.4-37.4,88.39-90.44,88.39S849.29,458.12,849.29,407.12Zm139.74,0c0-29.58-19.72-50.66-49.3-50.66s-49.64,21.08-49.64,50.66,20.06,50.66,49.64,50.66S989,436.7,989,407.12Z" transform="translate(-36.7 -249.7)"/><path d="M1056.69,395.22c0-52.7,30.6-76.5,70.38-76.5,25.16,0,45.9,10.54,58.14,30.26,11.9-19.72,32.64-30.26,58.14-30.26,39.78,0,70.38,23.8,70.38,76.5v95.87h-40.46V395.22c0-27.54-14.28-38.76-34-38.76-19.38,0-33.66,11.56-33.66,38.76v95.87h-40.46V395.22c0-27.2-14.62-38.76-34-38.76-19.72,0-34,11.22-34,38.76v95.87h-40.46Z" transform="translate(-36.7 -249.7)"/><path d="M1340.25,407.12c0-51,37.39-88.4,90.43-88.4s89.76,37.4,89.76,88.4V421.4h-137.7c5.44,24.48,24.14,37.39,47.94,37.39,18,0,31.28-5.09,39.78-16h43.18c-12.58,32-43.18,52.69-83,52.69C1377.64,495.51,1340.25,458.12,1340.25,407.12Zm137.35-18c-6.46-22.44-24.82-33.66-46.92-33.66-22.78,0-40.46,11.56-46.92,33.66Z" transform="translate(-36.7 -249.7)"/><path d="M1547,403.72c0-56.1,33.32-85,83-85s83,28.56,83,85v87.37h-40.46V403.72c0-32-17-47.26-42.5-47.26s-42.5,15.3-42.5,47.26v87.37H1547Z" transform="translate(-36.7 -249.7)"/><path d="M1746.2,426.5V263.64h40.46v59.5h86.7v36.72h-86.7V426.5c0,22.44,11.56,31.28,28.22,31.28s28.22-8.5,28.22-31.28v-4.42h40.46v4.42c0,46.57-27.88,69-68.68,69S1746.2,473.07,1746.2,426.5Z" transform="translate(-36.7 -249.7)"/></svg>