<svg xmlns="http://www.w3.org/2000/svg" viewBox="0 0 516.72 80.59"><defs><style>.cls-1{fill:#1b201c;}</style></defs><g id="Layer_2" data-name="Layer 2"><g id="Layer_1-2" data-name="Layer 1"><path class="cls-1" d="M45.14,38.89C41.52,27,26.94,24.38,15.71,28.2A37.16,37.16,0,0,0,.44,37.89a1.66,1.66,0,0,0,.72,2.71c11.17,3.34,12.16,17.29,26.7,19A15.87,15.87,0,0,0,42.6,53.14a16.47,16.47,0,0,0,2.45-4.77A15.93,15.93,0,0,0,45.14,38.89Z"/><path class="cls-1" d="M68.25,1C51.69,4.8,43.77,21.43,49.13,31.41A17.87,17.87,0,0,0,53.88,37a17.46,17.46,0,0,0,3.88,2.33,17.23,17.23,0,0,0,19.6-4.05c8.46-8.81,5.15-19.54,17.87-29a1.64,1.64,0,0,0-.36-2.86C87.08.49,77.34-1.16,68.25,1Z"/><path class="cls-1" d="M52.78,79.12a4.09,4.09,0,0,1-4-3.13C46,64.29,39.64,51.55,35.14,51.84a4.09,4.09,0,1,1-.63-8.15c6.38-.53,11.33,4.76,14.93,11.1C50.56,45.19,53,34,58.33,25.33a4.09,4.09,0,0,1,7,4.27C55.3,46,56.84,74.5,56.86,74.79a4.13,4.13,0,0,1-4.08,4.33Z"/><path class="cls-1" d="M112.11,79.14V10.63h24.6a39,39,0,0,1,15.35,2.75A22,22,0,0,1,162,21.19a21.15,21.15,0,0,1,3.42,12.11A20.22,20.22,0,0,1,164,40.59a23.85,23.85,0,0,1-3.76,6.51,22.24,22.24,0,0,1-5.7,5l15,27H149.26l-10.62-21.9q-1.35.09-2.7.09a34.9,34.9,0,0,1-5.5-.48V79.14ZM130.44,26V41.6a24.92,24.92,0,0,0,3.33.53c1.06.1,2.27.15,3.62.15a9.81,9.81,0,0,0,6.75-2.22,7.83,7.83,0,0,0,2.51-6.18A7,7,0,0,0,144,28.05Q141.34,26,136.62,26Z"/><path class="cls-1" d="M197.31,80.59a28.11,28.11,0,0,1-10.8-2,25.06,25.06,0,0,1-8.5-5.69,25.85,25.85,0,0,1-5.55-8.73,30.62,30.62,0,0,1-2-11.15,29,29,0,0,1,2-10.76,26.19,26.19,0,0,1,5.6-8.68,25.41,25.41,0,0,1,8.45-5.75,26.86,26.86,0,0,1,10.51-2,28.32,28.32,0,0,1,11,2,23.44,23.44,0,0,1,8.34,5.79,26,26,0,0,1,5.36,9,35,35,0,0,1,1.88,11.82v3.28H188.92A11.7,11.7,0,0,0,192.1,64a8.15,8.15,0,0,0,5.79,2.17,9.55,9.55,0,0,0,8.21-4.44l16.5,3.67a22.26,22.26,0,0,1-5.65,8,26.86,26.86,0,0,1-8.78,5.26A31.06,31.06,0,0,1,197.31,80.59Zm-.29-42a7.33,7.33,0,0,0-5.4,2.12,11.53,11.53,0,0,0-2.89,6.18h16.21a11.58,11.58,0,0,0-2.7-6.18A6.92,6.92,0,0,0,197,38.61Z"/><path class="cls-1" d="M241.12,79.14,224,27.22h18.63l7,31.46,8.49-31.46h15.35L282.14,59l7.33-31.75h17.95L290.34,79.14H273.93l-8.29-31.07-8.4,31.07Z"/><path class="cls-1" d="M329.9,13.81a9.16,9.16,0,0,1-1.25,4.73,8.92,8.92,0,0,1-3.48,3.33,10.19,10.19,0,0,1-4.92,1.21,9.91,9.91,0,0,1-4.87-1.21A9,9,0,0,1,312,18.54a9.16,9.16,0,0,1-1.25-4.73A9.19,9.19,0,0,1,312,9.08a9.07,9.07,0,0,1,3.43-3.33,9.9,9.9,0,0,1,4.87-1.2,10.18,10.18,0,0,1,4.92,1.2,9,9,0,0,1,3.48,3.33A9.19,9.19,0,0,1,329.9,13.81ZM311.28,79.14V27.22h18V79.14Z"/><path class="cls-1" d="M337,79.14V6.77h18V79.14Z"/><path class="cls-1" d="M384.23,80.59a19.73,19.73,0,0,1-9-2.08A23.06,23.06,0,0,1,368,72.77a26.5,26.5,0,0,1-4.87-8.59,31.57,31.57,0,0,1-1.74-10.61,32,32,0,0,1,1.83-11,27.45,27.45,0,0,1,5.12-8.83A23.84,23.84,0,0,1,376,27.9a21.6,21.6,0,0,1,9.5-2.12,18.32,18.32,0,0,1,7.87,1.64,16,16,0,0,1,5.93,4.73V6.77h18.05V79.14h-16.7l-.48-7.33a18.54,18.54,0,0,1-15.92,8.78Zm5.4-16.41a9,9,0,0,0,5-1.44,9.9,9.9,0,0,0,3.47-4,13.5,13.5,0,0,0,0-11.39,9.81,9.81,0,0,0-3.47-4,8.94,8.94,0,0,0-5-1.45,9.17,9.17,0,0,0-5.06,1.45,10,10,0,0,0-3.57,4,13,13,0,0,0,0,11.39,10.14,10.14,0,0,0,3.57,4A9.24,9.24,0,0,0,389.63,64.18Z"/><path class="cls-1" d="M450.43,80.59a28.12,28.12,0,0,1-10.81-2,25,25,0,0,1-8.49-5.69,25.85,25.85,0,0,1-5.55-8.73,30.41,30.41,0,0,1-2-11.15,28.8,28.8,0,0,1,2-10.76,26,26,0,0,1,5.6-8.68,25.27,25.27,0,0,1,8.44-5.75,26.91,26.91,0,0,1,10.52-2,28.3,28.3,0,0,1,10.95,2,23.48,23.48,0,0,1,8.35,5.79,26.08,26.08,0,0,1,5.35,9,34.73,34.73,0,0,1,1.89,11.82v3.28H442A11.64,11.64,0,0,0,445.22,64,8.11,8.11,0,0,0,451,66.21a9.54,9.54,0,0,0,8.2-4.44l16.5,3.67a22.36,22.36,0,0,1-5.64,8,26.9,26.9,0,0,1-8.79,5.26A31,31,0,0,1,450.43,80.59Zm-.29-42a7.36,7.36,0,0,0-5.41,2.12,11.6,11.6,0,0,0-2.89,6.18h16.21a11.5,11.5,0,0,0-2.7-6.18A6.9,6.9,0,0,0,450.14,38.61Z"/><path class="cls-1" d="M482.46,79.14V27.22h16.7l.58,8.4a15.89,15.89,0,0,1,5.11-6.75,12.28,12.28,0,0,1,7.43-2.32,10.69,10.69,0,0,1,4.44.87l-1.73,18a14.06,14.06,0,0,0-4.44-.67q-10.05,0-10,10.52V79.14Z"/></g></g></svg>