<svg xmlns="http://www.w3.org/2000/svg" viewBox="0 0 305.55 305.47"><defs><style>.cls-1{fill:#98938f;}</style></defs><g id="Layer_2" data-name="Layer 2"><g id="Layer_1-2" data-name="Layer 1"><path class="cls-1" d="M188.45,233.52l3.63,4.6a17.47,17.47,0,0,0,4.54-5.36l-5.14-2.82A11.71,11.71,0,0,1,188.45,233.52Z"/><path class="cls-1" d="M192.5,210.87a17.63,17.63,0,0,0-3-23.28,17.66,17.66,0,0,0-7.61-22.09,17.66,17.66,0,0,0-6.62-21.3,17.63,17.63,0,0,0-5.17-22.44,17.63,17.63,0,0,0-4-14.38,14.65,14.65,0,1,0-26.63,0,17.64,17.64,0,0,0-4,14.39,17.63,17.63,0,0,0-5.17,22.44,17.28,17.28,0,0,0-5.7,6.18l5.13,2.83a11.58,11.58,0,0,1,5.89-5.21l3.72-1.49-2.55-3.09a11.74,11.74,0,0,1,3.41-17.74l2.08-1.14-.69-2.28a11.76,11.76,0,0,1,3.46-12.2l1.94-1.71-1.45-2.14a8.7,8.7,0,0,1-1.52-4.94,8.79,8.79,0,1,1,17.57,0,8.7,8.7,0,0,1-1.52,4.94l-1.46,2.14,1.94,1.71a11.75,11.75,0,0,1,3.47,12.2l-.69,2.28,2.08,1.14a11.74,11.74,0,0,1,3.41,17.74l-2.55,3.09L170,148a11.76,11.76,0,0,1,5.46,17.3l-2.1,3.2,3.63,1.19a11.76,11.76,0,0,1,6.33,17.25l-1.51,2.47,2.46,1.54a11.74,11.74,0,0,1,1.92,18.39l-2.89,2.78,3.52,1.91a11.71,11.71,0,0,1,6.13,10.3c0,.27,0,.54,0,.83l5.84.41c0-.43.05-.84.05-1.24a17.59,17.59,0,0,0-6.27-13.46Z"/><path class="cls-1" d="M159.15,132.47H165v5.86h-5.86Z"/><path class="cls-1" d="M164.43,154.47h5.86v5.86h-5.86Z"/><path class="cls-1" d="M152.77,288.78c-75,0-136-61-136-136s61-136,136-136,136,61,136,136S227.77,288.78,152.77,288.78Zm0-266.15A130.29,130.29,0,0,0,22.63,152.77c0,71.77,58.38,130.15,130.14,130.15A130.29,130.29,0,0,0,282.92,152.77C282.92,81,224.54,22.63,152.77,22.63Z"/><path class="cls-1" d="M147.76,305.47c-3.39-.11-6.81-.34-10.18-.67l.58-5.83c3.23.32,6.53.53,9.79.64Zm10.21,0-.2-5.85c3.27-.11,6.56-.33,9.8-.66l.58,5.83C164.79,305.12,161.36,305.35,158,305.46Zm-30.51-2c-3.34-.56-6.71-1.24-10-2l1.35-5.7c3.17.75,6.4,1.4,9.62,1.94Zm50.8,0-1-5.78c3.22-.54,6.46-1.19,9.62-1.95l1.36,5.7C185,302.19,181.61,302.87,178.26,303.43Zm-70.65-4.67c-3.25-1-6.5-2.13-9.66-3.35l2.1-5.47c3,1.18,6.17,2.26,9.29,3.22Zm90.51-.05-1.74-5.6c3.11-1,6.23-2.05,9.27-3.22l2.11,5.46C204.6,296.57,201.35,297.7,198.12,298.71ZM88.54,291.43c-3.08-1.43-6.14-3-9.12-4.62l2.81-5.13c2.87,1.57,5.82,3.06,8.77,4.43Zm128.6-.06-2.47-5.32c3-1.37,5.89-2.86,8.75-4.43l2.82,5.14C223.27,288.39,220.21,289.94,217.14,291.37ZM70.63,281.61c-2.86-1.83-5.69-3.78-8.42-5.79l3.48-4.71c2.62,1.93,5.34,3.8,8.09,5.56ZM235,281.55l-3.16-4.94c2.74-1.75,5.46-3.62,8.08-5.56l3.48,4.72C240.68,277.78,237.86,279.73,235,281.55ZM54.2,269.49c-2.59-2.19-5.14-4.49-7.57-6.84l4.07-4.22C53,260.7,55.49,262.91,58,265Zm197.22-.05L247.63,265c2.49-2.1,4.94-4.31,7.28-6.58l4.07,4.21C256.55,265,254,267.25,251.42,269.44ZM39.52,255.31c-2.27-2.5-4.49-5.12-6.59-7.78l4.59-3.64c2,2.56,4.16,5.08,6.35,7.49Zm226.56-.06-4.34-3.93c2.18-2.41,4.31-4.93,6.34-7.49l4.59,3.63C270.57,250.12,268.35,252.75,266.08,255.25ZM26.87,239.32c-1.93-2.79-3.78-5.68-5.51-8.59l5-3c1.66,2.8,3.44,5.58,5.29,8.26Zm251.87-.08-4.83-3.32c1.85-2.68,3.63-5.47,5.29-8.27l5,3C282.51,233.55,280.66,236.45,278.74,239.24ZM16.45,221.8c-1.53-3-3-6.13-4.31-9.25l5.39-2.29c1.28,3,2.67,6,4.14,8.89Zm272.71-.12L283.93,219c1.48-2.91,2.87-5.91,4.14-8.91l5.4,2.29C292.14,215.54,290.69,218.66,289.16,221.68ZM8.47,203.05c-1.12-3.2-2.14-6.48-3-9.75l5.65-1.55c.87,3.14,1.85,6.3,2.92,9.37Zm288.67-.17L291.61,201c1.07-3.09,2-6.24,2.9-9.38l5.65,1.54C299.27,196.39,298.25,199.67,297.14,202.88ZM3.07,183.37c-.68-3.32-1.25-6.71-1.7-10.06l5.81-.78c.43,3.22,1,6.48,1.63,9.67Zm299.45-.18L296.78,182c.64-3.19,1.19-6.45,1.62-9.68l5.8.78C303.76,176.48,303.19,179.87,302.52,183.19ZM.35,163.15C.12,159.78,0,156.35,0,153H5.86c0,3.26.12,6.56.33,9.81ZM305.21,163l-5.84-.38c.21-3.25.32-6.55.32-9.82v-.33l5.86,0v.36C305.55,156.17,305.44,159.6,305.21,163Zm-299-19.84-5.85-.38c.22-3.38.56-6.8,1-10.15l5.81.77C6.7,136.59,6.38,139.87,6.17,143.13Zm293.17-.51c-.22-3.26-.55-6.54-1-9.77l5.81-.78c.45,3.35.8,6.76,1,10.15ZM8.74,123.68,3,122.53c.67-3.32,1.46-6.66,2.35-9.93L11,114.13C10.14,117.28,9.38,120.49,8.74,123.68Zm288-.5c-.66-3.2-1.43-6.41-2.29-9.55l5.65-1.55c.9,3.26,1.7,6.6,2.38,9.92ZM13.89,104.75l-5.54-1.91c1.11-3.2,2.34-6.42,3.66-9.54l5.4,2.28C16.14,98.59,15,101.67,13.89,104.75Zm277.6-.48c-1.07-3.08-2.26-6.15-3.54-9.14l5.39-2.3c1.33,3.11,2.57,6.31,3.68,9.5ZM21.54,86.66,16.31,84c1.53-3,3.18-6,4.91-9l5,3C24.6,80.85,23,83.75,21.54,86.66Zm262.26-.41c-1.48-2.9-3.07-5.79-4.74-8.59l5-3c1.73,2.91,3.39,5.91,4.92,8.93ZM31.54,69.77l-4.83-3.32c1.91-2.79,3.95-5.56,6-8.22l4.6,3.63C35.34,64.42,33.38,67.08,31.54,69.77Zm242.22-.36c-1.85-2.68-3.81-5.34-5.84-7.89l4.59-3.64c2.11,2.65,4.15,5.41,6.07,8.2ZM43.7,54.35l-4.35-3.92c2.27-2.52,4.65-5,7.09-7.35l4.08,4.21C48.18,49.56,45.88,51.94,43.7,54.35ZM261.57,54c-2.19-2.41-4.49-4.78-6.84-7l4.07-4.21c2.44,2.35,4.83,4.81,7.1,7.32ZM57.79,40.69,54,36.22c2.58-2.19,5.27-4.32,8-6.33l3.49,4.71C62.86,36.53,60.28,38.58,57.79,40.69Zm189.65-.27c-2.5-2.11-5.09-4.15-7.72-6.08l3.47-4.72c2.73,2,5.43,4.13,8,6.32ZM73.56,29l-3.17-4.93c2.86-1.83,5.8-3.58,8.77-5.21L82,24C79.13,25.58,76.3,27.26,73.56,29Zm158.06-.23c-2.75-1.76-5.6-3.44-8.45-5L226,18.65c3,1.62,5.93,3.37,8.79,5.2ZM90.73,19.57l-2.48-5.31c3.07-1.44,6.22-2.78,9.38-4l2.11,5.46C96.71,16.9,93.68,18.19,90.73,19.57Zm123.66-.21c-3-1.37-6-2.65-9-3.82l2.1-5.47c3.16,1.21,6.33,2.55,9.41,4ZM109,12.49l-1.75-5.6c3.24-1,6.55-1.92,9.85-2.7l1.36,5.69C115.3,10.64,112.11,11.52,109,12.49Zm87-.16c-3.12-.95-6.3-1.82-9.47-2.56l1.34-5.71c3.3.78,6.61,1.68,9.85,2.67Zm-68-4.41-1-5.77c3.34-.57,6.74-1,10.11-1.37l.59,5.83C134.57,6.94,131.3,7.38,128.09,7.92ZM177,7.84c-3.21-.53-6.48-1-9.73-1.28l.57-5.83c3.38.33,6.78.77,10.12,1.33ZM147.6,6,147.4.09c3.36-.11,6.8-.12,10.21,0l-.18,5.86C154.15,5.83,150.84,5.84,147.6,6Z"/><path class="cls-1" d="M99.63,79.65A10,10,0,0,1,96.71,81a9.54,9.54,0,0,1-5.95-.29,10.12,10.12,0,0,1-2.67-1.57,11.33,11.33,0,0,1-2.22-2.48,11.6,11.6,0,0,1-1.44-3A10.71,10.71,0,0,1,84,70.5a10,10,0,0,1,.52-3A9.74,9.74,0,0,1,86,64.76a10,10,0,0,1,2.35-2.17A10.16,10.16,0,0,1,91,61.31a9,9,0,0,1,2.8-.37,8.12,8.12,0,0,1,5.11,2l-3.29,3.43a4.82,4.82,0,0,0-2.55-.83,4.32,4.32,0,0,0-3.78,2.18,4.7,4.7,0,0,0-.59,1.9,5.77,5.77,0,0,0,.2,2.12,7.48,7.48,0,0,0,1,2.17,7.33,7.33,0,0,0,1.58,1.73,5.57,5.57,0,0,0,1.86,1,4.57,4.57,0,0,0,3.83-.6,4.4,4.4,0,0,0,1.68-2,5.08,5.08,0,0,0,.27-2.72l4.44-1.71a8.16,8.16,0,0,1,.31,3.75,8.73,8.73,0,0,1-1.38,3.47A10.18,10.18,0,0,1,99.63,79.65Z"/><path class="cls-1" d="M115,70.9l-2.7-7-10.59-8.69,5-1.95L113,58.94l.85-8.39,4.86-1.88-2,13.56,2.7,7Z"/><path class="cls-1" d="M129.67,65.91l-3.2-19.11,6.46-1.09a10.17,10.17,0,0,1,4.29.09,5.86,5.86,0,0,1,3,1.82A6.74,6.74,0,0,1,141.77,51a6.53,6.53,0,0,1-.11,2.76,6.13,6.13,0,0,1-1.21,2.35,7.16,7.16,0,0,1-2.18,1.75,9.94,9.94,0,0,1-3.05,1,12,12,0,0,1-2,.17l1,6.08Zm2.06-16,.88,5.25a12.69,12.69,0,0,0,1.74-.15A3.62,3.62,0,0,0,136.57,54a2.49,2.49,0,0,0,.48-2.14A2.52,2.52,0,0,0,135.92,50a3.4,3.4,0,0,0-2.42-.32Z"/><path class="cls-1" d="M148.39,63.29l.53-19.38,6.58.18a10.6,10.6,0,0,1,4.21.88,6.05,6.05,0,0,1,2.67,2.27,5.94,5.94,0,0,1,.86,3.42,5.72,5.72,0,0,1-.45,2.09,6.75,6.75,0,0,1-1.16,1.83,6.61,6.61,0,0,1-1.7,1.37L164,63.71l-5.18-.14-3-6.47h-.9a10.35,10.35,0,0,1-1.66-.18l-.18,6.49ZM153.48,48l-.14,5c.31.06.62.11.93.14a9.82,9.82,0,0,0,1,.07,3.44,3.44,0,0,0,2.32-.63,2.36,2.36,0,0,0,.89-1.9,2.28,2.28,0,0,0-.79-1.92,3.79,3.79,0,0,0-2.36-.74Z"/><path class="cls-1" d="M168.17,64.43l4.18-18.93,12.24,2.71-.86,3.86-7.7-1.7-.77,3.46,6.8,1.51-.86,3.86-6.79-1.5-.86,3.86,8,1.77-.85,3.86Z"/><path class="cls-1" d="M191.29,71.66a8.55,8.55,0,0,1-2.84-1.91,6.91,6.91,0,0,1-1.64-2.69,6.53,6.53,0,0,1-.18-3.18l4.38.93A2.94,2.94,0,0,0,192.9,68a2.91,2.91,0,0,0,1.87.22,1.64,1.64,0,0,0,1.19-1,1.51,1.51,0,0,0-.12-1.42,6.33,6.33,0,0,0-1.74-1.66l-.61-.44A8.21,8.21,0,0,1,190.35,60a5.07,5.07,0,0,1,.14-3.86A5.65,5.65,0,0,1,192,54a6.13,6.13,0,0,1,2.13-1.23,6.88,6.88,0,0,1,2.55-.31,7.91,7.91,0,0,1,2.72.66A7.53,7.53,0,0,1,202,55a6.27,6.27,0,0,1,1.48,2.58,6.41,6.41,0,0,1,.12,3.06l-4.31-.89a3.13,3.13,0,0,0-.33-1.79,2.77,2.77,0,0,0-2.91-1.26,1.53,1.53,0,0,0-1.08.93,1.31,1.31,0,0,0,0,1,2.67,2.67,0,0,0,.7,1,14.53,14.53,0,0,0,1.19,1l.59.43a8.93,8.93,0,0,1,3.2,3.69,5,5,0,0,1-.12,3.95,6,6,0,0,1-3.73,3.44,7,7,0,0,1-2.64.31A8.55,8.55,0,0,1,191.29,71.66Z"/><path class="cls-1" d="M207.11,80.28a8.42,8.42,0,0,1-2.42-2.41,6.73,6.73,0,0,1-1.1-3,6.44,6.44,0,0,1,.42-3.16l4.13,1.74A2.92,2.92,0,0,0,209.39,77a2.92,2.92,0,0,0,1.8.57,1.67,1.67,0,0,0,1.36-.74,1.54,1.54,0,0,0,.15-1.42,6.35,6.35,0,0,0-1.4-2l-.51-.55a8.16,8.16,0,0,1-2.39-4.22,5.07,5.07,0,0,1,.87-3.76,5.54,5.54,0,0,1,1.84-1.77,6,6,0,0,1,2.32-.81,6.85,6.85,0,0,1,2.57.18,8,8,0,0,1,2.54,1.16,7.61,7.61,0,0,1,2.27,2.29,6.27,6.27,0,0,1,.5,5.84l-4.06-1.69a3.21,3.21,0,0,0,0-1.82,2.76,2.76,0,0,0-2.61-1.79,1.56,1.56,0,0,0-1.24.71,1.28,1.28,0,0,0-.24,1,2.54,2.54,0,0,0,.51,1.07,12,12,0,0,0,1,1.18l.5.53a9,9,0,0,1,2.45,4.23,5,5,0,0,1-.87,3.86,6.11,6.11,0,0,1-1.91,1.85,6,6,0,0,1-2.4.82,6.84,6.84,0,0,1-2.65-.19A8.73,8.73,0,0,1,207.11,80.28Z"/><path class="cls-1" d="M183.85,235.74a11.49,11.49,0,0,1-5.25,0h0l-3.24-.73-.32,3.31a11.72,11.72,0,0,1-20.14,7l-2.13-2.23-2.12,2.23a11.72,11.72,0,0,1-20.14-7l-.32-3.31-3.24.73A11.72,11.72,0,0,1,118.77,214l3.52-1.91-2.89-2.78A11.74,11.74,0,0,1,121.32,191l2.46-1.54-1.52-2.47a11.78,11.78,0,0,1,6.34-17.25l3.63-1.19-2.1-3.2a11.47,11.47,0,0,1-1.83-7.63l-5.83-.63a17.67,17.67,0,0,0,1.18,8.46A17.63,17.63,0,0,0,116,187.59a17.6,17.6,0,0,0-3,23.28,17.58,17.58,0,0,0,12.17,31,17.47,17.47,0,0,0,13.87,12.64l-1,17.28V272a8.8,8.8,0,0,1-8.79,8.79v5.86h25.89L135,284.47l6.06-3.71a14.56,14.56,0,0,0,2.94-8.7l1-17.48a17.24,17.24,0,0,0,7.81-3.33,17.32,17.32,0,0,0,7.82,3.33l1,17.48a14.56,14.56,0,0,0,2.94,8.7l6.06,5.09-15.33.77h21v-5.86a8.8,8.8,0,0,1-8.79-8.79l-1-17.44a17.47,17.47,0,0,0,13.87-12.64,17.34,17.34,0,0,0,4.86-.44Z"/></g></g></svg>