<svg xmlns="http://www.w3.org/2000/svg" viewBox="0 0 305.55 305.47"><defs><style>.cls-1{fill:#98938f;}</style></defs><g id="Layer_2" data-name="Layer 2"><g id="Layer_1-2" data-name="Layer 1"><path class="cls-1" d="M165.28,250.89l5.84-.35.36,5.85-5.85.35Z"/><path class="cls-1" d="M167.83,110.53h5.86v5.86h-5.86Z"/><path class="cls-1" d="M211.3,135.63h5.86v5.86H211.3Z"/><path class="cls-1" d="M152.77,288.78c-75,0-136-61-136-136s61-136,136-136,136,61,136,136S227.77,288.78,152.77,288.78Zm0-266.15A130.29,130.29,0,0,0,22.63,152.77c0,71.77,58.38,130.15,130.14,130.15A130.29,130.29,0,0,0,282.92,152.77C282.92,81,224.54,22.63,152.77,22.63Z"/><path class="cls-1" d="M147.76,305.47c-3.39-.11-6.81-.34-10.18-.67l.58-5.83c3.23.32,6.53.53,9.79.64Zm10.21,0-.2-5.85c3.27-.11,6.56-.33,9.8-.66l.58,5.83C164.79,305.12,161.36,305.35,158,305.46Zm-30.51-2c-3.34-.56-6.71-1.24-10-2l1.35-5.7c3.16.75,6.4,1.4,9.62,1.94Zm50.81,0-1-5.78c3.22-.54,6.46-1.19,9.62-1.95l1.36,5.7C185,302.19,181.61,302.87,178.27,303.43Zm-70.66-4.67c-3.25-1-6.5-2.13-9.66-3.35l2.1-5.47c3,1.18,6.17,2.26,9.29,3.22Zm90.5-.05-1.73-5.6c3.11-1,6.23-2.05,9.27-3.22l2.11,5.46C204.6,296.57,201.35,297.7,198.11,298.71ZM88.54,291.42c-3.08-1.42-6.15-3-9.12-4.61l2.81-5.13c2.87,1.57,5.82,3.06,8.77,4.43Zm128.6-.05-2.47-5.32c3-1.37,5.89-2.86,8.75-4.43l2.82,5.14C223.27,288.39,220.21,289.94,217.14,291.37ZM70.63,281.61c-2.86-1.83-5.69-3.78-8.42-5.79l3.48-4.71c2.62,1.93,5.34,3.8,8.09,5.56ZM235,281.55l-3.16-4.94c2.74-1.75,5.46-3.62,8.08-5.56l3.48,4.72C240.68,277.78,237.86,279.73,235,281.55ZM54.2,269.49c-2.59-2.19-5.14-4.49-7.57-6.84l4.07-4.22C53,260.7,55.49,262.91,58,265Zm197.22-.05L247.63,265c2.49-2.1,4.93-4.31,7.28-6.58l4.07,4.21C256.54,265,254,267.25,251.42,269.44ZM39.53,255.31c-2.28-2.5-4.5-5.12-6.6-7.78l4.59-3.64c2,2.56,4.16,5.08,6.35,7.49Zm226.55-.06-4.34-3.93c2.18-2.41,4.31-4.93,6.34-7.49l4.6,3.63C270.57,250.12,268.35,252.75,266.08,255.25ZM26.87,239.32c-1.93-2.79-3.78-5.68-5.51-8.59l5-3c1.66,2.8,3.44,5.58,5.29,8.26Zm251.87-.08-4.83-3.32c1.85-2.68,3.63-5.47,5.29-8.27l5,3C282.51,233.55,280.66,236.45,278.74,239.24ZM16.45,221.8c-1.53-3-3-6.13-4.31-9.25l5.39-2.29c1.28,3,2.67,6,4.14,8.89Zm272.71-.12L283.93,219c1.48-2.91,2.87-5.91,4.14-8.91l5.4,2.29C292.14,215.54,290.69,218.66,289.16,221.68ZM8.47,203.05c-1.12-3.2-2.14-6.48-3-9.75l5.65-1.55c.87,3.14,1.85,6.3,2.92,9.37Zm288.67-.17L291.61,201c1.07-3.09,2-6.24,2.9-9.38l5.65,1.54C299.27,196.39,298.25,199.67,297.14,202.88ZM3.07,183.37c-.68-3.32-1.25-6.71-1.7-10.06l5.81-.78c.43,3.22,1,6.48,1.63,9.67Zm299.45-.18L296.78,182c.64-3.19,1.19-6.45,1.62-9.68l5.8.78C303.76,176.48,303.19,179.87,302.52,183.19ZM.35,163.15C.12,159.78,0,156.35,0,153H5.86c0,3.26.12,6.56.33,9.81ZM305.21,163l-5.84-.38c.21-3.25.32-6.55.32-9.82v-.33l5.86,0v.36C305.55,156.17,305.44,159.6,305.21,163Zm-299-19.84-5.85-.38c.22-3.38.56-6.8,1-10.15l5.81.77C6.7,136.59,6.38,139.87,6.17,143.13Zm293.17-.51c-.22-3.26-.55-6.54-1-9.77l5.81-.79c.45,3.36.8,6.77,1,10.16ZM8.74,123.68,3,122.53c.67-3.32,1.46-6.66,2.35-9.93L11,114.13C10.14,117.28,9.38,120.49,8.74,123.68Zm288-.5c-.66-3.2-1.43-6.41-2.29-9.55l5.65-1.55c.9,3.26,1.7,6.6,2.38,9.92ZM13.89,104.75l-5.54-1.91c1.11-3.2,2.34-6.42,3.66-9.54l5.4,2.28C16.14,98.59,15,101.67,13.89,104.75Zm277.6-.48c-1.07-3.08-2.26-6.15-3.54-9.14l5.39-2.3c1.33,3.11,2.57,6.31,3.68,9.5ZM21.54,86.66,16.31,84c1.53-3,3.18-6,4.91-9l5,3C24.6,80.85,23,83.75,21.54,86.66Zm262.26-.41c-1.48-2.9-3.07-5.79-4.74-8.59l5-3c1.73,2.91,3.39,5.91,4.92,8.93ZM31.54,69.77l-4.83-3.32c1.91-2.79,3.95-5.56,6-8.22l4.6,3.63C35.34,64.42,33.38,67.08,31.54,69.77Zm242.22-.36c-1.85-2.68-3.81-5.34-5.84-7.89l4.59-3.64c2.11,2.65,4.15,5.41,6.07,8.2ZM43.7,54.35l-4.35-3.92c2.27-2.52,4.65-5,7.09-7.35l4.08,4.21C48.18,49.56,45.88,51.94,43.7,54.35ZM261.57,54c-2.19-2.41-4.49-4.78-6.84-7l4.07-4.21c2.44,2.35,4.83,4.81,7.1,7.32ZM57.79,40.69,54,36.22c2.58-2.19,5.27-4.32,8-6.33l3.49,4.71C62.86,36.53,60.28,38.58,57.79,40.69Zm189.65-.27c-2.5-2.11-5.09-4.15-7.72-6.08l3.47-4.72c2.73,2,5.43,4.13,8,6.32ZM73.56,29l-3.17-4.93c2.86-1.83,5.8-3.58,8.77-5.21L82,24C79.13,25.58,76.3,27.26,73.56,29Zm158.06-.23c-2.75-1.76-5.6-3.44-8.45-5L226,18.65c3,1.62,5.93,3.37,8.79,5.2ZM90.73,19.57l-2.48-5.31c3.07-1.44,6.22-2.78,9.38-4l2.11,5.46C96.71,16.9,93.68,18.19,90.73,19.57Zm123.66-.2c-3-1.38-6-2.66-9-3.83l2.1-5.47c3.16,1.21,6.33,2.55,9.41,4ZM109,12.49l-1.75-5.6c3.24-1,6.55-1.92,9.85-2.7l1.36,5.69C115.3,10.64,112.11,11.52,109,12.49Zm87-.15c-3.12-1-6.3-1.83-9.47-2.57l1.34-5.71c3.3.78,6.61,1.68,9.85,2.67Zm-68-4.42-1-5.77c3.34-.57,6.74-1,10.11-1.37l.59,5.83C134.57,6.94,131.3,7.38,128.09,7.92ZM177,7.84c-3.21-.53-6.48-1-9.73-1.28l.57-5.83c3.38.33,6.78.77,10.12,1.33ZM147.6,6,147.4.09c3.36-.11,6.8-.12,10.21,0l-.18,5.86C154.15,5.83,150.84,5.84,147.6,6Z"/><path class="cls-1" d="M95,82.87a8.54,8.54,0,0,1-3.07,1.51,6.86,6.86,0,0,1-3.15.07A6.41,6.41,0,0,1,85.92,83l3-3.33a3.13,3.13,0,0,0,1.86.61,3.09,3.09,0,0,0,1.81-.67,2.93,2.93,0,0,0,1.13-1.51,1.66,1.66,0,0,0-.26-1.53,1.49,1.49,0,0,0-1.29-.6,6.3,6.3,0,0,0-2.31.67l-.69.31a8.21,8.21,0,0,1-4.76.88,5.1,5.1,0,0,1-3.28-2,5.75,5.75,0,0,1-1.07-2.32,6,6,0,0,1,0-2.45,6.8,6.8,0,0,1,1-2.37,8.37,8.37,0,0,1,4.84-3.43,6.32,6.32,0,0,1,5.68,1.44L88.64,70a3.16,3.16,0,0,0-1.71-.61,2.45,2.45,0,0,0-1.57.55,2.48,2.48,0,0,0-1,1.34,1.59,1.59,0,0,0,.27,1.4,1.32,1.32,0,0,0,.88.56,2.83,2.83,0,0,0,1.18-.14c.44-.14.92-.32,1.43-.54l.67-.3a9,9,0,0,1,4.79-.93A5,5,0,0,1,97,73.37a6,6,0,0,1,1.12,4.95A6.82,6.82,0,0,1,97,80.76,8.64,8.64,0,0,1,95,82.87Z"/><path class="cls-1" d="M104.54,75.87,96.08,58.44,107.35,53l1.73,3.57L102,60l1.55,3.19,6.26-3,1.73,3.57-6.26,3L107,70.29l7.34-3.57,1.73,3.56Z"/><path class="cls-1" d="M129.77,66.7a10.21,10.21,0,0,1-3.19.26,10,10,0,0,1-3-.73A9.66,9.66,0,0,1,121,64.61a10.2,10.2,0,0,1-2-2.42,10.52,10.52,0,0,1-1.26-3.1,10.9,10.9,0,0,1-.28-3.34,10,10,0,0,1,.74-3.1A9.8,9.8,0,0,1,119.75,50a10.2,10.2,0,0,1,2.42-2,11.2,11.2,0,0,1,6.43-1.53,10,10,0,0,1,3.06.73,10.37,10.37,0,0,1,2.63,1.59,9.79,9.79,0,0,1,2,2.36,10.31,10.31,0,0,1,1.21,3A10,10,0,0,1,137.7,58a10.91,10.91,0,0,1-1.2,3.57l2.76,2.15-2.43,3.13-2.89-2.23A10.81,10.81,0,0,1,132,65.89,10.1,10.1,0,0,1,129.77,66.7ZM129,62.39a5.43,5.43,0,0,0,1.41-.54L126.76,59l2.34-3,3.68,2.86a5.3,5.3,0,0,0,.23-1.56,7.47,7.47,0,0,0-1.14-4,5.81,5.81,0,0,0-1.51-1.57,4.91,4.91,0,0,0-1.93-.81,5.42,5.42,0,0,0-4.15,1,5.06,5.06,0,0,0-1.36,1.59,5.64,5.64,0,0,0-.64,2.06,7.23,7.23,0,0,0,1.08,4.57,6,6,0,0,0,1.51,1.55,5,5,0,0,0,1.93.8A5.45,5.45,0,0,0,129,62.39Z"/><path class="cls-1" d="M153,64a9.78,9.78,0,0,1-3.53-.66,7.46,7.46,0,0,1-4.37-4.47,9.86,9.86,0,0,1-.55-3.52l.18-11.41,4.75.07-.17,11.19a5.14,5.14,0,0,0,.44,2.33A3.67,3.67,0,0,0,151,59.06a3.88,3.88,0,0,0,2.06.56,3.83,3.83,0,0,0,2.07-.5,3.64,3.64,0,0,0,1.36-1.49,5.33,5.33,0,0,0,.51-2.32l.17-11.19,4.75.07-.17,11.42a9.64,9.64,0,0,1-.67,3.49,7.75,7.75,0,0,1-1.79,2.67,7.67,7.67,0,0,1-2.77,1.67A10,10,0,0,1,153,64Z"/><path class="cls-1" d="M176.13,66.79A10.75,10.75,0,0,1,173,65.52a9.65,9.65,0,0,1-2.4-2,9.86,9.86,0,0,1-1.6-2.64,9.68,9.68,0,0,1-.71-3.08,11.35,11.35,0,0,1,1.58-6.43A9.44,9.44,0,0,1,172,48.92a9.62,9.62,0,0,1,2.66-1.6,10.11,10.11,0,0,1,3.08-.71,10.74,10.74,0,0,1,3.35.3,10.87,10.87,0,0,1,3.09,1.27,9.65,9.65,0,0,1,2.4,2,9.86,9.86,0,0,1,1.6,2.64,9.68,9.68,0,0,1,.71,3.08,11.35,11.35,0,0,1-1.58,6.43,9.44,9.44,0,0,1-2.05,2.42,9.62,9.62,0,0,1-2.66,1.6,10.11,10.11,0,0,1-3.08.71A10.74,10.74,0,0,1,176.13,66.79Zm1.06-4.24a5.16,5.16,0,0,0,2.17.08,4.8,4.8,0,0,0,1.94-.79,5.72,5.72,0,0,0,1.52-1.54,6.63,6.63,0,0,0,.94-2.18,6.74,6.74,0,0,0,.17-2.38,5.45,5.45,0,0,0-.63-2.06,4.83,4.83,0,0,0-1.35-1.6,5.39,5.39,0,0,0-4.14-1,4.82,4.82,0,0,0-1.93.79,5.72,5.72,0,0,0-1.52,1.54,6.63,6.63,0,0,0-.94,2.18,7,7,0,0,0-.18,2.38,5.64,5.64,0,0,0,.64,2.06,4.83,4.83,0,0,0,1.35,1.6A5.15,5.15,0,0,0,177.19,62.55Z"/><path class="cls-1" d="M190.74,71l7.95-17.68,4.34,2-8,17.68Z"/><path class="cls-1" d="M199.18,74.47l17.3-11.64,4.16,2.86L216,86,212,83.23l1-3.88-6.59-4.53-3.26,2.34Zm10.63-2.11L214,75.24,215.9,68Z"/><path class="cls-1" d="M229.89,133.84a19.42,19.42,0,0,0-8.33-9.14A29.37,29.37,0,0,0,207.89,121h-.21a31.71,31.71,0,0,0-8.58,1.48q.06-.6.06-1.2a13.79,13.79,0,0,0-11.09-13.5,13.77,13.77,0,0,0-14.74-11,24.57,24.57,0,0,0-40.81,0,13.79,13.79,0,0,0-14.74,11A13.76,13.76,0,0,0,120.45,135h13a26.4,26.4,0,0,0,7.94,4.22l-3.84,63.49-19.88-5.29c-6.57-1.66-9.66-2.81-11.24-11.41,4.63-.55,8.62-2.22,11.08-4.68h4.41a11.72,11.72,0,0,0,10.87-16.1,11.77,11.77,0,0,0-15.62-15.14,27.5,27.5,0,0,0-14-4.17h-.21a29.9,29.9,0,0,0-9.75,2l2.15,5.45a23.72,23.72,0,0,1,7.7-1.57,20.86,20.86,0,0,1,12.07,4.06l1.7,1.37,1.8-1.23a5.7,5.7,0,0,1,7.28.6,5.58,5.58,0,0,1,1.09,7.17l-.85,1.47.85,1.47a5.79,5.79,0,0,1,.79,2.92,5.87,5.87,0,0,1-5.86,5.86h-7.22l-.88,1.19c-1.3,1.78-5.23,3.69-10.76,3.69s-9.47-1.91-10.77-3.69l-.88-1.19H84.18a5.86,5.86,0,0,1,0-11.72h2.17l.63-2.08a11.84,11.84,0,0,1,4-5.87l-3.66-4.57a17.7,17.7,0,0,0-5.29,6.85,11.72,11.72,0,0,0,2.11,23.25h4.41c2.61,2.6,6.92,4.32,11.9,4.76.91,5.47,2.46,9.14,4.89,11.72,2.92,3.09,6.79,4.26,10.81,5.28l21,5.58L133.4,271c-.31,5.11-4.09,9-8.79,9l1,4.33,20.52,1.53L128,284.47l8.18-4.48a15.94,15.94,0,0,0,3.08-8.61l7.92-130.74a38.79,38.79,0,0,0,11.52,0L165,245l5.85-.36L167.24,185l27.15-4.7.21,0c4.05-1,7.93-2.2,10.85-5.29,2.43-2.57,4-6.24,4.89-11.71,5.33-.44,9.94-2.28,12.7-5.06h4.74a12.25,12.25,0,0,0,2.11-24.31Zm-77,1.37c-6.55,0-12.71-2-16.48-5.33h0l-.83-.73H120.45a7.9,7.9,0,0,1,0-15.79h2.93v-2.93a7.92,7.92,0,0,1,9.87-7.65l2.2.57,1.1-2a18.72,18.72,0,0,1,32.76,0l1.1,2,2.19-.57a7.91,7.91,0,0,1,9.87,7.65v2.93h2.93a7.87,7.87,0,0,1,6.84,11.81,12,12,0,0,0-12.78,2.51,12.44,12.44,0,0,0-1.35,1.47h-7.87l-.83.73C165.63,133.22,159.47,135.21,152.93,135.21Zm40.35,39.3-26.39,4.56-2.41-39.84a26.46,26.46,0,0,0,7.93-4.22h3.19a12.06,12.06,0,0,0,.87,6.26,12,12,0,0,0-.92,4.64,12.25,12.25,0,0,0,12.24,12.24h4.74c2.62,2.64,6.9,4.43,11.88,5C202.84,171.68,199.77,172.86,193.28,174.51Zm34.5-22.22h-7.56l-.88,1.2c-1.41,1.91-5.62,4-11.56,4s-10.14-2.06-11.55-4l-.88-1.2h-7.56a6.39,6.39,0,0,1-6.38-6.39,6.3,6.3,0,0,1,.85-3.17l.86-1.47-.86-1.47a6.1,6.1,0,0,1,1.19-7.82,6.64,6.64,0,0,1,4.42-1.8,6.13,6.13,0,0,1,3.52,1.15l1.8,1.23,1.7-1.37a21.9,21.9,0,0,1,12.89-4.34c6.87.28,14.95,3.2,17.19,10.6l.63,2.08h2.18a6.39,6.39,0,0,1,0,12.77Z"/><path class="cls-1" d="M172.45,271l-.53-8.81-5.85.35.54,8.81a15.93,15.93,0,0,0,3.07,8.61l7.88,5.86,2.62-.83,1.07-5C176.54,280,172.76,276.14,172.45,271Z"/></g></g></svg>