<svg xmlns="http://www.w3.org/2000/svg" viewBox="0 0 305.55 305.47"><defs><style>.cls-1{fill:#98938f;}</style></defs><g id="Layer_2" data-name="Layer 2"><g id="Layer_1-2" data-name="Layer 1"><rect class="cls-1" x="181.31" y="110.74" width="5.86" height="5.86"/><rect class="cls-1" x="205.08" y="123.17" width="5.86" height="5.86"/><rect class="cls-1" x="158.93" y="252.68" width="5.86" height="5.86" transform="translate(-6.37 4.15) rotate(-1.44)"/><path class="cls-1" d="M152.77,288.78c-75,0-136-61-136-136s61-136,136-136,136,61,136,136S227.77,288.78,152.77,288.78Zm0-266.15A130.29,130.29,0,0,0,22.63,152.77c0,71.77,58.38,130.15,130.14,130.15A130.29,130.29,0,0,0,282.92,152.77C282.92,81,224.54,22.63,152.77,22.63Z"/><path class="cls-1" d="M147.76,305.47c-3.39-.11-6.82-.34-10.18-.67l.58-5.83c3.23.32,6.53.53,9.79.64Zm10.21,0-.2-5.85c3.27-.11,6.56-.33,9.8-.66l.58,5.83C164.79,305.12,161.36,305.35,158,305.46Zm-30.51-2c-3.34-.56-6.71-1.24-10-2l1.35-5.7c3.16.75,6.4,1.4,9.62,1.94Zm50.8,0-1-5.78c3.22-.54,6.46-1.19,9.62-1.95l1.36,5.7C185,302.19,181.61,302.87,178.26,303.43Zm-70.65-4.67c-3.25-1-6.5-2.13-9.66-3.35l2.1-5.47c3,1.18,6.17,2.26,9.29,3.22Zm90.5-.05-1.73-5.6c3.11-1,6.23-2.05,9.27-3.22l2.11,5.46C204.6,296.57,201.35,297.7,198.11,298.71ZM88.54,291.43c-3.08-1.43-6.15-3-9.12-4.62l2.81-5.13c2.87,1.57,5.82,3.06,8.77,4.43Zm128.6-.06-2.47-5.32c3-1.37,5.89-2.86,8.75-4.43l2.82,5.14C223.27,288.39,220.21,289.94,217.14,291.37ZM70.63,281.61c-2.86-1.83-5.69-3.78-8.42-5.79l3.48-4.71c2.62,1.93,5.34,3.8,8.09,5.56ZM235,281.55l-3.16-4.94c2.74-1.75,5.46-3.62,8.08-5.56l3.48,4.72C240.68,277.78,237.85,279.73,235,281.55ZM54.2,269.49c-2.59-2.19-5.14-4.49-7.58-6.84l4.08-4.22C53,260.7,55.49,262.91,58,265Zm197.22-.05L247.63,265c2.49-2.1,4.93-4.31,7.28-6.58l4.07,4.21C256.55,265,254,267.25,251.42,269.44ZM39.52,255.31c-2.27-2.5-4.49-5.12-6.59-7.78l4.59-3.64c2,2.56,4.16,5.08,6.35,7.49Zm226.56-.06-4.35-3.93c2.19-2.41,4.32-4.93,6.35-7.49l4.59,3.63C270.57,250.12,268.35,252.75,266.08,255.25ZM26.86,239.32c-1.92-2.79-3.77-5.68-5.5-8.59l5-3c1.66,2.8,3.44,5.58,5.29,8.26Zm251.88-.08-4.83-3.32c1.85-2.68,3.63-5.47,5.29-8.27l5,3C282.51,233.55,280.66,236.45,278.74,239.24ZM16.45,221.8c-1.53-3-3-6.13-4.31-9.25l5.39-2.29c1.28,3,2.67,6,4.14,8.89Zm272.71-.12L283.93,219c1.47-2.91,2.87-5.91,4.14-8.91l5.4,2.29C292.14,215.54,290.69,218.66,289.16,221.68ZM8.47,203.05c-1.12-3.2-2.14-6.48-3-9.75l5.65-1.55c.87,3.14,1.85,6.3,2.92,9.37Zm288.67-.17L291.61,201c1.07-3.09,2-6.24,2.9-9.38l5.65,1.54C299.27,196.39,298.25,199.67,297.14,202.88ZM3.06,183.37c-.67-3.32-1.24-6.71-1.69-10.06l5.81-.78c.43,3.22,1,6.48,1.63,9.67Zm299.46-.18L296.78,182c.64-3.19,1.19-6.45,1.62-9.68l5.8.78C303.76,176.48,303.19,179.87,302.52,183.19ZM.35,163.15C.12,159.78,0,156.35,0,153H5.86c0,3.26.12,6.56.33,9.81ZM305.21,163l-5.84-.38c.21-3.25.32-6.55.32-9.82v-.33l5.86,0v.36C305.55,156.17,305.44,159.6,305.21,163Zm-299-19.84-5.85-.38c.22-3.38.56-6.8,1-10.15l5.81.76C6.7,136.59,6.38,139.87,6.17,143.13Zm293.17-.51c-.22-3.26-.55-6.54-1-9.77l5.81-.78c.45,3.35.8,6.76,1,10.15ZM8.74,123.68,3,122.53c.67-3.32,1.46-6.66,2.35-9.93L11,114.13C10.14,117.28,9.38,120.49,8.74,123.68Zm288-.5c-.66-3.2-1.43-6.41-2.29-9.55l5.65-1.55c.9,3.26,1.7,6.6,2.38,9.92ZM13.89,104.75l-5.54-1.91c1.11-3.2,2.34-6.41,3.66-9.54l5.4,2.28C16.14,98.59,15,101.68,13.89,104.75Zm277.6-.48c-1.07-3.08-2.26-6.15-3.54-9.14l5.39-2.3c1.33,3.11,2.57,6.31,3.68,9.5ZM21.54,86.66,16.31,84c1.53-3,3.18-6,4.91-9l5,3C24.6,80.85,23,83.75,21.54,86.66Zm262.26-.41c-1.48-2.9-3.07-5.79-4.74-8.59l5-3c1.73,2.91,3.39,5.91,4.92,8.93ZM31.54,69.77l-4.83-3.32c1.91-2.79,3.95-5.56,6-8.22l4.6,3.63C35.34,64.42,33.38,67.08,31.54,69.77Zm242.22-.36c-1.85-2.68-3.81-5.34-5.84-7.89l4.59-3.64c2.11,2.65,4.15,5.41,6.07,8.2ZM43.7,54.35l-4.35-3.92c2.27-2.52,4.66-5,7.09-7.35l4.08,4.21C48.18,49.56,45.88,51.93,43.7,54.35ZM261.57,54c-2.19-2.41-4.49-4.78-6.84-7l4.06-4.21c2.44,2.35,4.84,4.81,7.11,7.32ZM57.79,40.69,54,36.22c2.58-2.19,5.27-4.32,8-6.33l3.49,4.71C62.86,36.53,60.27,38.58,57.79,40.69Zm189.65-.27c-2.5-2.11-5.09-4.15-7.72-6.08l3.47-4.72c2.73,2,5.43,4.13,8,6.32ZM73.56,29l-3.17-4.93c2.85-1.83,5.8-3.58,8.77-5.21L82,24C79.13,25.58,76.3,27.26,73.56,29Zm158.06-.23c-2.75-1.76-5.6-3.44-8.46-5L226,18.65c3,1.62,5.93,3.37,8.79,5.2ZM90.73,19.57l-2.48-5.31c3.07-1.44,6.22-2.78,9.38-4l2.11,5.46C96.71,16.9,93.68,18.19,90.73,19.57Zm123.66-.21c-3-1.37-6-2.65-9-3.82l2.1-5.47c3.16,1.21,6.33,2.55,9.41,4ZM109,12.49l-1.75-5.6c3.24-1,6.55-1.91,9.85-2.7l1.36,5.69C115.3,10.64,112.11,11.52,109,12.49Zm87-.15c-3.12-1-6.3-1.83-9.47-2.57l1.34-5.71c3.3.78,6.61,1.68,9.85,2.67Zm-68-4.42-1-5.77c3.34-.57,6.74-1,10.11-1.37l.59,5.83C134.57,6.94,131.3,7.38,128.09,7.92ZM177,7.84c-3.21-.53-6.48-1-9.73-1.28l.57-5.83c3.38.33,6.78.77,10.12,1.33ZM147.6,6,147.4.09c3.36-.11,6.8-.12,10.21,0l-.18,5.86C154.15,5.83,150.84,5.84,147.6,6Z"/><path class="cls-1" d="M73.23,103.33,63.72,84.77,67.06,81l19.62,7L83.44,91.7l-3.73-1.46-5.28,6,1.93,3.51Zm-.84-10.8,3.37-3.83-7-2.74Z"/><path class="cls-1" d="M90,85.54,78.73,69.74l5.36-3.81A10.74,10.74,0,0,1,88,64.1a6.15,6.15,0,0,1,3.5.2,6,6,0,0,1,2.75,2.22,5.63,5.63,0,0,1,.9,1.94,6.78,6.78,0,0,1,.18,2.16,6.56,6.56,0,0,1-.54,2.12l7.93,3.74-4.23,3-6.31-3.35c-.22.18-.46.36-.71.54a10.73,10.73,0,0,1-1.44.85l3.77,5.3ZM84.83,70.26l2.92,4.09c.28-.13.56-.28.82-.43s.55-.34.83-.54a3.48,3.48,0,0,0,1.47-1.91,2.36,2.36,0,0,0-.43-2,2.32,2.32,0,0,0-1.79-1,3.74,3.74,0,0,0-2.33.83Z"/><path class="cls-1" d="M105.08,75l-.38-20.84,4.66-1.94L123.9,67.11,119.36,69l-2.71-3-7.38,3.08.19,4Zm4-10.06,4.72-2-5.09-5.54Z"/><path class="cls-1" d="M135.48,65.48a9.79,9.79,0,0,1-3.58,0,7.57,7.57,0,0,1-3-1.23,7.43,7.43,0,0,1-2.17-2.35,9.78,9.78,0,0,1-1.19-3.35l-2-11.24,4.68-.82,1.92,11a5.14,5.14,0,0,0,.87,2.2A3.6,3.6,0,0,0,132.67,61a3.91,3.91,0,0,0,2.12.17,3.87,3.87,0,0,0,1.94-.88,3.67,3.67,0,0,0,1.06-1.72,5.33,5.33,0,0,0,.07-2.37l-1.92-11,4.68-.81,2,11.24a9.45,9.45,0,0,1,0,3.56,7.44,7.44,0,0,1-3.67,5.11A10.27,10.27,0,0,1,135.48,65.48Z"/><path class="cls-1" d="M158.4,64.14a10,10,0,0,1-3.15-.64A9.55,9.55,0,0,1,152.62,62a9.21,9.21,0,0,1-2-2.24,9.86,9.86,0,0,1-1.22-2.85,10.87,10.87,0,0,1-.31-3.31,11,11,0,0,1,.64-3.28,10.18,10.18,0,0,1,1.5-2.8,9.59,9.59,0,0,1,5-3.45,10,10,0,0,1,3.17-.35,10.17,10.17,0,0,1,2.94.58,9.12,9.12,0,0,1,2.47,1.37,8.09,8.09,0,0,1,1.84,2,8.2,8.2,0,0,1,1.09,2.61l-4.68.81a4.89,4.89,0,0,0-1.56-2.18,4.34,4.34,0,0,0-4.34-.5,4.59,4.59,0,0,0-1.6,1.18,5.76,5.76,0,0,0-1.1,1.83,7.54,7.54,0,0,0-.47,2.34,7.39,7.39,0,0,0,.24,2.34,5.55,5.55,0,0,0,.92,1.89,4.65,4.65,0,0,0,1.49,1.27,4.56,4.56,0,0,0,2,.52,4.35,4.35,0,0,0,2.53-.6,5.05,5.05,0,0,0,1.83-2l4.59,1.26a8.09,8.09,0,0,1-2,3.2,8.6,8.6,0,0,1-3.17,2A10.29,10.29,0,0,1,158.4,64.14Z"/><path class="cls-1" d="M169.83,64.35l12.58-16.62,4.87,1.36,2.19,20.72-4.73-1.31-.31-4-7.7-2.14-2.33,3.26Zm9.36-5.44,4.92,1.36-.58-7.5Z"/><path class="cls-1" d="M193.21,71.67l9.16-17.09,5.8,3.11a10.55,10.55,0,0,1,3.36,2.67,5.78,5.78,0,0,1,.61,6.67,5.71,5.71,0,0,1-1.34,1.67,6.74,6.74,0,0,1-4,1.58L207,79l-4.57-2.45.2-7.14c-.27-.12-.54-.25-.81-.4a10,10,0,0,1-1.4-.91l-3.07,5.73Zm11.4-11.4-2.37,4.43c.25.2.5.38.76.55a9.54,9.54,0,0,0,.85.5,3.48,3.48,0,0,0,2.36.47,2.35,2.35,0,0,0,1.64-1.3,2.25,2.25,0,0,0,.15-2.07,3.75,3.75,0,0,0-1.78-1.71Z"/><path class="cls-1" d="M210.36,81.79l11.75-15.41,3.78,2.88L214.13,84.67Z"/><path class="cls-1" d="M217.79,87.05l19.52-7.34,3.39,3.74-9.21,18.71-3.3-3.64L230.06,95l-5.37-5.92L221,90.57Zm10.83.39,3.43,3.78,3.51-6.65Z"/><path class="cls-1" d="M214.16,150.73a14.09,14.09,0,0,0-13.7,10.93c-16.24-1.17-30.07-8.79-37.19-19.48a50.76,50.76,0,0,1,32.51,2.7c5.09,2.19,9.05,3.25,12.08,3.25a18.87,18.87,0,0,0,.35-37.73h0a18.7,18.7,0,0,0-8.88,2,19.18,19.18,0,0,0-18.51-14.23,18.9,18.9,0,0,0-5.83.92A28.7,28.7,0,0,0,151.6,87a28.39,28.39,0,0,0-23.12,11.77,18.54,18.54,0,0,0-4.38-.52A19.08,19.08,0,0,0,105.75,112a18.86,18.86,0,1,0-7.48,36.18c2.85,0,6.48-1,11.09-3a49.52,49.52,0,0,1,32.33-2.62l.82.2c-7.22,10.42-20.86,17.81-36.83,19a14.07,14.07,0,1,0,.09,5.86c15.18-1,28.51-7.21,37.27-16.33l-.13,4.63c-5.46,13-14.22,23.06-24.73,28.2a11.74,11.74,0,1,0,2.11,6.7c0-.41,0-.81-.06-1.22,8.76-4.17,16.43-11.33,22.31-20.51l-2.75,98.41-.27,4.75v.16a8.8,8.8,0,0,1-8.79,8.79V287h43.53V281.1a8.8,8.8,0,0,1-8.79-8.79l-.24-4.38-.1-3.31-5.85.16,0,1.56.39,7.63a14.65,14.65,0,0,0,2.83,7.13L168,286l-14.91.63-14.71-1.56,4-4a14.55,14.55,0,0,0,2.83-7.13l.41-7.63L148.74,157h0l.36-12.83h6.8l2.87,102.73,5.86-.17-2.23-79.67c6,10.12,14.14,18,23.51,22.45,0,.41-.06.81-.06,1.22A11.78,11.78,0,1,0,188,184c-11.35-5.55-20.64-16.87-26-31.32l-.08-2.77c8.72,9.81,22.58,16.52,38.44,17.59a14.07,14.07,0,1,0,13.8-16.79ZM92,173a8.21,8.21,0,1,1,8.2-8.21A8.22,8.22,0,0,1,92,173Zm16.56,23.61a5.9,5.9,0,1,1,5.89-5.9A5.91,5.91,0,0,1,108.54,196.62Zm89.06-11.79a5.9,5.9,0,1,1-5.89,5.89A5.9,5.9,0,0,1,197.6,184.83Zm-35.91-48.3c-5.67,1.46-8.62,1.77-10.09,1.77a35.57,35.57,0,0,1-8.43-1.47A55.36,55.36,0,0,0,107,139.76c-4.73,2.08-7.36,2.52-8.73,2.52a13,13,0,1,1,7.88-23.35,2.93,2.93,0,0,0,4.7-2.2,13.24,13.24,0,0,1,17.84-11.83,2.92,2.92,0,0,0,3.51-1.21,22.74,22.74,0,0,1,39.1.52,2.93,2.93,0,0,0,3.8,1.17,13.15,13.15,0,0,1,5.72-1.31,13.29,13.29,0,0,1,13.29,13.22,2.26,2.26,0,0,0,0,.26,2.93,2.93,0,0,0,4.92,2.2,13,13,0,0,1,9.08-3.49,13.18,13.18,0,0,1,12.76,12.4,13,13,0,0,1-13,13.62c-1.51,0-4.42-.49-9.76-2.78a57.35,57.35,0,0,0-22.68-4.7A55.14,55.14,0,0,0,161.69,136.53ZM214.16,173a8.21,8.21,0,1,1,8.21-8.21A8.22,8.22,0,0,1,214.16,173Z"/></g></g></svg>