<svg width="390" height="446" viewBox="0 0 390 446" fill="none" xmlns="http://www.w3.org/2000/svg">
<path fill-rule="evenodd" clip-rule="evenodd" d="M22.9284 0H17.5706C17.5706 4.03284 14.3076 7.3062 10.2691 7.34122H10.1382C9.95375 7.33962 9.77087 7.33126 9.58984 7.31638V7.34122H7.32592C7.35299 7.5971 7.36687 7.8569 7.36687 8.11993C7.36687 12.1745 4.06862 15.4615 0 15.4615V20.8008C3.9659 20.8008 7.19984 23.9239 7.36061 27.8368H7.32592C7.34484 28.0157 7.35732 28.1965 7.36312 28.3789C7.35912 28.5048 7.35194 28.6299 7.34166 28.7541H7.36558C7.29143 32.7448 4.02215 35.957 0 35.9571V41.2964C3.96451 41.2964 7.19757 44.4173 7.36044 48.3283H7.32592C7.34492 48.5078 7.35742 48.6893 7.36318 48.8725C7.3592 48.999 7.352 49.1248 7.34166 49.2497H7.36551C7.28918 53.2384 4.02077 56.4485 0 56.4485V61.7878C3.96591 61.7879 7.19986 64.9109 7.36061 68.8239H7.32592C7.34484 69.0027 7.35732 69.1835 7.36312 69.366C7.35912 69.4918 7.35194 69.617 7.34166 69.7411H7.36559C7.29145 73.7318 4.02216 76.9441 0 76.9441V82.2835C3.9659 82.2835 7.19984 85.4065 7.36061 89.3194H7.32592C7.34484 89.4983 7.35732 89.6791 7.36312 89.8616C7.35912 89.9874 7.35194 90.1126 7.34166 90.2368H7.36558C7.29144 94.2274 4.02215 97.4397 0 97.4397V102.779C3.96591 102.779 7.19986 105.902 7.36061 109.815H7.32592C7.34484 109.994 7.35732 110.175 7.36312 110.357C7.35912 110.483 7.35194 110.608 7.34166 110.732H7.36559C7.29145 114.723 4.02216 117.935 0 117.935V123.275C3.9659 123.275 7.19984 126.398 7.36061 130.311H7.32592C7.34484 130.489 7.35732 130.67 7.36312 130.853C7.35912 130.979 7.35194 131.104 7.34166 131.228H7.36558C7.29144 135.219 4.02215 138.431 0 138.431V143.77C3.96591 143.77 7.19986 146.893 7.36061 150.806H7.32592C7.34484 150.985 7.35732 151.166 7.36312 151.348C7.35912 151.474 7.35194 151.599 7.34166 151.724H7.36559C7.29145 155.714 4.02216 158.926 0 158.926V164.266C3.9659 164.266 7.19985 167.389 7.36061 171.302H7.32592C7.34484 171.481 7.35732 171.661 7.36312 171.844C7.35912 171.97 7.35194 172.095 7.34166 172.219H7.36558C7.29144 176.21 4.02216 179.422 0 179.422V184.761C3.9659 184.761 7.19985 187.884 7.36061 191.797H7.32592C7.34484 191.976 7.35732 192.157 7.36312 192.34C7.35912 192.465 7.35194 192.591 7.34166 192.715H7.36558C7.29144 196.705 4.02216 199.918 0 199.918V205.257C3.9652 205.257 7.19871 208.379 7.36052 212.291H7.32592C7.34488 212.47 7.35737 212.651 7.36315 212.834C7.35916 212.96 7.35197 213.086 7.34166 213.21H7.36555C7.29031 217.2 4.02146 220.411 0 220.411V225.751C3.9659 225.751 7.19985 228.874 7.36061 232.786H7.32592C7.34484 232.965 7.35732 233.146 7.36312 233.329C7.35912 233.454 7.35194 233.58 7.34166 233.704H7.36558C7.29144 237.694 4.02216 240.907 0 240.907V246.246C3.9659 246.246 7.19985 249.369 7.36061 253.282H7.32592C7.34484 253.461 7.35732 253.642 7.36312 253.824C7.35912 253.95 7.35194 254.075 7.34166 254.199H7.36558C7.29144 258.19 4.02216 261.402 0 261.402V266.742C3.9659 266.742 7.19985 269.865 7.36061 273.778H7.32592C7.34484 273.957 7.35732 274.137 7.36312 274.32C7.35912 274.446 7.35194 274.571 7.34166 274.695H7.36558C7.29144 278.686 4.02215 281.898 0 281.898V287.237C3.9659 287.237 7.19985 290.36 7.36061 294.273H7.32592C7.34484 294.452 7.35732 294.633 7.36312 294.815C7.35912 294.941 7.35194 295.066 7.34166 295.191H7.36558C7.29144 299.181 4.02215 302.394 0 302.394V307.733C3.9659 307.733 7.19985 310.856 7.36061 314.769H7.32592C7.34484 314.948 7.35732 315.129 7.36312 315.311C7.35912 315.437 7.35194 315.562 7.34166 315.686H7.36559C7.29145 319.677 4.02216 322.889 0 322.889V328.228C3.9659 328.228 7.19985 331.352 7.36061 335.264H7.32592C7.34484 335.443 7.35732 335.624 7.36312 335.807C7.35912 335.932 7.35194 336.058 7.34166 336.182H7.36559C7.29145 340.172 4.02216 343.385 0 343.385V348.724C3.9659 348.724 7.19985 351.847 7.36061 355.76H7.32592C7.34484 355.939 7.35732 356.12 7.36312 356.302C7.35912 356.428 7.35194 356.553 7.34166 356.677H7.36558C7.29144 360.668 4.02215 363.88 0 363.88V369.22C3.9652 369.22 7.19871 372.342 7.36052 376.254H7.32592C7.34488 376.433 7.35737 376.614 7.36315 376.797C7.35916 376.923 7.35197 377.048 7.34166 377.173H7.36555C7.29032 381.163 4.02146 384.374 0 384.374V389.713C3.96591 389.713 7.19987 392.836 7.36061 396.749H7.32592C7.34484 396.928 7.35732 397.109 7.36312 397.291C7.35912 397.417 7.35194 397.542 7.34166 397.666H7.36558C7.29144 401.657 4.02215 404.869 0 404.869V410.209C3.966 410.209 7.2 413.332 7.36062 417.245H7.32593C7.34484 417.424 7.35732 417.605 7.36312 417.787C7.35912 417.913 7.35194 418.038 7.34166 418.162H7.3656C7.29162 422.153 4.02227 425.365 1.2411e-05 425.365V430.705C4.06863 430.705 7.36688 433.992 7.36688 438.046C7.36688 438.252 7.35837 438.456 7.34167 438.658H9.29437V438.699C9.55114 438.672 9.81183 438.658 10.0758 438.658C14.1444 438.658 17.4427 441.945 17.4427 446H22.8005C22.8005 442.048 25.9343 438.825 29.8608 438.665V438.699C30.0402 438.68 30.2216 438.668 30.4047 438.662C30.531 438.666 30.6566 438.673 30.7812 438.684V438.66C34.7857 438.734 38.0091 441.992 38.0091 446H43.3669C43.3669 442.048 46.5008 438.825 50.4272 438.665V438.699C50.6066 438.68 50.788 438.668 50.9711 438.662C51.0974 438.666 51.223 438.673 51.3477 438.684V438.66C55.3521 438.734 58.5755 441.992 58.5755 446H63.9333C63.9333 442.048 67.0672 438.825 70.9936 438.665V438.699C71.1731 438.68 71.3545 438.668 71.5376 438.662C71.6639 438.666 71.7894 438.673 71.9141 438.684V438.66C75.9185 438.734 79.1419 441.992 79.1419 446H84.4997C84.4997 442.048 87.6336 438.825 91.56 438.665V438.699C91.7395 438.68 91.9208 438.668 92.1039 438.662C92.2302 438.666 92.3558 438.673 92.4805 438.684V438.66C96.4849 438.734 99.7083 441.992 99.7083 446H105.066C105.066 442.048 108.2 438.825 112.126 438.665V438.699C112.306 438.68 112.487 438.668 112.67 438.662C112.797 438.666 112.922 438.673 113.047 438.684V438.66C117.051 438.734 120.275 441.992 120.275 446H125.632C125.633 442.048 128.766 438.825 132.693 438.665V438.699C132.872 438.68 133.054 438.668 133.237 438.662C133.363 438.666 133.489 438.673 133.613 438.684V438.66C137.618 438.734 140.841 441.992 140.841 446H146.199C146.199 442.048 149.333 438.825 153.259 438.665V438.699C153.439 438.68 153.62 438.668 153.803 438.662C153.929 438.666 154.055 438.673 154.18 438.684V438.66C158.184 438.734 161.408 441.992 161.408 446H166.765C166.765 442.048 169.899 438.825 173.826 438.665V438.699C174.005 438.68 174.187 438.668 174.37 438.662C174.436 438.664 174.501 438.667 174.567 438.671C174.601 438.673 174.636 438.675 174.67 438.678C174.696 438.68 174.721 438.682 174.746 438.684V438.66C178.751 438.734 181.974 441.992 181.974 446H187.332C187.332 442.048 190.466 438.825 194.392 438.665V438.699C194.571 438.68 194.753 438.668 194.936 438.662C194.973 438.663 195.01 438.665 195.046 438.667L195.082 438.668C195.159 438.672 195.236 438.677 195.312 438.684V438.66C199.317 438.734 202.54 441.992 202.54 446H207.898C207.898 442.048 211.032 438.825 214.958 438.665V438.699C215.138 438.68 215.319 438.668 215.502 438.662C215.629 438.666 215.754 438.673 215.879 438.684V438.66C219.883 438.734 223.107 441.992 223.107 446H228.465C228.465 442.048 231.598 438.825 235.525 438.665V438.699C235.704 438.68 235.886 438.668 236.069 438.662L236.122 438.664L236.162 438.666L236.207 438.668C236.287 438.672 236.366 438.677 236.445 438.684V438.66C240.45 438.734 243.673 441.992 243.673 446H249.031C249.031 442.048 252.165 438.825 256.091 438.665V438.699C256.271 438.68 256.452 438.668 256.635 438.662C256.702 438.664 256.768 438.667 256.833 438.671C256.893 438.675 256.952 438.679 257.012 438.684V438.66C261.016 438.734 264.24 441.992 264.24 446H269.597C269.597 442.048 272.731 438.825 276.658 438.665V438.699C276.756 438.689 276.854 438.681 276.953 438.674C277.036 438.669 277.118 438.665 277.202 438.662C277.328 438.666 277.453 438.673 277.578 438.684V438.66C281.583 438.734 284.806 441.992 284.806 446H290.164C290.164 442.048 293.298 438.825 297.224 438.665V438.699C297.282 438.693 297.34 438.688 297.398 438.683C297.521 438.673 297.644 438.666 297.768 438.662C297.894 438.666 298.02 438.673 298.145 438.684V438.66C302.149 438.734 305.372 441.992 305.372 446H310.73C310.73 442.048 313.864 438.825 317.79 438.665V438.699C317.97 438.68 318.151 438.668 318.334 438.662C318.461 438.666 318.586 438.673 318.711 438.684V438.66C322.715 438.734 325.939 441.992 325.939 446H331.297C331.297 442.048 334.43 438.825 338.357 438.665V438.699C338.536 438.68 338.718 438.668 338.901 438.662C339.027 438.666 339.153 438.673 339.277 438.684V438.66C343.282 438.734 346.505 441.992 346.505 446H351.863C351.863 442.048 354.997 438.825 358.923 438.665V438.699C359.103 438.68 359.284 438.668 359.467 438.662C359.514 438.664 359.561 438.666 359.607 438.668C359.686 438.672 359.765 438.677 359.844 438.684V438.66C363.848 438.734 367.072 441.992 367.072 446H372.429C372.429 441.953 375.716 438.67 379.775 438.659L379.796 438.658L379.818 438.659C379.849 438.659 379.881 438.659 379.913 438.659C379.982 438.66 380.05 438.662 380.118 438.665C380.216 438.67 380.313 438.676 380.41 438.684V438.659H382.674C382.647 438.403 382.633 438.143 382.633 437.88C382.633 433.825 385.931 430.538 390 430.538V425.199C386.034 425.199 382.8 422.076 382.639 418.163H382.674C382.671 418.132 382.668 418.102 382.665 418.071C382.66 418.017 382.656 417.964 382.652 417.91C382.645 417.814 382.64 417.718 382.637 417.621L382.639 417.555L382.641 417.505L382.643 417.469L382.646 417.426C382.648 417.389 382.65 417.353 382.653 417.316L382.656 417.273L382.658 417.246H382.634C382.709 413.255 385.978 410.043 390 410.043V404.703C386.035 404.703 382.802 401.582 382.64 397.671H382.674C382.655 397.492 382.643 397.31 382.637 397.127C382.638 397.074 382.641 397.02 382.644 396.967C382.647 396.911 382.65 396.855 382.654 396.8L382.658 396.75H382.634C382.711 392.761 385.979 389.551 390 389.551V384.212C386.034 384.212 382.8 381.089 382.639 377.176H382.674C382.655 376.997 382.643 376.816 382.637 376.634C382.641 376.508 382.648 376.383 382.658 376.259H382.634C382.708 372.268 385.978 369.056 390 369.056V363.716C386.034 363.716 382.8 360.593 382.639 356.68H382.674C382.655 356.501 382.643 356.321 382.637 356.138C382.641 356.012 382.648 355.887 382.658 355.763H382.634C382.709 351.772 385.978 348.56 390 348.56V343.221C386.034 343.221 382.8 340.098 382.639 336.185H382.674C382.655 336.006 382.643 335.825 382.637 335.643C382.641 335.517 382.648 335.392 382.658 335.267H382.634C382.708 331.277 385.978 328.064 390 328.064V322.725C386.034 322.725 382.8 319.602 382.639 315.689H382.674C382.655 315.51 382.643 315.329 382.637 315.147C382.641 315.021 382.648 314.896 382.658 314.772H382.634C382.709 310.781 385.978 307.569 390 307.569V302.23C386.034 302.23 382.8 299.106 382.639 295.194H382.674C382.655 295.015 382.643 294.834 382.637 294.651C382.641 294.525 382.648 294.4 382.658 294.276H382.634C382.708 290.286 385.978 287.073 390 287.073V281.734C386.034 281.734 382.8 278.611 382.639 274.698H382.674C382.655 274.519 382.643 274.338 382.637 274.156L382.638 274.117L382.641 274.05L382.644 273.995C382.648 273.923 382.652 273.852 382.658 273.781H382.634C382.709 269.79 385.978 266.578 390 266.578V261.238C386.034 261.238 382.8 258.115 382.639 254.202H382.674C382.655 254.023 382.643 253.843 382.637 253.66C382.639 253.599 382.641 253.539 382.645 253.478C382.648 253.414 382.653 253.349 382.658 253.285H382.634C382.708 249.294 385.978 246.082 390 246.082V240.743C386.035 240.743 382.801 237.621 382.639 233.709H382.674C382.655 233.53 382.643 233.348 382.637 233.166C382.641 233.039 382.648 232.914 382.658 232.789H382.634C382.71 228.8 385.978 225.589 390 225.589V220.249C386.034 220.249 382.8 217.126 382.639 213.213H382.674C382.655 213.034 382.643 212.854 382.637 212.671C382.641 212.545 382.648 212.42 382.658 212.296H382.634C382.708 208.305 385.978 205.093 390 205.093V199.754C386.034 199.754 382.8 196.631 382.639 192.718H382.674C382.655 192.539 382.643 192.358 382.637 192.175C382.641 192.05 382.648 191.925 382.658 191.8H382.634C382.708 187.81 385.978 184.597 390 184.597V179.258C386.034 179.258 382.8 176.135 382.639 172.222H382.674C382.666 172.143 382.659 172.064 382.653 171.985L382.649 171.931L382.648 171.919L382.646 171.878C382.644 171.847 382.642 171.816 382.641 171.785C382.64 171.76 382.639 171.736 382.638 171.711L382.637 171.68C382.641 171.554 382.648 171.429 382.658 171.305H382.634C382.708 167.314 385.978 164.102 390 164.102V158.762C386.034 158.762 382.8 155.639 382.639 151.726H382.674C382.655 151.548 382.643 151.367 382.637 151.184C382.641 151.058 382.648 150.933 382.658 150.809H382.634C382.708 146.818 385.978 143.606 390 143.606V138.267C386.034 138.267 382.8 135.144 382.639 131.231H382.674C382.655 131.052 382.643 130.871 382.637 130.689C382.641 130.563 382.648 130.438 382.658 130.314H382.634C382.708 126.323 385.978 123.111 390 123.111V117.771C386.034 117.771 382.8 114.648 382.639 110.735H382.674C382.655 110.556 382.643 110.376 382.637 110.193C382.641 110.067 382.648 109.942 382.658 109.818H382.634C382.708 105.827 385.978 102.615 390 102.615V97.2757C386.034 97.2756 382.8 94.1526 382.639 90.2397H382.674C382.655 90.0608 382.643 89.88 382.637 89.6975C382.641 89.5717 382.648 89.4466 382.658 89.3224H382.634C382.708 85.3317 385.978 82.1194 390 82.1194V76.7801C386.035 76.78 382.801 73.6581 382.639 69.7462H382.674C382.655 69.5669 382.643 69.3858 382.637 69.2029C382.641 69.0767 382.648 68.9513 382.658 68.8268H382.634C382.71 64.8371 385.978 61.6259 390 61.6259V56.2866C386.034 56.2865 382.8 53.1635 382.639 49.2506H382.674C382.655 49.0717 382.643 48.8909 382.637 48.7084C382.64 48.623 382.644 48.538 382.649 48.4533C382.652 48.4132 382.655 48.3732 382.658 48.3333H382.634C382.708 44.3426 385.978 41.1303 390 41.1303V35.791C386.034 35.7909 382.8 32.6677 382.639 28.7547H382.674C382.655 28.5763 382.643 28.396 382.637 28.2141C382.641 28.0878 382.648 27.9623 382.658 27.8377H382.634C382.708 23.8469 385.978 20.6345 390 20.6344V15.2951C385.931 15.2951 382.633 12.0082 382.633 7.95354C382.633 7.74753 382.642 7.54351 382.658 7.3418H380.706V7.3007C380.449 7.32767 380.188 7.34151 379.924 7.34151C375.856 7.34151 372.557 4.05461 372.557 0H367.2C367.2 3.95225 364.066 7.17507 360.139 7.33526V7.3007C359.96 7.31956 359.778 7.33199 359.595 7.33777C359.469 7.33378 359.343 7.32663 359.219 7.31638V7.34023C355.214 7.26634 351.991 4.00831 351.991 0H346.633C346.633 3.95225 343.499 7.17507 339.573 7.33526V7.3007C339.393 7.31956 339.212 7.33199 339.029 7.33777C338.902 7.33378 338.777 7.32663 338.652 7.31638V7.34023C334.648 7.26634 331.424 4.00831 331.424 0H326.067C326.067 3.95225 322.933 7.17507 319.006 7.33526V7.3007C318.827 7.31956 318.646 7.33199 318.462 7.33777C318.336 7.33378 318.211 7.32663 318.086 7.31638V7.34023C314.081 7.26634 310.858 4.00831 310.858 0H305.5C305.5 3.95225 302.366 7.17507 298.44 7.33526V7.3007C298.26 7.31956 298.079 7.33199 297.896 7.33777C297.77 7.33378 297.644 7.32663 297.52 7.31638V7.34023C293.515 7.26634 290.292 4.00831 290.292 0H284.934C284.934 3.95225 281.8 7.17507 277.874 7.33526V7.3007C277.694 7.31956 277.513 7.33199 277.33 7.33777C277.203 7.33378 277.078 7.32663 276.953 7.31638V7.34023C272.949 7.26634 269.725 4.00831 269.725 0H264.367C264.367 3.95225 261.234 7.17507 257.307 7.33526V7.3007C257.128 7.31956 256.946 7.33199 256.763 7.33777C256.637 7.33378 256.511 7.32663 256.387 7.31638V7.34023C252.382 7.26634 249.159 4.00831 249.159 0H243.801C243.801 3.95225 240.667 7.17506 236.741 7.33526V7.3007C236.561 7.31956 236.38 7.33199 236.197 7.33777C236.07 7.33378 235.945 7.32663 235.82 7.31638V7.34023C231.816 7.26634 228.592 4.00831 228.592 0H223.235C223.235 3.95225 220.101 7.17506 216.174 7.33526V7.3007C215.995 7.31956 215.813 7.33199 215.63 7.33777C215.504 7.33378 215.379 7.32663 215.254 7.31638V7.34023C211.249 7.26634 208.026 4.00831 208.026 0H202.668C202.668 3.95225 199.534 7.17506 195.608 7.33526V7.3007C195.428 7.31956 195.247 7.33199 195.064 7.33777C194.938 7.33378 194.812 7.32663 194.688 7.31638V7.34023C190.683 7.26634 187.46 4.00831 187.46 0H182.102C182.102 3.95225 178.968 7.17506 175.042 7.33526V7.3007C174.862 7.31956 174.681 7.33199 174.498 7.33777C174.371 7.33378 174.246 7.32663 174.121 7.31638V7.34023C170.117 7.26634 166.893 4.00831 166.893 0H161.535C161.535 3.95225 158.402 7.17506 154.475 7.33526V7.3007C154.296 7.31956 154.114 7.33199 153.931 7.33777C153.805 7.33378 153.679 7.32663 153.555 7.31638V7.34023C149.55 7.26634 146.327 4.00831 146.327 0H140.969C140.969 3.95225 137.835 7.17506 133.909 7.33526V7.3007C133.729 7.31956 133.548 7.33199 133.365 7.33777C133.238 7.33378 133.113 7.32663 132.988 7.31638V7.34023C128.984 7.26634 125.76 4.00831 125.76 0H120.403C120.403 3.95225 117.269 7.17507 113.342 7.33526V7.3007C113.163 7.31956 112.981 7.33199 112.798 7.33777C112.672 7.33378 112.547 7.32663 112.422 7.31638V7.34023C108.417 7.26634 105.194 4.00831 105.194 0H99.8363C99.8362 3.95225 96.7024 7.17507 92.7759 7.33526V7.3007C92.5965 7.31956 92.415 7.33199 92.232 7.33777C92.1057 7.33378 91.9801 7.32663 91.8555 7.31638V7.34023C87.851 7.26634 84.6276 4.00831 84.6276 0H79.2698C79.2698 3.95225 76.136 7.17507 72.2095 7.33526V7.3007C72.03 7.31956 71.8486 7.33199 71.6655 7.33777C71.5392 7.33378 71.4137 7.32663 71.2891 7.31638V7.34023C67.2846 7.26634 64.0612 4.00831 64.0612 0H58.7034C58.7034 3.95225 55.5696 7.17507 51.6431 7.33526V7.3007C51.4636 7.31956 51.2822 7.33199 51.0991 7.33777C50.9728 7.33378 50.8473 7.32663 50.7227 7.31638V7.34023C46.7182 7.26634 43.4948 4.00831 43.4948 0H38.137C38.137 3.95225 35.0032 7.17507 31.0767 7.33526V7.3007C30.8972 7.31956 30.7158 7.33199 30.5327 7.33777C30.4064 7.33378 30.2809 7.32663 30.1562 7.31638V7.34023C26.1518 7.26634 22.9284 4.00831 22.9284 0Z" fill="#FAF8F6"/>
</svg>
