<svg class="OffsetraLogo__Svg-sc-188q9yk-0 jakA offsetra-logo" viewBox="0 0 177 49" fill="none" xmlns="http://www.w3.org/2000/svg"><g filter="url(#filter0_d)"><path d="M35.89 33.456c-.455.616-1.43.419-1.947-.148A3.971 3.971 0 0031 32h-1a1 1 0 01-1-1v-5a2 2 0 00-2-2H16a1 1 0 01-1-1v-2a1 1 0 011-1h3a2 2 0 002-2v-3a1 1 0 011-1h3a4 4 0 004-4v0c0-.392.397-.66.753-.494C35.21 12.04 39 17.572 39 24c0 3.543-1.16 6.81-3.11 9.456zM21 38.728c0 .601-.528 1.069-1.118.953C12.532 38.236 7 31.771 7 24c0-.61.039-1.21.109-1.798.093-.781 1.034-1.059 1.59-.502l8.008 8.007a1 1 0 01.293.707V32a4 4 0 003.01 3.876c.535.136.99.572.99 1.124v1.728zM23 4a20 20 0 100 40 20 20 0 000-40z" stroke="#000" stroke-width="1.8"/></g><path d="M71.057 12.28a7 7 0 00-3.64.988c-1.11.624-1.993 1.508-2.652 2.652-.624 1.11-.936 2.34-.936 3.692v.988h7.228v1.456H63.83V44h-1.664V22.056H51.557V44h-1.664V19.612c0-1.63.382-3.103 1.144-4.42a8.579 8.579 0 013.224-3.172 8.92 8.92 0 014.524-1.196v1.456a7 7 0 00-3.64.988c-1.11.624-1.993 1.508-2.652 2.652-.624 1.11-.936 2.34-.936 3.692v.988h10.608v-.988c0-1.63.382-3.103 1.144-4.42a8.579 8.579 0 013.224-3.172 8.92 8.92 0 014.524-1.196v1.456zm10.098 32.292c-1.664 0-3.137-.277-4.42-.832-1.283-.59-2.201-1.335-2.756-2.236v-2.756c.659 1.49 1.56 2.6 2.704 3.328 1.144.693 2.6 1.04 4.368 1.04 1.699 0 3.068-.52 4.108-1.56 1.04-1.075 1.56-2.444 1.56-4.108 0-1.421-.295-2.513-.884-3.276-.59-.797-1.543-1.595-2.86-2.392l-1.976-1.144a101.906 101.906 0 01-3.224-2.028c-.693-.52-1.248-1.092-1.664-1.716-.416-.659-.624-1.421-.624-2.288 0-1.387.485-2.496 1.456-3.328.97-.832 2.236-1.248 3.796-1.248 1.907 0 3.501.433 4.784 1.3v2.288c-1.075-1.421-2.617-2.132-4.628-2.132-1.11 0-2.01.277-2.704.832-.693.555-1.04 1.265-1.04 2.132 0 .763.208 1.439.624 2.028.416.555.988 1.075 1.716 1.56.763.485 2.01 1.213 3.744 2.184 1.768 1.005 3.068 2.045 3.9 3.12.832 1.04 1.248 2.41 1.248 4.108 0 2.15-.71 3.883-2.132 5.2-1.387 1.283-3.085 1.924-5.096 1.924zm23.798-1.404c1.803 0 3.519-.468 5.148-1.404 1.629-.936 2.981-2.219 4.056-3.848v2.652c-1.283 1.421-2.687 2.461-4.212 3.12-1.525.624-3.259.936-5.2.936-2.149 0-4.177-.572-6.084-1.716a13.293 13.293 0 01-4.524-4.576c-1.11-1.907-1.664-3.935-1.664-6.084 0-2.323.555-4.403 1.664-6.24a11.655 11.655 0 014.524-4.368c1.941-1.04 4.091-1.56 6.448-1.56 3.605 0 6.673 1.421 9.204 4.264l-16.328 16.12c1.144.936 2.253 1.63 3.328 2.08 1.075.416 2.288.624 3.64.624zM94.137 32.092c0 2.877.953 5.339 2.86 7.384l15.236-15.132c-1.144-1.005-2.253-1.716-3.328-2.132-1.075-.45-2.357-.676-3.848-.676-2.115 0-4.004.468-5.668 1.404a9.983 9.983 0 00-3.848 3.744c-.936 1.595-1.404 3.397-1.404 5.408zm33.749 12.22c-2.565 0-4.697-.78-6.396-2.34-1.664-1.56-2.496-3.71-2.496-6.448V11.188h1.664V20.6h7.176v1.456h-7.176v13.468c0 2.288.676 4.09 2.028 5.408 1.387 1.283 3.12 1.924 5.2 1.924v1.456zM132.26 20.6h1.664v5.408c.694-1.699 1.699-3.033 3.016-4.004 1.352-.97 2.878-1.456 4.576-1.456 1.075 0 2.167.225 3.276.676v1.924a5.453 5.453 0 00-3.38-1.144c-1.248 0-2.461.381-3.64 1.144-1.144.763-2.08 1.785-2.808 3.068a8.513 8.513 0 00-1.04 4.108V44h-1.664V20.6zm27.681 23.972c-2.219 0-4.282-.555-6.188-1.664a12.431 12.431 0 01-4.524-4.472 11.993 11.993 0 01-1.664-6.136c0-2.184.554-4.212 1.664-6.084a12.306 12.306 0 014.524-4.524 12.092 12.092 0 016.188-1.664c2.253 0 4.385.607 6.396 1.82 2.01 1.179 3.414 2.721 4.212 4.628V20.6h1.664V44h-1.664v-5.824c-.936 1.941-2.392 3.501-4.368 4.68-1.942 1.144-4.022 1.716-6.24 1.716zm.104-1.456c1.906 0 3.674-.485 5.304-1.456a11.058 11.058 0 003.848-3.952 10.554 10.554 0 001.456-5.408 10.46 10.46 0 00-1.456-5.356 10.936 10.936 0 00-3.9-3.952 9.918 9.918 0 00-5.304-1.508c-1.907 0-3.692.503-5.356 1.508a11.795 11.795 0 00-3.952 4.004 10.45 10.45 0 00-1.456 5.356c0 1.907.485 3.692 1.456 5.356a11.801 11.801 0 004.004 3.952 10.452 10.452 0 005.356 1.456z" fill="#000"/><defs><filter id="filter0_d" x="2.1" y="3.1" width="45.8" height="45.8" filterUnits="userSpaceOnUse" color-interpolation-filters="sRGB"><feFlood flood-opacity="0" result="BackgroundImageFix"/><feColorMatrix in="SourceAlpha" values="0 0 0 0 0 0 0 0 0 0 0 0 0 0 0 0 0 0 127 0"/><feOffset dx="2" dy="2"/><feGaussianBlur stdDeviation="1"/><feColorMatrix values="0 0 0 0 0.45518 0 0 0 0 0.241948 0 0 0 0 0.908297 0 0 0 0.5 0"/><feBlend in2="BackgroundImageFix" result="effect1_dropShadow"/><feBlend in="SourceGraphic" in2="effect1_dropShadow" result="shape"/></filter></defs></svg>